<svg width="34" height="34" viewBox="0 0 34 34" fill="none" xmlns="http://www.w3.org/2000/svg">
<path fill-rule="evenodd" clip-rule="evenodd" d="M29.1475 29.1715C30.1505 27.6415 30.5245 26.8595 31.2895 25.1426C25.6456 23.0006 24.7447 14.9598 30.3205 11.8829C28.6206 9.74095 26.2236 8.5 23.9627 8.5C22.3307 8.5 21.2087 8.92501 20.2058 9.316C19.3558 9.63899 18.5908 9.92796 17.6388 9.92796C16.6189 9.92796 15.7179 9.60499 14.7659 9.265C13.7289 8.89101 12.641 8.5 11.281 8.5C8.74807 8.5 6.04515 10.047 4.3282 12.6989C1.91426 16.4388 2.33926 23.4426 6.23215 29.4264C7.62611 31.5684 9.49606 33.9653 11.927 33.9993C12.947 34.0163 13.6099 33.7104 14.3409 33.3874C15.1739 33.0134 16.0749 32.6053 17.6558 32.6053C19.2368 32.5883 20.1208 33.0134 20.9538 33.3874C21.6677 33.7104 22.3137 34.0163 23.3167 33.9993C25.7816 33.9653 27.7536 31.3134 29.1475 29.1715Z" fill="black"/>
<path fill-rule="evenodd" clip-rule="evenodd" d="M24.0333 0C24.2755 1.78227 23.5944 3.54835 22.7015 4.77974C21.748 6.10834 20.0831 7.14526 18.4789 7.08045C18.1913 5.363 18.9329 3.59692 19.841 2.41415C20.855 1.11795 22.5652 0.113417 24.0333 0Z" fill="black"/>
</svg>
