<svg width="48" height="48" viewBox="0 0 48 48" fill="none" xmlns="http://www.w3.org/2000/svg">
<g clip-path="url(#clip0_826_3427)">
<path d="M24 48C37.2548 48 48 37.2548 48 24C48 10.7452 37.2548 0 24 0C10.7452 0 0 10.7452 0 24C0 37.2548 10.7452 48 24 48Z" fill="#E7E7E8"/>
<mask id="mask0_826_3427" style="mask-type:alpha" maskUnits="userSpaceOnUse" x="0" y="0" width="48" height="48">
<path d="M24 48C37.2548 48 48 37.2548 48 24C48 10.7452 37.2548 0 24 0C10.7452 0 0 10.7452 0 24C0 37.2548 10.7452 48 24 48Z" fill="#A3A3B5"/>
</mask>
<g mask="url(#mask0_826_3427)">
<path d="M5.25 48.75C6.10156 40.5933 9.21097 33.8089 16.9922 29.9282C18.4414 29.2072 18.0469 28.7884 17.0547 27.9627C10.375 22.4034 12.0039 12.1144 20.0078 9.02856C25.0664 7.07853 30.5899 8.88126 33.4961 13.4326C36.3086 17.8444 35.6133 23.6052 31.8086 27.2572C31.1641 27.8774 30.4648 28.4395 29.625 29.1723C38.1718 33.0064 41.8867 39.9536 42.75 48.75C30.25 48.75 17.75 48.75 5.25 48.75Z" fill="white"/>
</g>
</g>
<defs>
<clipPath id="clip0_826_3427">
<rect width="48" height="48" fill="white"/>
</clipPath>
</defs>
</svg>
