<svg width="84" height="84" viewBox="0 0 84 84" fill="none" xmlns="http://www.w3.org/2000/svg">
<g clip-path="url(#clip0_1_15057)">
<path d="M76.7809 18.9428L66.8192 3.29407C66.1636 2.26419 65.0273 1.64062 63.8065 1.64062H26.7341C26.4464 1.87839 26.1945 2.16357 25.9894 2.48785L15.6221 18.9428H76.7809Z" fill="black"/>
<path d="M14.6016 22.2976V79.4439C14.6016 80.6481 15.1982 81.712 16.1115 82.3593H74.2594C76.232 82.3593 77.831 80.7603 77.831 78.7877V21.6414C77.831 20.4372 77.2344 19.3734 76.3211 18.7261H18.1731C16.2005 18.7261 14.6016 20.325 14.6016 22.2976Z" fill="black"/>
<path d="M33.583 18.0698H50.6455V30.8436H33.583V18.0698Z" fill="white"/>
<path d="M50.6455 18.0238H33.583L36.4541 1.64062H47.7744L50.6455 18.0238Z" fill="white"/>
<path d="M77.831 43.5733C76.9248 43.5733 76.1904 44.3078 76.1904 45.214V78.7878C76.1904 79.8523 75.3239 80.7188 74.2594 80.7188H9.97C8.90552 80.7188 8.03906 79.8529 8.03906 78.7878V21.6415C8.03906 20.577 8.90552 19.7106 9.97 19.7106H13.9504V31.8281C13.9504 32.7343 14.6855 33.4688 15.5911 33.4688C16.4973 33.4688 17.2317 32.7343 17.2317 31.8281V19.7106H31.9428V30.8438C31.9428 31.7499 32.6773 32.4844 33.5835 32.4844H50.646C51.5522 32.4844 52.2866 31.7499 52.2866 30.8438V19.7106H74.2594C75.3239 19.7106 76.1904 20.577 76.1904 21.6415V31.8832C76.1904 32.7888 76.9248 33.5239 77.831 33.5239C78.7372 33.5239 79.4716 32.7888 79.4716 31.8832V21.6415C79.4716 20.7007 79.2198 19.8182 78.7814 19.0556C78.7532 18.9966 78.7224 18.9383 78.6866 18.8819L68.2032 2.41351C67.2413 0.902344 65.5974 0 63.8062 0H20.3162C18.5147 0 16.8664 0.910034 15.9064 2.43402L5.53839 18.8883C5.50378 18.9435 5.47366 18.9998 5.44675 19.0569C5.00903 19.8195 4.75781 20.7014 4.75781 21.6415V78.7878C4.75781 81.6615 7.09634 84 9.97 84H74.2594C77.1331 84 79.4716 81.6615 79.4716 78.7878V45.214C79.4716 44.3078 78.7372 43.5733 77.831 43.5733ZM49.0053 29.2031H35.2241V19.7106H49.0053V29.2031ZM65.4353 4.17526L73.236 16.4293H52.0322L49.7282 3.28125H63.8062C64.4702 3.28125 65.079 3.61514 65.4353 4.17526ZM46.397 3.28125L48.6926 16.3832H35.5368L37.8324 3.28125H46.397ZM18.682 4.18295C19.0377 3.61835 19.649 3.28125 20.3162 3.28125H34.5012L32.1973 16.4293H10.9659L18.682 4.18295Z" fill="black"/>
<path d="M77.8311 37.0552C77.3997 37.0552 76.9761 37.2308 76.6711 37.5358C76.366 37.8409 76.1904 38.2645 76.1904 38.6958C76.1904 39.1271 76.366 39.5507 76.6711 39.8558C76.9761 40.1608 77.3997 40.3364 77.8311 40.3364C78.2624 40.3364 78.686 40.1608 78.991 39.8558C79.2961 39.5507 79.4717 39.1271 79.4717 38.6958C79.4717 38.2645 79.2961 37.8409 78.991 37.5358C78.686 37.2308 78.2624 37.0552 77.8311 37.0552Z" fill="black"/>
<path d="M14.4315 36.5629C14.1258 36.868 13.9502 37.2916 13.9502 37.7229C13.9502 38.1542 14.1258 38.5778 14.4315 38.8829C14.7365 39.1879 15.1595 39.3635 15.5908 39.3635C16.024 39.3635 16.4457 39.1879 16.7527 38.8829C17.0578 38.5778 17.2314 38.1542 17.2314 37.7229C17.2314 37.2916 17.0578 36.868 16.7527 36.5629C16.4457 36.2579 16.024 36.0823 15.5908 36.0823C15.1595 36.0823 14.7359 36.2579 14.4315 36.5629Z" fill="black"/>
</g>
<defs>
<clipPath id="clip0_1_15057">
<rect width="84" height="84" fill="white"/>
</clipPath>
</defs>
</svg>
