<svg width="20" height="21" viewBox="0 0 20 21" fill="none" xmlns="http://www.w3.org/2000/svg">
<path d="M5.63315 18.8334H14.3665C16.6665 18.8334 17.5831 17.4251 17.6915 15.7084L18.1248 8.82508C18.2415 7.02508 16.8081 5.50008 14.9998 5.50008C14.4915 5.50008 14.0248 5.20841 13.7915 4.75841L13.1915 3.55008C12.8081 2.79175 11.8081 2.16675 10.9581 2.16675H9.04981C8.19148 2.16675 7.19148 2.79175 6.80815 3.55008L6.20815 4.75841C5.97481 5.20841 5.50815 5.50008 4.99981 5.50008C3.19148 5.50008 1.75815 7.02508 1.87481 8.82508L2.30815 15.7084C2.40815 17.4251 3.33315 18.8334 5.63315 18.8334Z" stroke="black" stroke-width="1.5" stroke-linecap="round" stroke-linejoin="round"/>
<path d="M8.75 7.16675H11.25" stroke="black" stroke-width="1.5" stroke-linecap="round" stroke-linejoin="round"/>
<path d="M10.0003 15.4999C11.492 15.4999 12.7087 14.2833 12.7087 12.7916C12.7087 11.2999 11.492 10.0833 10.0003 10.0833C8.50866 10.0833 7.29199 11.2999 7.29199 12.7916C7.29199 14.2833 8.50866 15.4999 10.0003 15.4999Z" stroke="black" stroke-width="1.5" stroke-linecap="round" stroke-linejoin="round"/>
</svg>
