<svg width="20" height="20" viewBox="0 0 20 20" fill="none" xmlns="http://www.w3.org/2000/svg">
<path d="M14.099 6.00504V6.45564L14.5472 6.50234C15.7977 6.63266 16.615 6.99732 17.1341 7.55393C17.8781 8.36961 17.8882 9.48567 17.7874 10.3718L17.1282 15.4917L17.1281 15.4917L17.1271 15.5003C17.0326 16.3493 16.8166 17.1069 16.228 17.6653C15.6403 18.2228 14.5892 18.6668 12.6294 18.6668H7.3708C5.41095 18.6668 4.36011 18.2228 3.77247 17.6644C3.18388 17.1051 2.96762 16.3453 2.87307 15.4914L2.87315 15.4914L2.87198 15.4823L2.21282 10.3811C2.11139 9.48103 2.1143 8.36873 2.86526 7.55486C3.38433 6.99773 4.20181 6.63273 5.45302 6.50234L5.9012 6.45564V6.00504V5.47343C5.9012 3.43333 7.60553 1.53833 9.59367 1.35186C10.7702 1.24501 11.8951 1.60661 12.7592 2.37362L12.7592 2.37362L12.7614 2.37554C13.6152 3.1245 14.099 4.19773 14.099 5.30845V6.00504ZM9.63607 1.62989L9.63356 1.63012C8.6935 1.7172 7.84015 2.22097 7.22749 2.91227C6.61446 3.604 6.21113 4.5182 6.21113 5.47343V5.95004V6.45004H6.71113H13.2891H13.7891V5.95004V5.30845C13.7891 4.26631 13.3407 3.26814 12.5452 2.56848C11.7413 1.86065 10.7096 1.53593 9.63607 1.62989ZM6.61689 11.5553H6.62631C7.40758 11.5553 8.06871 10.932 8.06871 10.1387C8.06871 9.34227 7.40429 8.72216 6.61689 8.72216C5.83562 8.72216 5.17449 9.34546 5.17449 10.1387C5.17449 10.932 5.83562 11.5553 6.61689 11.5553ZM13.2137 11.5553H13.2231C14.0043 11.5553 14.6655 10.932 14.6655 10.1387C14.6655 9.34227 14.0011 8.72216 13.2137 8.72216C12.4324 8.72216 11.7713 9.34546 11.7713 10.1387C11.7713 10.932 12.4324 11.5553 13.2137 11.5553Z" fill="#0F4A99" stroke="#0F4A99"/>
</svg>
