<svg width="18" height="19" viewBox="0 0 18 19" fill="none" xmlns="http://www.w3.org/2000/svg">
<path d="M2.74342 4.67021C2.58829 4.18029 2.41661 3.78184 2.34131 3.36633C2.10938 2.09346 2.68016 0.907417 3.75848 0.339976C4.88649 -0.255373 6.36239 -0.0646753 7.15757 0.879511C7.6636 1.48261 8.04311 2.19889 8.47836 2.86711C8.63498 3.10897 8.78559 3.35393 8.98589 3.67176C9.13046 3.46091 9.24191 3.30742 9.34281 3.14773C9.76601 2.47176 10.144 1.76013 10.6184 1.12447C11.3729 0.113619 12.4241 -0.173203 13.5958 0.101216C14.6064 0.336875 15.2871 0.994239 15.5883 2.0392C15.8082 2.80044 15.7615 3.53532 15.391 4.2392C15.3353 4.34463 15.2871 4.4547 15.1847 4.67176C15.5461 4.67176 15.8353 4.67176 16.1244 4.67176C17.2976 4.67486 17.9738 5.36633 17.9799 6.57253C17.9829 7.2547 17.9919 7.93687 17.9769 8.61905C17.9618 9.26091 17.7344 9.81129 17.1756 10.1384C16.9076 10.295 16.8473 10.4904 16.8488 10.7787C16.8579 12.4842 16.8564 14.188 16.8519 15.8935C16.8488 17.6532 15.9738 18.5462 14.2645 18.5446C10.7223 18.5446 7.17866 18.5446 3.63649 18.5446C2.05215 18.5446 1.14703 17.6314 1.13649 15.988C1.12444 14.2671 1.12745 12.5477 1.1395 10.8268C1.14101 10.5043 1.07775 10.2873 0.77956 10.1121C0.253958 9.80354 0.0355844 9.27021 0.0175121 8.66711C-0.00507828 7.90897 -0.0065843 7.14773 0.0175121 6.38959C0.0491386 5.37408 0.74191 4.69501 1.73137 4.67486C2.05968 4.66866 2.38649 4.67486 2.74492 4.67486L2.74342 4.67021ZM8.46781 13.9648C8.46781 12.926 8.46179 11.8873 8.47233 10.8485C8.47534 10.5741 8.42866 10.4144 8.11089 10.4159C6.2645 10.4252 4.41811 10.4237 2.57173 10.4175C2.30516 10.4175 2.19522 10.5167 2.19673 10.7989C2.20426 12.6283 2.1892 14.4578 2.20727 16.2857C2.2148 16.971 2.67113 17.4314 3.32173 17.4377C4.9136 17.4516 6.50396 17.4377 8.09583 17.447C8.39552 17.4485 8.47836 17.3291 8.47534 17.033C8.46179 16.0097 8.46932 14.9865 8.46932 13.9632L8.46781 13.9648ZM9.54613 17.4113C9.74191 17.4237 9.91812 17.4423 10.0943 17.4423C11.5506 17.4454 13.007 17.4454 14.4633 17.4423C15.3684 17.4423 15.7901 17.0128 15.7916 16.0811C15.7961 14.3756 15.7811 12.6702 15.8006 10.9648C15.8052 10.54 15.6847 10.4035 15.266 10.4097C13.525 10.4314 11.7826 10.4175 10.0416 10.4206C9.88197 10.4206 9.72083 10.4423 9.54462 10.4547V17.4097L9.54613 17.4113ZM8.44522 5.83765C8.35486 5.80664 8.31269 5.78029 8.27052 5.78029C6.08077 5.77563 3.8895 5.76943 1.69974 5.77563C1.27655 5.77563 1.07926 6.0392 1.07775 6.46401C1.07474 7.11517 1.07474 7.76478 1.07625 8.41594C1.07775 9.13843 1.22836 9.29967 1.9151 9.29967C3.95577 9.30122 5.99643 9.29967 8.03558 9.29967C8.1651 9.29967 8.29462 9.27951 8.44372 9.26711V5.8392L8.44522 5.83765ZM9.54311 9.24075C9.61992 9.27021 9.64703 9.28881 9.67414 9.28881C11.879 9.29346 14.0853 9.29812 16.2901 9.29501C16.7148 9.29501 16.9106 9.0361 16.9136 8.61129C16.9166 7.94463 16.9181 7.27951 16.9136 6.61284C16.9091 5.94463 16.7389 5.77098 16.0732 5.77098C14.0627 5.76788 12.0522 5.76943 10.0416 5.77098C9.88046 5.77098 9.72083 5.79114 9.54161 5.80354V9.2392L9.54311 9.24075ZM8.32474 4.63145C7.65757 3.58029 7.09884 2.59269 6.43468 1.69191C5.9648 1.05315 5.00245 0.949278 4.29462 1.30587C3.66058 1.62525 3.27655 2.34153 3.35637 3.05626C3.44673 3.88106 3.96329 4.54928 4.78107 4.60974C5.90757 4.69501 7.04613 4.63145 8.32625 4.63145H8.32474ZM9.7389 4.59114C9.85486 4.6299 9.90757 4.66246 9.96179 4.66246C10.9829 4.66401 12.004 4.68726 13.0235 4.6516C13.5506 4.633 14.007 4.38339 14.3247 3.92292C14.8639 3.13843 14.6997 2.03455 13.9633 1.47331C13.1546 0.857805 11.9392 1.0423 11.3639 1.89967C10.9467 2.52292 10.5762 3.18184 10.1877 3.82525C10.0401 4.06866 9.89854 4.31672 9.7389 4.58959V4.59114Z" fill="black"/>
</svg>
