<svg width="84" height="84" viewBox="0 0 84 84" fill="none" xmlns="http://www.w3.org/2000/svg">
<g clip-path="url(#clip0_1_14085)">
<path d="M71.8109 50.3903L33.833 51.3335L25.083 14.3613H81.4352L71.8109 50.3903Z" fill="black"/>
<path d="M70.0838 63.9629H24.4307C23.1969 63.9629 22.4565 63.2225 21.9629 62.2355L6.90968 5.47745H2.46781C0.987025 5.47745 0 4.49026 0 3.00964C0 1.52902 0.987025 0.541992 2.46781 0.541992H8.6371C9.87092 0.541992 10.6113 1.28239 11.1049 2.26941L26.1581 59.0275H70.084C71.5646 59.0275 72.5518 60.0145 72.5518 61.4953C72.5516 62.9759 71.5646 63.9629 70.0838 63.9629Z" fill="black"/>
<path d="M71.8108 52.8582H21.469C20.2352 52.8582 19.4948 52.1179 19.0012 51.1308L9.37709 14.855C9.1303 14.1146 9.37709 13.3744 9.87069 12.634C10.3643 12.1404 11.1045 11.647 11.8449 11.647H81.4353C82.1757 11.647 82.9159 11.8938 83.4095 12.634C83.9031 13.1276 84.1499 14.1146 83.9031 14.855L74.2786 50.8842C73.785 52.118 72.798 52.8582 71.8108 52.8582ZM23.1965 47.9228H69.8368L78.2271 16.8292H15.0528L23.1965 47.9228Z" fill="black"/>
<path d="M24.4308 26.9469H7.40336C5.92274 26.9469 4.93555 25.9598 4.93555 24.479C4.93555 22.9983 5.92257 22.0112 7.40336 22.0112H24.4308C25.9114 22.0112 26.8986 22.9983 26.8986 24.479C26.8986 25.9598 25.9114 26.9469 24.4308 26.9469Z" fill="black"/>
<path d="M21.469 35.0904H4.44145C2.96083 35.0904 1.97363 34.1034 1.97363 32.6226C1.97363 31.1418 2.96066 30.1548 4.44145 30.1548H21.4688C22.9495 30.1548 23.9367 31.1418 23.9367 32.6226C23.9367 34.1034 22.9496 35.0904 21.469 35.0904Z" fill="black"/>
<path d="M26.8985 43.234H9.87114C8.39051 43.234 7.40332 42.2469 7.40332 40.7662C7.40332 39.2854 8.39035 38.2983 9.87114 38.2983H26.8985C28.3792 38.2983 29.3663 39.2854 29.3663 40.7662C29.3663 42.2469 28.3793 43.234 26.8985 43.234Z" fill="black"/>
<path d="M63.6675 83.4581C58.4853 83.4581 54.29 79.2629 54.29 74.0806C54.29 68.8984 58.4853 64.7031 63.6675 64.7031C68.8498 64.7031 73.045 68.8984 73.045 74.0806C73.045 79.2629 68.8498 83.4581 63.6675 83.4581ZM63.6675 69.6388C61.1997 69.6388 59.2257 71.613 59.2257 74.0806C59.2257 76.5483 61.1999 78.5225 63.6675 78.5225C66.1352 78.5225 68.1094 76.5483 68.1094 74.0806C68.1094 71.613 66.1353 69.6388 63.6675 69.6388Z" fill="black"/>
<path d="M27.3921 83.4581C22.2099 83.4581 18.0146 79.2629 18.0146 74.0806C18.0146 68.8984 22.2099 64.7031 27.3921 64.7031C32.5744 64.7031 36.7696 68.8984 36.7696 74.0806C36.7696 79.2629 32.5744 83.4581 27.3921 83.4581ZM27.3921 69.6388C24.9243 69.6388 22.9503 71.613 22.9503 74.0806C22.9503 76.5483 24.9245 78.5225 27.3921 78.5225C29.8598 78.5225 31.834 76.5483 31.834 74.0806C31.834 71.613 29.86 69.6388 27.3921 69.6388Z" fill="black"/>
</g>
<defs>
<clipPath id="clip0_1_14085">
<rect width="84" height="84" fill="white"/>
</clipPath>
</defs>
</svg>
