<svg width="24" height="24" viewBox="0 0 24 24" fill="none" xmlns="http://www.w3.org/2000/svg">
<path fill-rule="evenodd" clip-rule="evenodd" d="M19.7794 8.99003C20.0951 8.99201 20.2935 8.96383 20.4102 8.93336C20.4314 8.92783 20.4485 8.92258 20.4622 8.91794C20.4787 8.85802 20.5 8.73724 20.5 8.52V3.98C20.5 3.75878 20.4779 3.6374 20.4611 3.57828C20.4465 3.57307 20.4275 3.56704 20.4035 3.56064C20.2856 3.52928 20.0862 3.5 19.77 3.5H15.73C15.4138 3.5 15.2144 3.52928 15.0965 3.56064C15.0725 3.56704 15.0535 3.57307 15.0389 3.57828C15.0221 3.6374 15 3.75878 15 3.98V8.51C15 8.73058 15.0216 8.8529 15.0382 8.9134C15.0524 8.9183 15.0704 8.92387 15.0928 8.92977C15.2115 8.96105 15.412 8.99 15.73 8.99L19.7794 8.99003ZM15.0508 8.95116C15.0557 8.95851 15.0575 8.96299 15.0573 8.96339C15.057 8.96379 15.0545 8.96012 15.0508 8.95116ZM15.0573 3.53096C15.0576 3.53136 15.0558 3.53583 15.0508 3.54316C15.0546 3.53422 15.057 3.53055 15.0573 3.53096ZM20.4492 3.54316C20.4442 3.53583 20.4424 3.53136 20.4427 3.53096C20.443 3.53055 20.4454 3.53422 20.4492 3.54316ZM20.4432 8.96776C20.4429 8.96737 20.4447 8.96297 20.4496 8.95574C20.4459 8.96453 20.4435 8.96815 20.4432 8.96776ZM22 3.98V8.52C22 9.93 21.36 10.5 19.77 10.49H15.73C14.14 10.49 13.5 9.93 13.5 8.51V3.98C13.5 2.57 14.14 2 15.73 2H19.77C21.36 2 22 2.57 22 3.98Z" fill="#292D32"/>
<path fill-rule="evenodd" clip-rule="evenodd" d="M20.5 19.77V15.73C20.5 15.3124 20.4419 15.138 20.417 15.083C20.362 15.0581 20.1876 15 19.77 15H15.73C15.3124 15 15.138 15.0581 15.083 15.083C15.0581 15.138 15 15.3124 15 15.73V19.77C15 20.1876 15.0581 20.362 15.083 20.417C15.138 20.4419 15.3124 20.5 15.73 20.5H19.77C20.1876 20.5 20.362 20.4419 20.417 20.417C20.4419 20.362 20.5 20.1876 20.5 19.77ZM20.4059 20.4378C20.4058 20.4378 20.4064 20.4369 20.4077 20.4352C20.4065 20.437 20.4059 20.4379 20.4059 20.4378ZM20.4352 20.4077C20.4369 20.4064 20.4378 20.4058 20.4378 20.4059C20.4379 20.4059 20.437 20.4065 20.4352 20.4077ZM15.0622 20.4059C15.0622 20.4058 15.0631 20.4064 15.0648 20.4077C15.063 20.4065 15.0621 20.4059 15.0622 20.4059ZM15.0923 20.4352C15.0936 20.4369 15.0942 20.4378 15.0941 20.4378C15.0941 20.4379 15.0935 20.437 15.0923 20.4352ZM15.0941 15.0622C15.0942 15.0622 15.0936 15.0631 15.0923 15.0648C15.0935 15.063 15.0941 15.0621 15.0941 15.0622ZM15.0648 15.0923C15.0631 15.0936 15.0622 15.0942 15.0622 15.0941C15.0621 15.0941 15.063 15.0935 15.0648 15.0923ZM20.4378 15.0941C20.4378 15.0942 20.4369 15.0936 20.4352 15.0923C20.437 15.0935 20.4379 15.0941 20.4378 15.0941ZM20.4077 15.0648C20.4064 15.0631 20.4058 15.0622 20.4059 15.0622C20.4059 15.0621 20.4065 15.063 20.4077 15.0648ZM22 15.73V19.77C22 21.36 21.36 22 19.77 22H15.73C14.14 22 13.5 21.36 13.5 19.77V15.73C13.5 14.14 14.14 13.5 15.73 13.5H19.77C21.36 13.5 22 14.14 22 15.73Z" fill="#292D32"/>
<path fill-rule="evenodd" clip-rule="evenodd" d="M8.27943 8.99003C8.59511 8.99201 8.79354 8.96383 8.9102 8.93336C8.93139 8.92783 8.94853 8.92258 8.96216 8.91794C8.97869 8.85802 9 8.73724 9 8.52V3.98C9 3.75878 8.9779 3.6374 8.96113 3.57828C8.94648 3.57307 8.92751 3.56704 8.90347 3.56064C8.78559 3.52928 8.58625 3.5 8.27 3.5H4.23C3.91375 3.5 3.71441 3.52928 3.59653 3.56064C3.57249 3.56704 3.55352 3.57307 3.53887 3.57828C3.5221 3.6374 3.5 3.75878 3.5 3.98V8.51C3.5 8.73058 3.52156 8.8529 3.53822 8.9134C3.5524 8.9183 3.5704 8.92387 3.5928 8.92977C3.71154 8.96105 3.91197 8.99 4.23 8.99L8.27943 8.99003ZM3.55077 8.95116C3.55567 8.95851 3.55754 8.96299 3.55725 8.96339C3.55696 8.96379 3.55451 8.96012 3.55077 8.95116ZM3.55734 3.53096C3.55764 3.53136 3.55575 3.53583 3.55079 3.54316C3.55457 3.53422 3.55705 3.53055 3.55734 3.53096ZM8.94921 3.54316C8.94425 3.53583 8.94236 3.53136 8.94266 3.53096C8.94295 3.53055 8.94543 3.53422 8.94921 3.54316ZM8.94317 8.96776C8.94289 8.96737 8.94473 8.96297 8.94956 8.95574C8.94587 8.96453 8.94346 8.96815 8.94317 8.96776ZM10.5 3.98V8.52C10.5 9.93 9.86 10.5 8.27 10.49H4.23C2.64 10.49 2 9.93 2 8.51V3.98C2 2.57 2.64 2 4.23 2H8.27C9.86 2 10.5 2.57 10.5 3.98Z" fill="#292D32"/>
<path fill-rule="evenodd" clip-rule="evenodd" d="M9 19.77V15.73C9 15.3124 8.94186 15.138 8.91697 15.083C8.86198 15.0581 8.68756 15 8.27 15H4.23C3.81244 15 3.63802 15.0581 3.58303 15.083C3.55814 15.138 3.5 15.3124 3.5 15.73V19.77C3.5 20.1876 3.55814 20.362 3.58303 20.417C3.63802 20.4419 3.81244 20.5 4.23 20.5H8.27C8.68756 20.5 8.86198 20.4419 8.91697 20.417C8.94186 20.362 9 20.1876 9 19.77ZM8.90588 20.4378C8.90584 20.4378 8.90641 20.4369 8.90767 20.4352C8.90654 20.437 8.90591 20.4379 8.90588 20.4378ZM8.93517 20.4077C8.93686 20.4064 8.93779 20.4058 8.93783 20.4059C8.93787 20.4059 8.93703 20.4065 8.93517 20.4077ZM3.56217 20.4059C3.56221 20.4058 3.56314 20.4064 3.56483 20.4077C3.56297 20.4065 3.56213 20.4059 3.56217 20.4059ZM3.59233 20.4352C3.59359 20.4369 3.59415 20.4378 3.59412 20.4378C3.59409 20.4379 3.59346 20.437 3.59233 20.4352ZM3.59412 15.0622C3.59415 15.0622 3.59359 15.0631 3.59233 15.0648C3.59346 15.063 3.59409 15.0621 3.59412 15.0622ZM3.56483 15.0923C3.56314 15.0936 3.56221 15.0942 3.56217 15.0941C3.56213 15.0941 3.56297 15.0935 3.56483 15.0923ZM8.93783 15.0941C8.93779 15.0942 8.93686 15.0936 8.93517 15.0923C8.93703 15.0935 8.93787 15.0941 8.93783 15.0941ZM8.90767 15.0648C8.90641 15.0631 8.90585 15.0622 8.90588 15.0622C8.90591 15.0621 8.90654 15.063 8.90767 15.0648ZM10.5 15.73V19.77C10.5 21.36 9.86 22 8.27 22H4.23C2.64 22 2 21.36 2 19.77V15.73C2 14.14 2.64 13.5 4.23 13.5H8.27C9.86 13.5 10.5 14.14 10.5 15.73Z" fill="#292D32"/>
</svg>
