<svg width="84" height="84" viewBox="0 0 84 84" fill="none" xmlns="http://www.w3.org/2000/svg">
<path fill-rule="evenodd" clip-rule="evenodd" d="M56.9098 34.6965C56.2098 34.4865 55.4398 34.4165 54.6465 34.4165H31.5232C25.9232 34.4165 21.3965 38.9432 21.3965 44.5432V77.4432H47.0631C49.7465 77.4432 52.3365 76.3698 54.2265 74.4798C56.1165 72.5898 57.1898 69.9998 57.1898 67.3165V36.9365C57.1898 36.1432 57.0965 35.3965 56.9098 34.6732V34.6965ZM43.1431 53.5965C41.8365 56.2565 38.4531 58.9165 35.6765 60.6898C32.8765 58.9165 29.5165 56.2565 28.2098 53.5965C26.3665 50.0498 26.3665 46.5032 28.2098 44.7298C30.0765 42.9565 33.8098 42.9565 35.6765 46.5032C37.5431 42.9565 41.2765 42.9565 43.1431 44.7298C44.9865 46.5032 44.9865 50.0498 43.1431 53.5965Z" fill="#0F4A99"/>
<path d="M79.1935 5.83317C78.8901 5.13317 78.2135 4.6665 77.4435 4.6665H36.9368C30.3101 4.6665 24.9201 10.0565 24.9201 16.6832C24.9201 17.7332 25.7601 18.5732 26.8101 18.5732C27.8601 18.5732 28.7001 17.7332 28.7001 16.6832C28.7001 12.1565 32.3868 8.4465 36.9368 8.4465H72.8468L68.8568 12.4365C68.5068 12.7865 68.2968 13.2765 68.2968 13.7898V47.0632C68.2968 49.2565 67.4335 51.3332 65.8935 52.8732C64.3535 54.4365 62.2768 55.2765 60.0835 55.2765H59.0801V36.9365C59.0801 30.3098 53.6901 24.9198 47.0635 24.9198H23.9168C17.2901 24.9198 11.9001 30.3098 11.9001 36.9365V61.1565C11.9001 62.2065 12.7401 63.0465 13.7901 63.0465C14.8401 63.0465 15.6801 62.2065 15.6801 61.1565V36.9365C15.6801 32.4098 19.3668 28.6998 23.9168 28.6998H47.0635C51.5901 28.6998 55.3001 32.3865 55.3001 36.9365V67.3165C55.3001 69.5098 54.4368 71.5865 52.8968 73.1265C51.3568 74.6898 49.2801 75.5298 47.0868 75.5298H11.1535L15.1435 71.5398C15.8901 70.7932 15.8901 69.6032 15.1435 68.8565C14.3968 68.1098 13.2068 68.1098 12.4601 68.8565L5.2268 76.0898C4.69013 76.6265 4.5268 77.4432 4.8068 78.1665C5.0868 78.8898 5.7868 79.3332 6.5568 79.3332H47.0635C50.2835 79.3332 53.2935 78.0732 55.5568 75.8098C57.8201 73.5465 59.0801 70.5132 59.0801 67.3165V59.0798H60.0835C63.3035 59.0798 66.3135 57.8198 68.5768 55.5565C70.8401 53.2932 72.1001 50.2598 72.1001 47.0632V14.5832L78.7735 7.90984C79.3101 7.37317 79.4735 6.5565 79.1935 5.83317Z" fill="black"/>
<path d="M35.6773 62.5797C35.3273 62.5797 34.9773 62.4864 34.6506 62.2764C32.3173 60.8064 28.164 57.8197 26.5073 54.4131C24.244 50.0964 24.384 45.7331 26.904 43.3297C28.304 41.9997 30.3106 41.4164 32.2706 41.7197C33.554 41.9297 34.6973 42.4897 35.654 43.3764C36.6106 42.4897 37.7773 41.9297 39.0606 41.7197C41.044 41.3931 43.0273 41.9997 44.4273 43.3297C46.9473 45.7331 47.0873 50.0964 44.8006 54.4597C43.1673 57.7964 39.014 60.7831 36.6806 62.2531C36.3773 62.4397 36.0273 62.5564 35.654 62.5564L35.6773 62.5797ZM31.2206 45.4764C30.5673 45.4764 29.9373 45.7097 29.5173 46.1064C28.3273 47.2497 28.4673 50.0264 29.8906 52.7097C30.7306 54.4131 32.8306 56.4664 35.6773 58.4031C38.5006 56.4664 40.624 54.4131 41.4406 52.7564C42.8873 50.0264 43.0273 47.2497 41.8373 46.1064C41.3006 45.5931 40.484 45.3597 39.6906 45.4997C39.014 45.6164 38.0806 46.0364 37.3573 47.3897C36.704 48.6264 34.6506 48.6264 33.9973 47.3897C33.274 46.0364 32.3406 45.6164 31.664 45.4997C31.524 45.4764 31.384 45.4531 31.2206 45.4531V45.4764Z" fill="black"/>
</svg>
