<svg width="30" height="30" viewBox="0 0 30 30" fill="none" xmlns="http://www.w3.org/2000/svg">
<path d="M7.11325 17.9553L6.12701 21.637L2.52231 21.7133C1.44503 19.7152 0.833984 17.4291 0.833984 14.9997C0.833984 12.6506 1.4053 10.4352 2.418 8.48462H2.41877L5.62796 9.07298L7.03379 12.2629C6.73955 13.1207 6.57918 14.0416 6.57918 14.9997C6.57929 16.0397 6.76766 17.036 7.11325 17.9553Z" fill="#FBBB00"/>
<path d="M28.9202 12.3533C29.0829 13.2102 29.1677 14.0953 29.1677 14.9998C29.1677 16.014 29.0611 17.0034 28.8579 17.9577C28.1683 21.2051 26.3663 24.0408 23.8701 26.0475L23.8693 26.0467L19.8271 25.8404L19.255 22.2692C20.9114 21.2978 22.2059 19.7775 22.8878 17.9577H15.3125V12.3533H22.9983H28.9202Z" fill="#518EF8"/>
<path d="M23.87 26.0469L23.8707 26.0477C21.443 27.9991 18.359 29.1667 15.0018 29.1667C9.60677 29.1667 4.91622 26.1512 2.52344 21.7136L7.11438 17.9556C8.31074 21.1485 11.3908 23.4214 15.0018 23.4214C16.5539 23.4214 18.0079 23.0018 19.2557 22.2694L23.87 26.0469Z" fill="#28B446"/>
<path d="M24.0432 4.09469L19.4538 7.85195C18.1625 7.04478 16.636 6.5785 15.0006 6.5785C11.3079 6.5785 8.17025 8.95568 7.03381 12.2631L2.41874 8.4848H2.41797C4.77572 3.93902 9.52543 0.833252 15.0006 0.833252C18.438 0.833252 21.5897 2.05767 24.0432 4.09469Z" fill="#F14336"/>
</svg>
