<svg width="20" height="20" viewBox="0 0 20 20" fill="none" xmlns="http://www.w3.org/2000/svg">
<path d="M9.39979 4.89063L10.0003 5.69332L10.6009 4.89063C11.3076 3.94594 12.4393 3.33301 13.7003 3.33301C15.8409 3.33301 17.5837 5.07705 17.5837 7.24134C17.5837 8.15144 17.4386 8.9903 17.1867 9.76881L17.1867 9.7688L17.1852 9.77369C16.5806 11.6871 15.3373 13.2408 13.9792 14.408C12.6178 15.578 11.1843 16.3221 10.2754 16.6313L10.2754 16.6313L10.2674 16.6341C10.2309 16.647 10.1342 16.6663 10.0003 16.6663C9.86644 16.6663 9.7697 16.647 9.73327 16.6341L9.73329 16.6341L9.72524 16.6313C8.81639 16.3221 7.38282 15.578 6.02146 14.408C4.6634 13.2408 3.4201 11.6871 2.81547 9.77369L2.81549 9.77368L2.81391 9.76881C2.56204 8.9903 2.41699 8.15144 2.41699 7.24134C2.41699 5.07705 4.15971 3.33301 6.30033 3.33301C7.5613 3.33301 8.69302 3.94594 9.39979 4.89063Z" fill="black" stroke="black" stroke-width="1.5"/>
</svg>
