<svg width="20" height="20" viewBox="0 0 20 20" fill="none" xmlns="http://www.w3.org/2000/svg">
<path d="M8.42134 2.69L8.42172 2.68969C9.2943 1.98888 10.7012 1.9923 11.5883 2.69891C11.5884 2.69901 11.5886 2.69911 11.5887 2.69922L17.0444 7.06375C17.3449 7.30943 17.6096 7.69801 17.7811 8.14707C17.9526 8.59575 18.0149 9.06221 17.9566 9.44584L16.9077 15.7226C16.9076 15.7231 16.9075 15.7236 16.9074 15.7241C16.7061 16.8787 15.5785 17.8332 14.417 17.8332H5.58363C4.40415 17.8332 3.30282 16.9025 3.1016 15.733C3.10154 15.7326 3.10148 15.7323 3.10143 15.732L2.05179 9.45077L2.0516 9.44963C1.98612 9.0633 2.04443 8.59613 2.2154 8.1478C2.38634 7.69952 2.65415 7.31143 2.96214 7.06569L2.96301 7.065L8.42134 2.69ZM10.0003 16.1249C10.6181 16.1249 11.1253 15.6177 11.1253 14.9999V12.4999C11.1253 11.882 10.6181 11.3749 10.0003 11.3749C9.38249 11.3749 8.87529 11.882 8.87529 12.4999V14.9999C8.87529 15.6177 9.38248 16.1249 10.0003 16.1249Z" fill="#0F4A99" stroke="#0F4A99"/>
</svg>
