<svg width="130" height="93" viewBox="0 0 130 93" fill="none" xmlns="http://www.w3.org/2000/svg">
<g clip-path="url(#clip0_1_14417)">
<path d="M126.311 36.3706L92.7507 35.5051L62.6446 34.7288L29.0839 33.8633C28.2798 33.8426 27.6127 34.4353 27.5941 35.1873L27.2801 47.813C27.261 48.5834 27.935 49.2099 28.759 49.1979C28.7642 49.1978 28.7694 49.1978 28.7745 49.1977C36.2075 49.0986 42.064 54.7898 41.6679 61.7306C41.3046 68.097 35.5889 73.0597 28.7252 72.8827C28.5436 72.878 28.363 72.8698 28.1835 72.8581C27.3538 72.804 26.6439 73.4013 26.6245 74.1787L26.3109 86.7896C26.2922 87.5415 26.929 88.1679 27.7331 88.1886L61.2938 89.0541L91.3999 89.8304L124.961 90.6959C125.765 90.7166 126.432 90.1238 126.45 89.3719L126.764 76.761C126.783 75.9837 126.104 75.3506 125.273 75.3618C125.093 75.3643 124.912 75.3632 124.731 75.3585C117.867 75.1815 112.405 69.9305 112.359 63.5536C112.308 56.6012 118.44 51.2192 125.858 51.7013C125.864 51.7017 125.869 51.702 125.874 51.7023C126.696 51.7567 127.401 51.1658 127.42 50.3954L127.734 37.7696C127.752 37.0177 127.116 36.3913 126.311 36.3706Z" fill="black"/>
<path d="M125.74 87.5551L125.675 88.9217C125.656 89.6734 124.989 90.2665 124.185 90.2455L90.6245 89.38L60.5182 88.6037L26.9577 87.7383C26.1534 87.7176 25.5168 87.0914 25.5353 86.3393L24.9639 84.8643L125.74 87.5551Z" fill="#F3F3F3"/>
<path d="M125.001 92.0399C124.976 92.0399 124.951 92.0395 124.925 92.0389L27.697 89.5299C26.1496 89.4899 24.9212 88.2258 24.9589 86.7119L25.2824 73.709C25.301 72.9627 25.6191 72.2725 26.1783 71.7656C26.7445 71.2523 27.5123 70.9873 28.285 71.0386C28.4455 71.0493 28.6091 71.0568 28.7715 71.061C28.877 71.0638 28.9824 71.0651 29.0873 71.0651C35.0991 71.0651 40.0124 66.6207 40.3379 60.8211C40.5067 57.8117 39.4454 54.9593 37.3492 52.7893C35.1466 50.5091 32.1201 49.2791 28.8243 49.3276L28.8119 49.3278C28.0409 49.3389 27.2898 49.038 26.7525 48.4994C26.2224 47.9679 25.9405 47.2664 25.959 46.5241L26.283 33.506C26.301 32.7798 26.6049 32.1023 27.1386 31.5983C27.6842 31.083 28.4026 30.8102 29.1612 30.8296L126.389 33.3386C127.937 33.3785 129.165 34.6427 129.128 36.1566L128.804 49.1747C128.785 49.9176 128.468 50.6044 127.912 51.1086C127.347 51.6195 126.582 51.8828 125.813 51.831L125.799 51.8301C122.511 51.6125 119.427 52.6837 117.115 54.8466C114.914 56.9049 113.713 59.6981 113.732 62.7117C113.769 68.6239 118.621 73.3797 124.777 73.5385C124.939 73.5427 125.103 73.5437 125.265 73.5412C126.038 73.5313 126.791 73.8336 127.33 74.3746C127.863 74.9089 128.146 75.6138 128.127 76.3596L127.804 89.3625C127.785 90.0886 127.482 90.7661 126.948 91.2702C126.421 91.7682 125.732 92.0399 125.001 92.0399ZM28.0917 73.72C28.0436 73.72 28.0149 73.739 28.0016 73.7511C27.987 73.7643 27.9868 73.7713 27.9868 73.7755L27.6632 86.7783C27.6627 86.7968 27.6975 86.8412 27.7672 86.843L124.995 89.3521C125.04 89.3531 125.069 89.3365 125.084 89.3222C125.099 89.3083 125.099 89.3001 125.099 89.2961L125.423 76.2933C125.423 76.2893 125.423 76.281 125.408 76.2659C125.394 76.2516 125.361 76.2273 125.305 76.2287C125.106 76.2317 124.905 76.2305 124.707 76.2254C121.046 76.131 117.616 74.6851 115.05 72.1542C112.478 69.6182 111.049 66.2708 111.027 62.7286C111.015 60.8238 111.392 58.9873 112.148 57.2699C112.876 55.614 113.924 54.1404 115.261 52.8898C116.65 51.5906 118.273 50.6033 120.086 49.9551C121.961 49.285 123.944 49.0137 125.979 49.1483C125.979 49.1484 125.98 49.1484 125.98 49.1484L125.996 49.1495C126.065 49.1546 126.096 49.1173 126.099 49.1104L126.423 36.0902C126.424 36.0716 126.389 36.0273 126.319 36.0255L29.0909 33.5164C29.0449 33.5156 29.0175 33.532 29.0023 33.5463C28.9876 33.5602 28.9874 33.5685 28.9873 33.5724L28.6634 46.5906C28.6654 46.5995 28.6948 46.641 28.7677 46.6404L28.7816 46.6401C30.8235 46.6099 32.7904 46.9837 34.6289 47.7495C36.407 48.4902 37.979 49.5597 39.301 50.9282C40.5737 52.2458 41.5461 53.7711 42.1912 55.4619C42.8604 57.2157 43.1456 59.0691 43.0388 60.9707C42.8403 64.508 41.2465 67.7782 38.551 70.179C35.9546 72.4914 32.6051 73.7527 29.0829 73.7528C28.9557 73.7528 28.8289 73.7512 28.7012 73.7479C28.5021 73.7428 28.3013 73.7336 28.1044 73.7204C28.1 73.7201 28.0958 73.72 28.0917 73.72Z" fill="#231F20"/>
<path d="M124.753 61.6493L89.8748 71.4233L58.5867 80.1911L23.7088 89.9651C22.8729 90.1993 20.449 90.133 20.2137 89.346L19.9887 88.0693L17.8178 75.7626C17.5743 74.9487 18.1032 74.1025 18.977 73.8946C19.1659 73.8498 19.3548 73.801 19.5432 73.7482C26.6764 71.7489 30.8844 64.7756 29.1012 58.0455C27.1571 50.7084 18.7934 44.9338 11.1674 47.4007C11.162 47.4025 10.2197 47.6637 10.2148 47.6655C9.85226 47.7833 9.72421 48.0395 9.67687 48.2303C9.61871 48.466 9.68363 48.6017 9.58399 48.2541C9.57633 48.2263 9.56731 48.1958 9.55694 48.1618L5.60146 34.9449C5.36566 34.1578 5.85215 33.3295 6.68806 33.0953L41.566 23.3213L72.854 14.5535L107.732 4.7795C107.736 4.77816 107.74 4.77726 107.744 4.77637C107.882 4.92464 107.987 5.10203 108.047 5.30272L111.877 18.086C112.111 18.8664 111.572 19.6857 110.697 19.8944C110.691 19.8958 110.686 19.8971 110.681 19.8985C102.794 21.792 98.1794 29.164 100.521 36.1319C101.463 38.9357 103.42 41.1876 105.929 42.6614C109.314 45.8172 114.381 47.1709 119.317 45.7881C119.506 45.7352 119.693 45.6788 119.877 45.6192C119.954 45.5946 120.032 45.5753 120.109 45.5619C120.89 45.4261 121.666 45.8584 121.888 46.5984L125.839 59.8002C126.075 60.5872 125.588 61.415 124.753 61.6493Z" fill="black"/>
<path d="M122.585 59.3577L87.3423 69.2458L55.7269 78.1163L20.4838 88.0044C20.3179 88.051 20.151 88.0721 19.9887 88.0694C19.3223 88.0613 18.7249 87.6667 18.5419 87.0552L14.7158 74.2862C14.48 73.4992 15.0228 72.6718 15.9052 72.4604C16.0959 72.4142 16.2866 72.365 16.4773 72.3112C23.6849 70.2891 28.0047 63.4717 26.2869 56.9598C24.4907 50.1508 17.082 46.3405 9.67689 48.2304C9.64578 48.238 9.61467 48.2461 9.58401 48.2542C9.29906 48.3285 9.01456 48.4118 8.73006 48.5032C8.72465 48.5046 8.71924 48.5064 8.71383 48.5082C7.85943 48.7841 6.95093 48.3711 6.71738 47.5912L2.88725 34.8074C2.65911 34.0459 3.15867 33.2369 4.00315 32.9999L39.2463 23.1117L70.8617 14.2413L106.105 4.35313C106.726 4.17888 107.361 4.36299 107.744 4.77645C107.882 4.92473 107.987 5.10212 108.047 5.3028L111.877 18.0861C112.111 18.8665 111.572 19.6858 110.697 19.8945C110.691 19.8959 110.686 19.8972 110.681 19.8986C102.794 21.7921 98.1794 29.1641 100.521 36.132C101.464 38.9358 103.42 41.1877 105.929 42.6614C109.138 44.5473 113.25 45.1597 117.295 44.0246C117.486 43.9708 117.675 43.9144 117.861 43.8539C118.724 43.5762 119.639 43.9946 119.875 44.7816L120.109 45.562L123.701 57.5502C123.929 58.3117 123.43 59.1207 122.585 59.3577Z" fill="#F4F4F4"/>
<path d="M21.0269 92.3294C19.7476 92.3295 18.5577 91.4955 18.1756 90.221L13.9596 76.1591C13.7305 75.3952 13.8283 74.5632 14.2277 73.8764C14.6283 73.1878 15.3071 72.6868 16.0901 72.502C16.2621 72.4614 16.4362 72.4165 16.6078 72.3683C23.1248 70.5386 26.8647 63.9969 25.1217 57.4756C24.2062 54.0498 21.9967 51.2443 18.9004 49.5759C15.821 47.9167 12.2757 47.6066 8.91759 48.7026L8.90072 48.7081C8.13817 48.958 7.32295 48.8915 6.60747 48.5202C5.89365 48.1497 5.37421 47.5246 5.14494 46.7599L0.923901 32.6814C0.697835 31.9274 0.782554 31.1343 1.16237 30.4483C1.54123 29.7641 2.16758 29.2701 2.92612 29.0571L105.022 0.392194C106.573 -0.0431744 108.21 0.853275 108.671 2.39066L112.892 16.4692C113.12 17.2292 113.022 18.057 112.624 18.7402C112.225 19.4256 111.549 19.9239 110.769 20.1072L110.754 20.1108C107.316 20.9228 104.5 23.0149 102.823 26.0016C101.137 29.0031 100.825 32.5069 101.944 35.8675C103.707 41.1648 108.632 44.5415 113.966 44.542C115.108 44.5421 116.268 44.3874 117.42 44.0638C117.591 44.0158 117.763 43.9636 117.931 43.9088C118.699 43.6579 119.518 43.7253 120.237 44.0986C120.954 44.4713 121.476 45.0998 121.706 45.8684L125.922 59.9303C126.148 60.6843 126.064 61.4774 125.684 62.1634C125.305 62.8475 124.679 63.3417 123.92 63.5546L21.8239 92.2195C21.5587 92.294 21.2909 92.3294 21.0269 92.3294ZM12.8985 45.374C13.3884 45.374 13.8788 45.3975 14.3698 45.4445C16.4177 45.6407 18.3759 46.2358 20.19 47.2132C22.0119 48.1949 23.5896 49.5088 24.8793 51.1185C26.2158 52.7865 27.177 54.6932 27.7363 56.7858C28.7552 60.5981 28.2451 64.5761 26.2999 67.9868C24.3499 71.406 21.1691 73.8807 17.3432 74.9548C17.1352 75.0132 16.9241 75.0678 16.7155 75.117C16.6341 75.1362 16.5915 75.1843 16.5699 75.2212C16.5398 75.2731 16.5338 75.3305 16.5521 75.3919L20.7682 89.4538C20.8085 89.5884 20.9552 89.6705 21.0881 89.6331L123.184 60.9682C123.242 60.952 123.286 60.9182 123.314 60.868C123.333 60.832 123.352 60.7734 123.33 60.6977L119.113 46.6357C119.088 46.5501 119.028 46.504 118.983 46.4803C118.937 46.4563 118.863 46.4337 118.776 46.4621C118.572 46.5287 118.363 46.592 118.156 46.6503C114.337 47.7225 110.291 47.2818 106.763 45.409C103.244 43.5412 100.621 40.4524 99.3753 36.7116C98.69 34.6531 98.4472 32.5424 98.6537 30.438C98.8533 28.4043 99.461 26.471 100.46 24.692C101.455 22.9198 102.785 21.3972 104.412 20.1665C106.095 18.8928 108.018 17.9943 110.128 17.496C110.128 17.4958 110.129 17.4956 110.13 17.4955L110.146 17.4916C110.222 17.4737 110.262 17.4288 110.283 17.3943C110.31 17.3465 110.316 17.2934 110.299 17.2366L106.078 3.1581C106.037 3.02353 105.891 2.94142 105.758 2.97878L3.6618 31.6435C3.60396 31.6598 3.56049 31.6935 3.53263 31.7438C3.51279 31.7797 3.49386 31.8384 3.51653 31.9141L7.73757 45.9926C7.76156 46.0727 7.81733 46.1157 7.85989 46.1378C7.90363 46.1605 7.97311 46.1819 8.05562 46.1549L8.07401 46.1488C9.65345 45.6333 11.2709 45.374 12.8985 45.374Z" fill="#231F20"/>
<path d="M35.6133 24.7146C35.0304 24.7146 34.4925 24.3374 34.3176 23.754L33.7383 21.8221C33.525 21.1108 33.9325 20.3624 34.6484 20.1505C35.3644 19.9386 36.1177 20.3435 36.3309 21.0548L36.9102 22.9867C37.1234 23.698 36.716 24.4464 36 24.6583C35.8712 24.6964 35.7411 24.7146 35.6133 24.7146Z" fill="#231F20"/>
<path d="M50.1874 73.3251C49.6045 73.3251 49.0665 72.9479 48.8916 72.3645L47.6771 68.3136C47.4638 67.6023 47.8713 66.8539 48.5873 66.6421C49.3031 66.43 50.0565 66.835 50.2697 67.5463L51.4842 71.5973C51.6975 72.3086 51.29 73.057 50.5741 73.2688C50.4453 73.3069 50.3152 73.3251 50.1874 73.3251ZM46.5437 61.1724C45.9609 61.1724 45.4229 60.7952 45.248 60.2119L44.0334 56.161C43.8202 55.4497 44.2277 54.7013 44.9436 54.4894C45.6595 54.2773 46.4128 54.6823 46.626 55.3937L47.8406 59.4446C48.0538 60.1559 47.6464 60.9043 46.9304 61.1161C46.8017 61.1543 46.6716 61.1724 46.5437 61.1724ZM42.9001 49.0198C42.3172 49.0198 41.7792 48.6426 41.6043 48.0593L40.3898 44.0084C40.1765 43.2971 40.584 42.5487 41.2999 42.3368C42.0161 42.125 42.7692 42.5298 42.9824 43.2411L44.197 47.292C44.4102 48.0033 44.0027 48.7517 43.2868 48.9636C43.1579 49.0017 43.0279 49.0198 42.9001 49.0198ZM39.2564 36.8672C38.6735 36.8672 38.1356 36.49 37.9606 35.9067L36.7461 31.8558C36.5329 31.1445 36.9404 30.3961 37.6563 30.1842C38.3721 29.9723 39.1255 30.3771 39.3387 31.0885L40.5533 35.1394C40.7665 35.8507 40.359 36.5991 39.643 36.811C39.5143 36.8491 39.3843 36.8672 39.2564 36.8672Z" fill="#231F20"/>
<path d="M53.1963 83.3586C52.6134 83.3586 52.0754 82.9814 51.9005 82.3981L51.3213 80.4661C51.1081 79.7548 51.5156 79.0064 52.2315 78.7945C52.9476 78.5827 53.7007 78.9876 53.914 79.6989L54.4932 81.6308C54.7064 82.3421 54.2989 83.0905 53.583 83.3024C53.4542 83.3405 53.3241 83.3586 53.1963 83.3586Z" fill="#231F20"/>
<path d="M66.8271 65.7439C66.3595 65.8655 65.8485 65.8323 65.3759 65.6146C64.2961 65.1171 63.8267 63.844 64.3275 62.7711L83.1192 22.5138C83.6199 21.4411 84.9013 20.9746 85.9811 21.4722C87.0609 21.9698 87.5303 23.2428 87.0295 24.3156L68.2378 64.5729C67.9562 65.1762 67.4277 65.5878 66.8271 65.7439Z" fill="#231F20"/>
<path d="M63.4718 42.9516C59.5319 43.9758 55.4939 41.6474 54.4704 37.7612C53.447 33.875 55.8196 29.88 59.7594 28.8558C63.6993 27.8315 67.7373 30.1599 68.7607 34.0461C69.7842 37.9323 67.4116 41.9273 63.4718 42.9516ZM60.8505 32.9988C59.2101 33.4253 58.2185 35.0754 58.6404 36.6771C59.0622 38.2789 60.7401 39.235 62.3806 38.8085C64.0211 38.3821 65.0126 36.732 64.5907 35.1302C64.1689 33.5284 62.4911 32.5723 60.8505 32.9988Z" fill="#231F20"/>
<path d="M91.6133 57.7201C87.6735 58.7443 83.6355 56.416 82.612 52.5298C81.5885 48.6435 83.9612 44.6486 87.901 43.6243C91.8408 42.6001 95.8788 44.9284 96.9023 48.8147C97.9258 52.7009 95.5532 56.6958 91.6133 57.7201ZM88.9922 47.7673C87.3517 48.1938 86.3602 49.8439 86.782 51.4457C87.2038 53.0474 88.8817 54.0035 90.5222 53.577C92.1627 53.1505 93.1542 51.5004 92.7323 49.8987C92.3105 48.297 90.6326 47.3408 88.9922 47.7673Z" fill="#231F20"/>
</g>
<defs>
<clipPath id="clip0_1_14417">
<rect width="129" height="93" fill="white" transform="translate(0.5)"/>
</clipPath>
</defs>
</svg>
