<svg width="90" height="55" viewBox="0 0 90 55" fill="none" xmlns="http://www.w3.org/2000/svg">
<path d="M3.5438 45.2816C3.68907 45.2604 3.8648 45.251 4.0335 45.2087C7.97692 44.189 11.9203 43.1693 15.8591 42.1356C16.9369 41.8536 17.3915 41.2216 17.1571 40.4274C16.9088 39.584 16.2293 39.2738 15.1819 39.5417C13.4621 39.981 11.7446 40.4274 10.0248 40.8739C7.77073 41.4565 5.51434 42.0345 3.26497 42.6313C2.44255 42.8498 2.01142 43.4442 2.15669 44.1632C2.30196 44.8822 2.76121 45.2722 3.5438 45.2816ZM11.761 52.1446C14.5423 51.4421 17.3985 50.7607 20.2266 49.9806C20.9389 49.7833 21.1029 49.0455 20.8897 48.3689C20.6835 47.711 20.1422 47.3727 19.4581 47.4925C18.5724 47.6476 17.7007 47.8896 16.8244 48.1057C14.9921 48.5568 13.1551 49.0056 11.3275 49.4825C10.5473 49.687 10.2661 50.2626 10.3903 51.0285C10.5028 51.7522 11.0323 52.0177 11.761 52.1446ZM9.28905 33.2026C9.21641 33.2144 9.15784 33.2214 9.1016 33.2355C6.39065 33.8981 3.67501 34.5395 0.971087 35.235C0.200211 35.4323 -0.144223 36.1724 0.0596255 36.8843C0.254102 37.561 0.97343 37.9675 1.72556 37.7936C2.85962 37.5328 3.98664 37.2485 5.11601 36.9736C6.58513 36.6165 8.05659 36.2711 9.51867 35.8905C10.3224 35.6814 10.7347 35.0705 10.6176 34.3398C10.4934 33.5832 9.99198 33.2614 9.28905 33.2026ZM4.99417 51.24C4.03585 51.475 2.86196 51.7029 1.73259 52.067C1.09058 52.2738 0.785983 52.8776 0.954685 53.5566C1.12573 54.2498 1.62481 54.715 2.36288 54.5881C3.50397 54.3907 4.64271 54.1299 5.74864 53.7892C6.44454 53.5754 6.714 52.9716 6.54529 52.2409C6.38362 51.5431 5.8986 51.2447 4.99417 51.24ZM15.7583 34.509C16.4542 34.3257 17.2345 34.1894 17.9561 33.9075C18.6122 33.6514 18.7973 33.0288 18.6309 32.3732C18.4599 31.6989 17.9421 31.3206 17.2696 31.3958C16.5573 31.4781 15.8403 31.6613 15.1655 31.9127C14.5235 32.15 14.2587 32.7022 14.3946 33.3976C14.5329 34.1025 15.0343 34.3868 15.7583 34.509Z" fill="white"/>
<path d="M85.9635 23.1442C87.0601 23.0244 87.5381 23.3322 87.7396 24.413C88.4495 28.2192 89.1337 32.0278 89.8273 35.8364C89.8554 35.9938 89.7828 36.1982 90.0007 36.2852C90.0007 37.1662 90.0007 38.0473 90.0007 38.9284C89.7171 39.1727 89.7453 39.5463 89.6234 39.8565C88.6159 42.4269 86.7531 43.9869 84.0586 44.5062C81.35 45.0301 78.6297 45.5047 75.9117 45.9864C74.8948 46.1673 74.5222 45.923 74.1544 44.9244C74.2739 43.8483 74.5855 43.5358 75.668 43.3385C78.3063 42.8592 80.9493 42.3963 83.5806 41.8771C86.0479 41.3907 87.7162 39.2174 87.3249 36.9477C86.6407 32.9747 85.9073 29.0087 85.1552 25.045C84.9911 24.178 85.1762 23.5577 85.9635 23.1442Z" fill="black"/>
<path d="M85.9635 23.1442C85.1762 23.5577 84.9911 24.178 85.1551 25.0449C85.9072 29.0062 86.6406 32.9723 87.3248 36.9477C87.7161 39.2173 86.0478 41.393 83.5805 41.877C80.9492 42.3939 78.3062 42.8591 75.6679 43.3384C74.5831 43.5358 74.2714 43.8459 74.1543 44.9243C72.9593 45.1499 71.7362 45.2439 70.5764 45.6457C70.1218 44.6142 69.6626 44.4051 68.4981 44.6307C66.4432 45.0301 64.386 45.4154 62.3287 45.7937C57.0099 46.7734 51.6934 47.7532 46.3723 48.7188C44.2284 49.1089 42.0798 49.4636 39.9335 49.8349C39.0595 48.8528 38.4667 47.725 38.223 46.428C37.7872 44.1067 37.3608 41.7854 36.939 39.4617C36.1377 35.0445 35.3012 30.6345 34.5584 26.2103C34.057 23.224 33.1713 20.2942 33.2135 17.2257L33.2158 17.2327C33.2861 17.1928 33.3564 17.1528 33.4267 17.1129C33.6517 17.0518 33.8743 16.9743 34.1039 16.932C40.1725 15.8113 46.2411 14.6952 52.3097 13.5792C60.5831 12.0567 68.8566 10.5412 77.1277 9.00935C80.1807 8.44311 82.3246 9.81289 82.9221 12.8109C83.2689 14.5566 83.5641 16.3117 83.8523 18.0692C83.9929 18.922 84.3233 19.5705 85.2465 19.7467C85.4386 20.8839 85.4902 22.0587 85.9635 23.1442ZM70.3913 29.4949C70.4663 23.0784 65.2834 17.8107 58.8399 17.752C52.3683 17.6932 47.1713 22.7847 47.0846 29.2694C46.9979 35.7988 52.1949 41.1087 58.704 41.1392C65.0959 41.1674 70.314 35.9679 70.3913 29.4949Z" fill="#0F4A99"/>
<path d="M85.2443 19.7397C84.3211 19.5635 83.9884 18.915 83.8502 18.0621C83.562 16.3047 83.2667 14.5496 82.9199 12.8038C82.3225 9.80584 80.1785 8.43606 77.1255 9.0023C68.8544 10.5365 60.5786 12.0496 52.3075 13.5721C46.2389 14.6882 40.1703 15.8066 34.1017 16.9249C33.8721 16.9672 33.6495 17.0448 33.4245 17.1058C33.3215 17.087 33.2324 17.0964 33.216 17.2257L33.2137 17.2186C31.1963 17.6697 29.7764 19.9558 30.1653 22.0657C31.0276 26.7436 31.8641 31.4263 32.7216 36.1065C33.3566 39.5791 33.9799 43.0565 34.6547 46.522C35.128 48.9585 37.703 50.5374 39.936 49.8302C42.0823 49.4589 44.2309 49.1042 46.3748 48.7141C51.696 47.7485 57.0124 46.7687 62.3312 45.789C64.3885 45.4107 66.4457 45.023 68.5006 44.626C69.6651 44.4004 70.1243 44.6119 70.5789 45.6409C70.5976 46.5949 70.1173 47.053 69.1895 47.2222C60.9254 48.7306 52.666 50.2625 44.4043 51.785C43.0851 52.0293 41.7683 52.2831 40.4444 52.5016C36.2995 53.1877 33.0262 51.0472 32.0328 46.9802C31.9297 46.5573 31.782 46.4374 31.3884 46.5338C27.9183 47.3702 24.2396 44.9995 23.5367 40.7093C22.2058 32.601 20.6453 24.5304 19.1411 16.4503C18.3515 12.2 20.5821 9.0164 24.8395 8.26924C30.8143 7.22135 36.7752 6.08653 42.743 4.99164C49.3154 3.78868 55.8877 2.59042 62.4601 1.38746C64.7563 0.966889 67.0526 0.543973 69.3464 0.121056C73.0532 -0.565008 76.3546 1.72579 76.9779 5.45215C77.081 6.07008 77.1841 6.29094 77.9385 6.2087C81.6687 5.79753 84.8858 8.4995 85.5864 12.5149C85.8933 14.2723 86.205 16.0298 86.5166 17.7872C86.7204 18.9737 86.4229 19.4319 85.2443 19.7397ZM26.9061 10.7245C26.1938 10.6775 25.519 10.8866 24.8395 11.037C22.3253 11.5915 21.2569 13.3583 21.7443 15.9193C22.6229 20.5385 23.4336 25.1718 24.2818 29.798C24.9754 33.5902 25.6502 37.387 26.3976 41.1698C26.7467 42.9366 28.401 44.1138 30.1958 44.0339C31.379 43.9822 31.4728 43.8342 31.2572 42.6641C30.3879 37.9556 29.5397 33.2448 28.6728 28.5363C28.2815 26.4171 27.8621 24.3001 27.4567 22.1832C27.2036 18.0104 29.8279 15.2427 32.7966 14.5143C33.8135 14.2653 34.8538 14.1031 35.8848 13.9128C41.5012 12.879 47.1199 11.8476 52.7386 10.8185C57.4107 9.96326 62.0852 9.11743 66.755 8.2575C69.1613 7.81578 71.5653 7.35527 73.9694 6.89007C74.1732 6.85012 74.5083 6.9911 74.4942 6.51179C74.4263 4.22804 72.3034 2.28968 70.1735 2.66795C66.5582 3.31172 62.9545 4.00719 59.3438 4.67446C54.4725 5.57668 49.6012 6.47655 44.73 7.37642C38.9121 8.44781 33.0942 9.51685 27.2763 10.5882C27.124 10.5694 26.9787 10.5506 26.9061 10.7245Z" fill="black"/>
<path d="M3.54472 45.2816C2.76213 45.2722 2.30288 44.8822 2.15761 44.1632C2.01 43.4442 2.44347 42.8475 3.26589 42.6313C5.5176 42.0345 7.77165 41.4565 10.0257 40.8738C11.7432 40.4298 13.463 39.9834 15.1828 39.5417C16.2302 39.2738 16.9097 39.5816 17.1581 40.4274C17.3924 41.2239 16.9378 41.8536 15.86 42.1355C11.9213 43.1693 7.97784 44.189 4.03442 45.2087C3.86572 45.251 3.68765 45.2604 3.54472 45.2816Z" fill="black"/>
<path d="M11.7614 52.1444C11.035 52.0176 10.5055 51.7521 10.3883 51.0308C10.2665 50.2648 10.5476 49.6892 11.3255 49.4848C13.1531 49.0078 14.9901 48.559 16.8248 48.1056C17.6987 47.8894 18.5704 47.6474 19.4584 47.4924C20.1426 47.3725 20.6838 47.7109 20.89 48.3687C21.1032 49.0478 20.9392 49.7855 20.2269 49.9805C17.3988 50.7606 14.5426 51.4419 11.7614 52.1444Z" fill="black"/>
<path d="M9.28921 33.2024C9.99214 33.2612 10.4936 33.5831 10.6154 34.3396C10.7349 35.0727 10.3225 35.6812 9.51649 35.8903C8.05441 36.2686 6.58295 36.6139 5.11383 36.9734C3.98446 37.2483 2.85509 37.5326 1.72338 37.7934C0.97125 37.9673 0.251922 37.5608 0.0574457 36.8841C-0.146403 36.1699 0.200374 35.4321 0.968907 35.2348C3.67049 34.5393 6.38847 33.8979 9.09942 33.2353C9.158 33.2236 9.21658 33.2165 9.28921 33.2024Z" fill="black"/>
<path d="M4.9939 51.2399C5.89833 51.2445 6.38335 51.5406 6.54502 52.2408C6.71372 52.9715 6.44427 53.5753 5.74837 53.7891C4.64243 54.1274 3.50369 54.3882 2.36261 54.5879C1.62453 54.7172 1.12546 54.2496 0.954411 53.5565C0.785709 52.8775 1.09031 52.2736 1.73232 52.0669C2.86403 51.7051 4.03557 51.4772 4.9939 51.2399Z" fill="black"/>
<path d="M15.7586 34.5089C15.0346 34.3891 14.5308 34.1048 14.3949 33.3952C14.259 32.6998 14.5262 32.15 15.1658 31.9103C15.8406 31.6613 16.5576 31.4756 17.2699 31.3934C17.9424 31.3159 18.4602 31.6942 18.6312 32.3708C18.7976 33.0263 18.6125 33.649 17.9564 33.9051C17.2348 34.1894 16.4545 34.3233 15.7586 34.5089Z" fill="black"/>
<path d="M70.3924 29.4949C70.3174 35.9679 65.097 41.1674 58.7051 41.1368C52.196 41.1063 46.999 35.7987 47.0857 29.267C47.1701 22.7823 52.3694 17.6908 58.841 17.7496C65.2845 17.8107 70.4674 23.0783 70.3924 29.4949ZM67.7236 29.4197C67.7213 24.3776 63.7521 20.4046 58.7215 20.4069C53.6932 20.4093 49.7311 24.3894 49.7357 29.4315C49.7404 34.4665 53.7237 38.4584 58.7355 38.449C63.7615 38.4419 67.7236 34.4595 67.7236 29.4197Z" fill="black"/>
<path d="M39.9344 49.8325C37.7014 50.5398 35.1264 48.9609 34.6531 46.5244C33.9783 43.0588 33.355 39.5815 32.72 36.1089C31.8648 31.4286 31.0283 26.746 30.1637 22.0681C29.7748 19.9582 31.1947 17.6721 33.2121 17.221C33.1699 20.2895 34.0556 23.2217 34.557 26.2056C35.2998 30.6321 36.1363 35.0422 36.9376 39.457C37.3594 41.7807 37.7858 44.102 38.2216 46.4234C38.4676 47.7227 39.0604 48.8504 39.9344 49.8325Z" fill="#0F4A99"/>
<path d="M33.214 17.2285C33.2328 17.0965 33.3195 17.0871 33.4226 17.1083C33.3546 17.1483 33.2843 17.1884 33.214 17.2285Z" fill="#0F4A99"/>
<path d="M27.2709 10.5884C33.0888 9.51697 38.9067 8.44793 44.7246 7.37654C49.5958 6.47902 54.4671 5.57915 59.3384 4.67457C62.9491 4.00496 66.5528 3.31184 70.1682 2.66807C72.298 2.2898 74.4209 4.22816 74.4888 6.51191C74.5029 6.99122 74.1701 6.85024 73.964 6.89019C71.5623 7.35539 69.1583 7.81355 66.7496 8.25761C62.0775 9.11754 57.4054 9.96338 52.7332 10.8186C47.1145 11.8477 41.4981 12.8791 35.8794 13.9129C34.8484 14.1033 33.8081 14.2654 32.7912 14.5144C29.8225 15.2428 27.1983 18.0105 27.4513 22.1857C27.3927 22.0917 27.299 22.0024 27.2803 21.9014C26.978 20.306 26.6429 18.7154 26.4063 17.1107C26.2188 15.8349 25.8041 14.5967 25.9986 13.2527C26.1321 12.3223 26.7343 11.6104 26.903 10.7246L26.9054 10.727C27.06 10.7669 27.1795 10.7176 27.2709 10.5884Z" fill="#ECF2F7"/>
<path d="M26.9055 10.7221C26.7344 11.6079 26.1346 12.3198 26.0011 13.2502C25.8066 14.5942 26.2213 15.8324 26.4088 17.1082C26.6454 18.7129 26.9805 20.3035 27.2827 21.8989C27.3015 21.9999 27.3952 22.0892 27.4538 22.1832C27.8591 24.3001 28.2809 26.4147 28.6698 28.5363C29.5368 33.2448 30.385 37.9556 31.2543 42.6641C31.4698 43.8341 31.3761 43.9821 30.1928 44.0338C28.398 44.1137 26.7438 42.9366 26.3947 41.1698C25.6473 37.387 24.9724 33.5902 24.2789 29.798C23.4307 25.1718 22.62 20.5385 21.7413 15.9193C21.254 13.3583 22.3248 11.5915 24.8365 11.037C25.5207 10.8866 26.1955 10.6775 26.9055 10.7221Z" fill="#ECF2F7"/>
<path d="M27.2709 10.5883C27.1796 10.7179 27.0601 10.7674 26.9078 10.725C26.9804 10.5506 27.1257 10.5694 27.2709 10.5883Z" fill="#0F4A99"/>
<path d="M67.723 29.4197C67.7254 34.4594 63.7609 38.4419 58.7349 38.4513C53.7231 38.4607 49.7375 34.4688 49.7351 29.4338C49.7304 24.3917 53.6926 20.4115 58.7209 20.4092C63.7515 20.4045 67.7207 24.3776 67.723 29.4197Z" fill="#ECF2F7"/>
</svg>
