<svg width="20" height="20" viewBox="0 0 20 20" fill="none" xmlns="http://www.w3.org/2000/svg">
<path d="M18.3327 6.29183C18.3327 6.84183 17.8827 7.29183 17.3327 7.29183H2.66602C2.11602 7.29183 1.66602 6.84183 1.66602 6.29183V6.2835C1.66602 4.37516 3.20768 2.8335 5.11602 2.8335H14.8743C16.7827 2.8335 18.3327 4.3835 18.3327 6.29183Z" fill="#696969"/>
<path d="M1.66602 9.5415V13.7165C1.66602 15.6248 3.20768 17.1665 5.11602 17.1665H14.8743C16.7827 17.1665 18.3327 15.6165 18.3327 13.7082V9.5415C18.3327 8.9915 17.8827 8.5415 17.3327 8.5415H2.66602C2.11602 8.5415 1.66602 8.9915 1.66602 9.5415ZM6.66602 14.3748H4.99935C4.65768 14.3748 4.37435 14.0915 4.37435 13.7498C4.37435 13.4082 4.65768 13.1248 4.99935 13.1248H6.66602C7.00768 13.1248 7.29102 13.4082 7.29102 13.7498C7.29102 14.0915 7.00768 14.3748 6.66602 14.3748ZM12.0827 14.3748H8.74935C8.40768 14.3748 8.12435 14.0915 8.12435 13.7498C8.12435 13.4082 8.40768 13.1248 8.74935 13.1248H12.0827C12.4243 13.1248 12.7077 13.4082 12.7077 13.7498C12.7077 14.0915 12.4243 14.3748 12.0827 14.3748Z" fill="#696969"/>
</svg>
