<svg width="28" height="28" viewBox="0 0 28 28" fill="none" xmlns="http://www.w3.org/2000/svg">
<path d="M10.0094 3.57422L25.4531 15.0586C24.5912 16.2223 24.8319 17.8673 25.9956 18.7336L21.8175 24.3467C20.6537 23.4848 19.0087 23.7255 18.1469 24.8892L2.69875 13.4005C3.565 12.2367 3.32 10.5917 2.15625 9.72984L6.33437 4.11234C7.49812 4.97859 9.13875 4.73359 10.0094 3.57422Z" fill="#65BC6A"/>
<path d="M27.2133 16.3625C27.4058 16.5069 27.4452 16.7825 27.3008 16.975L25.9971 18.7338C24.8333 17.8675 24.5927 16.2225 25.4546 15.0588L27.2133 16.3625ZM21.8189 24.3469L20.5152 26.1057C20.3708 26.2982 20.0952 26.3375 19.9027 26.1932L18.1483 24.8894C19.0102 23.7257 20.6552 23.485 21.8189 24.3469ZM16.4289 11.0688C18.1702 12.3682 18.5333 14.8357 17.2383 16.5813C15.9389 18.3269 13.4714 18.6857 11.7302 17.3907C9.98457 16.0913 9.62144 13.6238 10.9164 11.8825C12.2158 10.1369 14.6833 9.77379 16.4289 11.0688Z" fill="#398F3E"/>
<path d="M12.2489 16.6874C12.3272 16.7456 12.419 16.774 12.5096 16.774C12.6435 16.774 12.7752 16.7132 12.8609 16.5977L13.2324 16.0981C13.2621 16.1024 13.2901 16.1107 13.3203 16.1129C13.3522 16.1151 13.3842 16.1164 13.4157 16.1164C14.0969 16.1164 14.6739 15.5879 14.7242 14.8984C14.7409 14.6683 14.6967 14.4377 14.596 14.2308C14.5501 14.1363 14.4928 14.0475 14.4254 13.9666C14.4005 13.9337 14.3712 13.904 14.3375 13.8791C14.2439 13.8091 14.1826 13.7071 14.1655 13.5916C14.1485 13.4761 14.1774 13.3606 14.2474 13.267C14.3169 13.1734 14.4193 13.1121 14.5348 13.0951C14.6512 13.0784 14.7658 13.1073 14.8599 13.1773C14.9224 13.2237 14.9697 13.2836 15.0003 13.3541C15.0156 13.3895 15.0261 13.4271 15.0318 13.4647C15.0672 13.7041 15.2904 13.8681 15.5284 13.834C15.7672 13.7986 15.9326 13.5767 15.8976 13.3374C15.881 13.2241 15.8495 13.1134 15.804 13.008C15.7725 12.9349 15.7265 12.8702 15.6824 12.8046L15.9943 12.385C16.1387 12.1912 16.0984 11.9173 15.9042 11.7729C15.7108 11.629 15.4365 11.6688 15.2921 11.8631L14.9837 12.2778C14.799 12.2205 14.6039 12.2004 14.4079 12.2297C14.061 12.2809 13.7547 12.4637 13.5456 12.7451C13.1265 13.309 13.228 14.1017 13.7661 14.5427C13.7827 14.5651 13.7972 14.5887 13.8094 14.6136C13.8431 14.6832 13.8575 14.758 13.8519 14.8359C13.8344 15.0765 13.6182 15.2585 13.3842 15.2406C13.2674 15.2322 13.161 15.1789 13.0849 15.0905C13.0084 15.0021 12.9707 14.8892 12.9795 14.7729C12.997 14.5318 12.8154 14.3222 12.5748 14.3047C12.3245 14.2886 12.1242 14.4688 12.1067 14.7094C12.0813 15.059 12.1937 15.3976 12.4234 15.6627C12.4313 15.6719 12.4409 15.6781 12.4488 15.6868L12.16 16.0753C12.0144 16.2696 12.0546 16.5434 12.2489 16.6874ZM2.69867 13.4004L14.8699 22.4523H14.8655L2.96992 18.6679C3.4118 17.2854 2.64617 15.8111 1.26367 15.3692L1.7493 13.8423L2.04242 12.9148L2.69867 13.4004Z" fill="#65BC6A"/>
<path d="M14.8655 22.4525L10.5911 21.0919L1.82359 14.5732L1.57422 14.3894L1.74922 13.8425L2.04234 12.915L2.69859 13.4007L14.8655 22.4525Z" fill="#398F3E"/>
<path d="M15.8594 23.1876H4.375C4.375 21.7394 3.19813 20.5626 1.75 20.5626V18.2788L2.97062 18.6682L14.8663 22.4526H14.8706L15.8594 23.1876Z" fill="#65BC6A"/>
<path d="M15.8594 23.1876H13.0506L2.97062 19.9807L1.75 19.5913V18.2788L2.97062 18.6682L14.8663 22.4526H14.8706L15.8594 23.1876Z" fill="#29752B"/>
<path d="M26.2509 20.5625V22.75C26.2509 22.9906 26.0541 23.1875 25.8134 23.1875H24.4922L24.6147 22.7981L25.2666 20.755C25.5684 20.6281 25.9009 20.5625 26.2509 20.5625Z" fill="#236823"/>
<path d="M26.25 18.3882V20.5626C25.9 20.5626 25.5675 20.6282 25.2656 20.7551L25.8431 18.9394V18.9351L25.9962 18.7338L26.25 18.3882Z" fill="#29752B"/>
<path d="M25.8426 18.9395L25.2651 20.7551L24.6132 22.7982C24.3026 22.6976 23.9832 22.6626 23.6726 22.6801C23.4276 22.6932 23.187 22.7413 22.9551 22.8201L25.8426 18.9395Z" fill="#65BC6A"/>
<path d="M24.6146 22.7981L24.4921 23.1875L23.9496 24.885C23.8796 25.1125 23.6302 25.2394 23.4027 25.1694L21.6309 24.605L21.819 24.3469L22.9565 22.82C23.1884 22.7413 23.429 22.6931 23.674 22.68C23.9846 22.6625 24.304 22.6975 24.6146 22.7981ZM26.2509 11.375V13.2212L25.3802 12.9413L24.1946 12.565H24.1902C23.8359 12.1187 23.6259 11.5544 23.6259 10.9375H25.8134C26.054 10.9375 26.2509 11.1344 26.2509 11.375Z" fill="#398F3E"/>
<path d="M24.1884 12.565L20.5441 11.4056H20.5397L19.9141 10.9375H23.6241C23.6241 11.5544 23.8341 12.1187 24.1884 12.565Z" fill="#65BC6A"/>
<path d="M4.6682 6.35234L3.73633 7.60797V7.60359L4.18258 6.19922L4.6682 6.35234Z" fill="#398F3E"/>
<path d="M4.37495 23.1877H2.18745C1.94682 23.1877 1.74995 22.9908 1.74995 22.7502V20.5627C3.19807 20.5627 4.37495 21.7396 4.37495 23.1877ZM1.26432 15.3696C2.64682 15.8114 3.41245 17.2858 2.97057 18.6683L1.74995 18.2789L0.883699 18.0033C0.656199 17.9333 0.529324 17.6839 0.599324 17.4564L1.26432 15.3696ZM10.0099 3.57018V3.57455C9.13932 4.73393 7.4987 4.97893 6.33495 4.11268L7.64307 2.3583C7.78307 2.16143 8.0587 2.12205 8.2512 2.26643L10.0099 3.57018ZM2.15682 9.73018C3.32057 10.5921 3.56557 12.2371 2.69932 13.4008L0.944949 12.0971C0.748074 11.9527 0.708699 11.6771 0.853074 11.4846L2.15682 9.73018Z" fill="#398F3E"/>
<path d="M25.3662 12.9808C25.178 13.4926 25.1474 14.3108 25.2655 14.9145L20.5449 11.4058L24.1893 12.5651H24.1937L25.3793 12.9414L25.3662 12.9808Z" fill="#65BC6A"/>
<path d="M25.2651 14.9145C25.147 14.3108 25.1776 13.4927 25.3657 12.9808L25.3788 12.9414L26.2495 13.2214L27.1157 13.497C27.3432 13.567 27.4701 13.8164 27.4001 14.0439L26.7657 16.0302L25.4532 15.0589L25.2651 14.9145ZM25.8426 18.9395L25.2651 20.7552L24.6132 22.7983C24.3026 22.6977 23.9832 22.6627 23.6726 22.6802C23.4276 22.6933 23.187 22.7414 22.9551 22.8202L25.8426 18.9395Z" fill="#398F3E"/>
<path d="M23.674 22.6801C23.429 22.6932 23.1884 22.7413 22.9565 22.8201L22.1996 23.8395L21.819 24.347L21.6309 24.6051L23.044 25.0557L23.4027 25.1695C23.6302 25.2395 23.8796 25.1126 23.9496 24.8851L24.4921 23.1876L24.5359 23.0476L24.6146 22.7982C24.304 22.6976 23.9846 22.6626 23.674 22.6801Z" fill="#29752B"/>
<path d="M24.6482 12.7096L24.1932 12.5652H24.1888C24.0926 12.4471 24.0095 12.3202 23.9395 12.1846L24.6482 12.7096Z" fill="#236823"/>
<path d="M24.1884 12.565L20.5441 11.4056H20.5397L19.9141 10.9375H22.2634L23.9391 12.1844C24.0091 12.32 24.0922 12.4469 24.1884 12.565Z" fill="#29752B"/>
<path d="M25.213 13.7026C25.2349 13.5233 25.2612 13.3483 25.3005 13.1951L24.6487 12.7095L24.1937 12.5651H24.1893L20.5449 11.4058L24.9462 14.6783L25.2655 14.9145C25.1955 14.5514 25.178 14.1095 25.213 13.7026Z" fill="#398F3E"/>
<path d="M26.7266 15.9995L26.8141 15.8813L26.7659 16.0301L26.7266 15.9995Z" fill="#398F3E"/>
<path d="M27.2122 14.6123L25.4534 13.3086L25.3003 13.1948C25.2609 13.3479 25.2347 13.5229 25.2128 13.7023C25.1778 14.1092 25.1953 14.5511 25.2653 14.9142L25.4534 15.0586L26.7266 15.9992L26.8141 15.8811L27.2166 14.6167L27.2122 14.6123Z" fill="#29752B"/>
</svg>
