<svg width="18" height="18" viewBox="0 0 18 18" fill="none" xmlns="http://www.w3.org/2000/svg">
<path d="M8.4323 3.13087C8.6059 2.63143 8.6927 2.38171 8.82106 2.3125C8.93215 2.2526 9.06592 2.2526 9.17701 2.3125C9.30537 2.38171 9.39217 2.63143 9.56577 3.13087L10.7135 6.43266C10.7629 6.5748 10.7876 6.64588 10.8321 6.69881C10.8714 6.74556 10.9216 6.782 10.9782 6.80496C11.0423 6.83094 11.1175 6.83247 11.268 6.83554L14.7628 6.90676C15.2915 6.91753 15.5558 6.92292 15.6613 7.02361C15.7526 7.11075 15.7939 7.23797 15.7713 7.36213C15.7451 7.50559 15.5345 7.66531 15.1131 7.98476L12.3276 10.0966C12.2077 10.1875 12.1477 10.233 12.1111 10.2917C12.0788 10.3435 12.0596 10.4025 12.0553 10.4634C12.0504 10.5324 12.0722 10.6044 12.1158 10.7485L13.128 14.0943C13.2811 14.6004 13.3577 14.8534 13.2945 14.9849C13.2398 15.0986 13.1316 15.1772 13.0065 15.1941C12.862 15.2135 12.645 15.0625 12.211 14.7605L9.34174 12.7639C9.21822 12.678 9.15646 12.635 9.08933 12.6183C9.03003 12.6036 8.96804 12.6036 8.90874 12.6183C8.84161 12.635 8.77985 12.678 8.65633 12.7639L5.78707 14.7605C5.35306 15.0625 5.13606 15.2135 4.99153 15.1941C4.86645 15.1772 4.75823 15.0986 4.70356 14.9849C4.6404 14.8534 4.71696 14.6004 4.87007 14.0943L5.88231 10.7485C5.92588 10.6044 5.94767 10.5324 5.94277 10.4634C5.93843 10.4025 5.91928 10.3435 5.88696 10.2917C5.85038 10.233 5.79042 10.1875 5.6705 10.0966L2.88497 7.98476C2.46362 7.66532 2.25295 7.50559 2.22679 7.36213C2.20415 7.23797 2.24549 7.11075 2.33678 7.02361C2.44227 6.92292 2.70659 6.91753 3.23523 6.90676L6.73008 6.83554C6.88054 6.83247 6.95577 6.83094 7.01986 6.80496C7.07648 6.782 7.12664 6.74556 7.16596 6.69881C7.21048 6.64588 7.23519 6.5748 7.2846 6.43266L8.4323 3.13087Z" fill="#D9D9D9"/>
</svg>
