<svg width="34" height="47" viewBox="0 0 34 47" fill="none" xmlns="http://www.w3.org/2000/svg">
<g opacity="0.11">
<path d="M14.6499 7.83271C15.3064 6.82845 14.5401 5.74385 13.7272 5.16237C12.9332 4.5946 11.7668 4.50011 11.1422 5.25881C9.81913 6.86611 13.1839 8.89358 14.2503 7.03287C14.5716 6.47229 14.0477 5.85945 13.4663 5.98942C12.9694 6.10067 12.5657 6.51082 12.5916 7.05443C12.6199 7.65202 13.0907 8.0071 13.5918 8.2015C13.9462 8.33888 14.3526 8.05216 14.4458 7.70536C14.5533 7.30544 14.3145 6.96887 13.9608 6.83171C13.9417 6.82431 13.9089 6.79405 13.9315 6.82845C13.9419 6.92424 13.9523 7.02003 13.9628 7.11582C13.6816 7.34266 13.6391 7.42365 13.8355 7.35921C13.5742 7.01132 13.3128 6.66365 13.0515 6.31576C12.9928 6.4183 13.0821 6.32817 13.0036 6.37737C13.083 6.34885 13.0849 6.34733 13.0096 6.37323C12.8366 6.43071 13.1471 6.3728 12.9615 6.38216C12.8338 6.38869 12.7195 6.35124 12.581 6.2781C12.5388 6.25589 12.3094 6.08804 12.4037 6.1675C12.3654 6.13528 12.183 5.91497 12.2743 6.04493C12.162 5.88492 12.2624 6.10698 12.2224 5.93086C12.2603 6.09762 12.255 6.10415 12.1573 6.2228C12.2111 6.1712 12.2092 6.17077 12.1515 6.22149C12.293 6.122 12.0615 6.23847 12.2535 6.16881C12.4369 6.08586 12.4737 6.07128 12.3639 6.12505C12.5318 6.06801 12.2435 6.12222 12.4322 6.12331C12.4882 6.12353 12.5352 6.1416 12.6774 6.19014C12.6974 6.19689 12.88 6.29529 12.9547 6.34145C13.1377 6.45465 13.323 6.64101 13.4211 6.79427C13.5069 6.92816 13.4852 6.89441 13.518 7.04398C13.4875 6.90465 13.4782 7.16066 13.5082 7.01742C13.5295 6.91466 13.4654 7.09361 13.4509 7.11604C12.9515 7.87952 14.1549 8.58967 14.6499 7.83271Z" fill="#003557"/>
<path d="M20.4048 14.4069C21.3196 12.9022 19.5578 9.84606 17.7597 10.8873C16.0175 11.8964 18.2279 14.5987 19.3882 15.057C19.7461 15.1983 20.1434 14.904 20.2422 14.5609C20.4599 13.8043 20.4314 13.0041 20.1324 12.2793C19.9723 11.8912 19.6205 11.6663 19.2605 11.5117C19.0215 11.4092 18.718 11.4625 18.4992 11.5938C18.4248 11.6508 18.3518 11.7096 18.2801 11.7703C18.1643 11.8666 18.0685 11.9188 18.2718 11.8494C17.4271 12.1385 17.7893 13.5104 18.641 13.2192C18.8638 13.143 19.053 13.0441 19.2011 12.8534C19.4014 12.5957 19.0023 12.9943 18.8574 12.8691C18.9106 12.915 18.924 12.9847 18.9442 13.0478C19.0583 13.4049 19.0051 13.83 18.9034 14.1836C19.1881 14.0181 19.4726 13.8529 19.7574 13.6874C19.8968 13.7425 19.618 13.5718 19.5605 13.5211C19.3626 13.3465 19.1866 13.1467 19.0185 12.9427C18.8568 12.7465 18.7274 12.5205 18.614 12.2926C18.5603 12.1848 18.5593 11.9876 18.5322 12.0394C18.4316 12.2321 18.4969 12.0388 18.5637 12.0723C18.7516 12.1668 18.864 12.3882 18.9628 12.5656C19.1241 12.8554 19.329 13.4876 19.2058 13.6903C18.7314 14.4701 19.933 15.1826 20.4048 14.4069Z" fill="#003557"/>
<path d="M24.6236 20.9717C24.5093 20.2099 24.2514 19.5505 23.6453 19.0589C23.2065 18.703 22.6985 18.8517 22.4849 19.3724C21.9882 20.5828 22.5472 22.3711 23.895 22.6878C24.2101 22.7618 24.5047 22.6397 24.6789 22.3615C25.0301 21.8011 25.0514 21.0942 24.7766 20.496C24.5238 19.9452 23.8166 19.3805 23.204 19.7477C22.0661 20.4296 22.2963 22.1547 23.5783 22.4503C24.4504 22.6515 24.8209 21.2821 23.9475 21.0805C23.6934 21.022 23.85 21.0113 23.8288 21.1585C23.8492 21.0178 23.9405 20.9471 24.0454 20.863C23.8818 20.9325 23.7181 21.0017 23.5545 21.0712C23.4276 21.077 23.467 20.9288 23.5457 21.1506C23.6117 21.3368 23.5804 21.4839 23.4798 21.6446C23.7411 21.5357 24.0024 21.4269 24.2638 21.3183C23.623 21.1676 23.6223 20.2404 23.8234 19.7501C23.4366 19.8546 23.0499 19.9591 22.663 20.0636C23.1041 20.4215 23.2014 20.7986 23.2842 21.3496C23.3416 21.7328 23.8058 21.9391 24.1382 21.8457C24.5351 21.7338 24.6811 21.354 24.6236 20.9717Z" fill="#003557"/>
<path d="M26.279 30.1969C26.1615 29.3045 26.315 28.3022 25.8325 27.4997C25.5427 27.0175 24.933 27.0682 24.6336 27.4997C23.8108 28.6851 23.5642 30.506 25.1503 31.113C25.7021 31.3241 26.0751 30.7154 26.0043 30.2393C25.9206 29.6779 25.837 29.1162 25.7534 28.5547C25.6963 28.1714 25.2314 27.9652 24.8994 28.0586C24.5029 28.1703 24.3576 28.5499 24.4144 28.9322C24.498 29.4937 24.5816 30.0554 24.6653 30.6168C24.95 30.3255 25.2345 30.0345 25.5193 29.7432C25.0011 29.5448 25.6493 28.4803 25.8323 28.2166C25.4327 28.2166 25.033 28.2166 24.6334 28.2166C24.7996 28.4929 24.8036 28.8404 24.8245 29.1556C24.856 29.6311 24.8777 30.1015 24.94 30.5744C24.9907 30.9588 25.4667 31.1626 25.794 31.0705C26.1954 30.9575 26.3297 30.5802 26.279 30.1969Z" fill="#003557"/>
<path d="M25.2953 39.0637C25.4413 38.0612 25.3411 37.1114 25.194 36.1156C25.0959 35.4512 24.223 35.4973 23.9251 35.946C23.4222 36.7034 23.2287 37.7771 23.3407 38.6799C23.3988 39.1478 23.7384 39.4741 24.2196 39.3648C25.6043 39.0502 25.6214 37.2028 25.4681 36.0729C25.416 35.6887 24.9425 35.4845 24.6141 35.5768C24.2141 35.6893 24.0772 36.0673 24.1291 36.4504C24.1719 36.7661 24.2732 37.8988 23.8504 37.9948C24.1434 38.2232 24.4362 38.4513 24.7293 38.6797C24.6448 37.9985 24.7418 37.2385 25.124 36.6629C24.701 36.6063 24.2781 36.5497 23.855 36.4933C23.9617 37.2157 24.0625 37.9569 23.9563 38.6862C23.9006 39.0688 24.0438 39.448 24.4413 39.5599C24.7725 39.6531 25.2396 39.4473 25.2953 39.0637Z" fill="#003557"/>
<path d="M22.9438 45.884C23.4756 45.747 23.5575 45.3162 23.8244 44.9104C23.4013 44.728 22.9784 44.5455 22.5554 44.3631C22.3721 44.9208 22.118 45.4348 22.1902 46.0418C22.2283 46.3612 22.3747 46.6353 22.6999 46.7267C23.0104 46.814 23.314 46.6694 23.4839 46.4004C23.8593 45.8058 23.716 45.0595 23.6194 44.4058C23.5628 44.0224 23.0972 43.8164 22.7654 43.9096C22.3685 44.0213 22.224 44.4008 22.2804 44.7833C22.3064 44.9596 22.3281 45.134 22.3387 45.3121C22.3443 45.4048 22.3404 45.4973 22.3351 45.5899C22.3368 45.5426 22.3298 45.5618 22.3145 45.6473C22.3353 45.5973 22.3255 45.6092 22.2849 45.6832C22.716 45.8028 23.1474 45.9223 23.5786 46.0418C23.5241 45.5846 23.739 45.213 23.8942 44.7408C23.9927 44.441 23.8324 44.0929 23.5752 43.9388C23.233 43.7337 22.8361 43.873 22.6252 44.1935C22.556 44.2984 22.5011 44.4045 22.4515 44.5203C22.4334 44.5653 22.4141 44.6095 22.3932 44.6533C22.4456 44.5969 22.506 44.5508 22.5745 44.5144C21.7067 44.7375 22.0751 46.1076 22.9438 45.884Z" fill="#003557"/>
<path d="M30.3632 40.6741C30.2655 39.8506 30.3304 39.1117 29.6345 38.5297C29.277 38.2308 28.8088 38.2655 28.5441 38.6734C27.9923 39.5242 28.1183 40.5988 28.2594 41.553C28.3538 42.1922 29.2479 42.2033 29.5283 41.7226C29.8878 41.1065 29.7629 40.4003 29.6639 39.7282C29.6075 39.3448 29.1415 39.1389 28.8099 39.2321C28.4128 39.3437 28.2687 39.7232 28.3249 40.1057C28.3636 40.3689 28.4698 40.7645 28.3292 41.0057C28.7522 41.0623 29.1751 41.1189 29.5981 41.1753C29.5126 40.5973 29.4102 39.9032 29.7429 39.3903C29.3794 39.4382 29.0159 39.4861 28.6524 39.534C29.0276 39.8477 28.9203 40.2196 28.9744 40.6739C29.0199 41.0582 29.2557 41.3841 29.6686 41.3841C30.0127 41.3843 30.4089 41.0592 30.3632 40.6741Z" fill="#003557"/>
<path d="M30.6904 31.5232C30.6344 31.1488 30.5789 30.7743 30.5229 30.3999C30.4631 30.0008 30.0045 29.8314 29.6689 29.9037C28.5157 30.1525 28.6864 31.6325 29.1886 32.394C29.3999 32.7143 29.796 32.854 30.1386 32.6487C30.4491 32.4626 30.5998 31.9985 30.3876 31.6769C30.2433 31.4581 30.2158 31.4028 30.1652 31.1244C30.1767 31.2028 30.1797 31.2006 30.1741 31.1178C30.1692 30.9274 30.1369 31.2448 30.182 31.0752C30.1695 31.1276 30.1441 31.1723 30.1056 31.2093C30.0771 31.2435 29.8943 31.3044 30.0379 31.2733C29.7532 31.1078 29.4687 30.9426 29.1839 30.7771C29.2399 31.1516 29.2954 31.526 29.3514 31.9005C29.4089 32.2839 29.8732 32.49 30.2054 32.3966C30.6019 32.2852 30.7477 31.9055 30.6904 31.5232Z" fill="#003557"/>
<path d="M29.7933 23.6157C29.7178 23.1102 29.6145 22.6018 29.2128 22.2528C28.978 22.0488 28.752 21.979 28.4435 22.0517C28.2311 22.1017 28.03 22.2694 27.9174 22.4549C27.7156 22.7871 27.7682 23.1528 27.8214 23.517C27.8774 23.9006 28.3443 24.1064 28.6754 24.0132C29.0727 23.9013 29.2162 23.522 29.1604 23.1395C29.1483 23.0559 29.1487 23.0594 29.1617 23.1502C29.1576 23.113 29.1555 23.0758 29.1551 23.0383C29.1587 22.9547 29.1564 22.9686 29.1481 23.0801C29.0919 23.2332 28.9982 23.3427 28.8667 23.4086C28.6884 23.3847 28.5101 23.3609 28.3317 23.337C28.2572 23.2773 28.2472 23.2721 28.3017 23.3218C28.4154 23.431 28.2192 23.19 28.3041 23.3181C28.3196 23.3431 28.3339 23.369 28.3468 23.3956C28.2589 23.226 28.3273 23.3498 28.343 23.4001C28.4028 23.5908 28.4249 23.7957 28.4543 23.9929C28.5116 24.3763 28.9761 24.5825 29.3083 24.4891C29.7048 24.3778 29.8503 23.9982 29.7933 23.6157Z" fill="#003557"/>
<path d="M26.7924 14.7922C26.785 14.7193 26.8103 14.6285 26.7718 14.8436C26.7767 14.8162 26.7875 14.7896 26.7975 14.7637C26.8384 14.6568 26.8499 14.5941 26.8612 14.4633C26.8859 14.1796 26.7171 13.8964 26.5054 13.7283C26.2549 13.5293 25.9589 13.4405 25.6639 13.6173C25.3719 13.7923 25.297 14.0991 25.3449 14.4193C25.4092 14.8497 25.5775 15.2588 25.9233 15.5324C26.2506 15.1976 26.5779 14.8628 26.9052 14.5279C26.8508 14.4848 26.8007 14.44 26.7529 14.3895C26.7028 14.3303 26.7122 14.3442 26.7805 14.4313C26.759 14.4017 26.7414 14.3694 26.7237 14.3374C26.6386 14.1824 26.7761 14.4972 26.736 14.366C26.7318 14.3518 26.7282 14.3372 26.7258 14.3226C26.6626 13.9406 26.2085 13.7318 25.8718 13.8265C25.4796 13.9369 25.3238 14.3187 25.3868 14.7001C25.4394 15.018 25.682 15.3413 25.9235 15.5322C26.077 15.6535 26.2117 15.7403 26.4145 15.7403C26.5979 15.7403 26.7758 15.665 26.9054 15.5322C27.1476 15.2845 27.2053 14.7652 26.9054 14.5277C26.8505 14.4842 26.8005 14.4389 26.7526 14.3873C26.8114 14.4707 26.8203 14.4818 26.779 14.4208C26.7529 14.3814 26.6935 14.2425 26.7735 14.438C26.7222 14.3128 26.7041 14.1744 26.6841 14.0414C26.2972 14.2717 25.9106 14.502 25.5237 14.7324C25.5954 14.7894 25.6633 14.9154 25.5526 14.7313C25.4754 14.5902 25.4554 14.4448 25.4928 14.2954C25.4879 14.3183 25.4771 14.3405 25.4683 14.3618C25.4136 14.4953 25.3892 14.6479 25.4039 14.7918C25.4432 15.1767 25.6899 15.5019 26.098 15.5019C26.4468 15.5024 26.8318 15.178 26.7924 14.7922Z" fill="#003557"/>
<path d="M33.9888 27.2719C33.9331 26.8974 33.8773 26.523 33.8216 26.1485C33.7609 25.7412 33.3042 25.591 32.9676 25.6524C32.5194 25.7342 32.1904 26.2082 32.2251 26.661C32.2544 27.0468 32.5185 27.3712 32.9192 27.3712C33.2753 27.3712 33.643 27.0474 33.6134 26.661C33.6096 26.5263 33.5873 26.5835 33.5466 26.8326C33.5098 26.8977 33.4602 26.9499 33.3976 26.9895C33.2387 27.0918 33.2649 27.0352 33.3366 27.0222C33.0518 26.8567 32.7673 26.6915 32.4826 26.526C32.5383 26.9005 32.5941 27.2749 32.6498 27.6494C32.7069 28.0328 33.1719 28.2389 33.5038 28.1455C33.9005 28.0341 34.0459 27.6544 33.9888 27.2719Z" fill="#003557"/>
<path d="M19.9844 28.5543C20.7163 27.3913 20.7789 24.461 19.0679 24.1404C18.7438 24.0796 18.4688 24.1813 18.2839 24.4667C17.3132 25.9658 17.6031 28.6719 19.16 29.6513C19.4814 29.8533 19.9238 29.7258 20.11 29.3966C20.635 28.4676 20.3013 27.5354 20.1202 26.5595C19.9959 25.89 19.1692 25.9479 18.8512 26.3899C18.7735 26.4976 18.6959 26.6056 18.6184 26.7134C18.0866 27.4523 19.2926 28.1596 19.8174 27.4303C19.8951 27.3225 19.9727 27.2145 20.0502 27.1068C19.6271 27.0502 19.2043 26.9936 18.7812 26.9372C18.881 27.4747 19.2019 28.165 18.911 28.6797C19.2277 28.5948 19.5443 28.5099 19.861 28.425C18.9404 27.8459 18.9429 26.0178 19.4831 25.1838C19.2217 25.2927 18.9604 25.4015 18.6991 25.5101C19.3507 25.6323 19.0372 27.4379 18.7859 27.8374C18.2992 28.61 19.5016 29.3215 19.9844 28.5543Z" fill="#003557"/>
<path d="M20.6345 35.6752C20.5378 35.0323 20.398 34.4119 20.039 33.863C19.7409 33.4069 19.138 33.4056 18.84 33.863C18.5713 34.2756 18.5072 34.8616 18.584 35.3402C18.6924 36.0159 19.3987 36.3209 19.9567 35.9586C20.7102 35.4695 20.0143 34.2397 19.2559 34.7321C19.1386 34.8009 19.1984 34.792 19.4351 34.7055C19.5908 34.7926 19.7464 34.8797 19.9022 34.9668C19.9424 35.0746 19.952 35.0898 19.9309 35.0123C19.9756 35.203 19.9411 34.9298 19.9458 34.8623C19.9345 35.0212 19.9754 34.7341 19.9882 34.6866C19.9986 34.6502 20.0103 34.6143 20.0237 34.5791C19.9669 34.7402 20.0135 34.6193 20.039 34.5799C19.6394 34.5799 19.2397 34.5799 18.84 34.5799C19.1337 35.0288 19.2165 35.5269 19.2955 36.0529C19.3531 36.4361 19.8171 36.6425 20.1495 36.5491C20.5457 36.4374 20.6919 36.0575 20.6345 35.6752Z" fill="#003557"/>
<path d="M18.9761 43.7829C19.1679 42.5601 19.2343 41.2543 18.7208 40.1031C18.5333 39.6829 17.9202 39.6562 17.6303 39.9594C16.6176 41.0185 16.6369 42.8442 17.13 44.1489C17.3432 44.713 18.0589 44.8734 18.399 44.3185C19.0163 43.3112 18.7635 41.9817 18.6003 40.8773C18.5324 40.4181 17.9312 40.2374 17.5803 40.4527C16.8167 40.9214 16.2475 42.0076 16.7203 42.8936C17.3543 44.0816 18.7516 43.3676 18.792 42.1898C18.8235 41.2733 17.435 41.2765 17.4035 42.1898C17.4181 42.1772 17.433 42.1645 17.4477 42.1519C17.6261 42.1758 17.8044 42.1996 17.9827 42.2235C17.847 42.1604 17.9242 42.2817 17.9634 42.0818C18.0012 41.8878 18.1243 41.7755 18.2813 41.6793C17.9412 41.5378 17.6014 41.3963 17.2613 41.2547C17.3654 41.959 17.5939 42.9585 17.2 43.6014C17.6231 43.658 18.0459 43.7146 18.469 43.771C18.1651 42.9663 17.9538 41.6521 18.6122 40.9635C18.2487 40.9156 17.8853 40.8677 17.5218 40.8198C17.8602 41.5783 17.7625 42.6058 17.6373 43.405C17.4967 44.3011 18.8344 44.6855 18.9761 43.7829Z" fill="#003557"/>
<path d="M15.9705 19.8246C16.1895 18.3649 15.8941 15.1044 13.736 15.6595C12.4976 15.978 12.4436 17.2986 12.8724 18.285C13.2314 19.1103 14.0054 20.0286 14.8419 20.3634C15.132 20.4795 15.4761 20.2879 15.6259 20.0371C16.4029 18.7368 14.7849 15.6687 13.4191 17.3389C13.2676 17.5242 13.1503 17.783 13.2405 18.0299C13.3003 18.1936 13.3467 18.3486 13.4683 18.4781C13.5742 18.5911 13.7106 18.8539 13.5987 18.5485C13.91 19.3979 15.2527 19.0302 14.9377 18.1707C14.8777 18.0072 14.8313 17.852 14.7098 17.7225C14.6032 17.6091 14.4682 17.3472 14.5795 17.652C14.52 17.8823 14.4606 18.1126 14.401 18.3429C14.5985 18.1013 14.2695 18.3863 14.1682 18.2896C14.239 18.3573 14.2957 18.4749 14.3327 18.5665C14.414 18.7681 14.5329 19.1423 14.427 19.3198C14.6883 19.2109 14.9496 19.1021 15.211 18.9934C15.0511 18.9294 14.5349 18.3351 14.3299 18.0305C14.1478 17.7597 13.7085 17.131 14.2071 17.0025C14.3286 16.9712 14.5451 17.8792 14.57 18.0059C14.6204 18.265 14.6351 18.5297 14.6453 18.7932C14.6508 18.9362 14.6485 19.0794 14.6442 19.2225C14.6434 19.254 14.6138 19.5623 14.6313 19.4465C14.4972 20.343 15.8351 20.7279 15.9705 19.8246Z" fill="#003557"/>
<path d="M14.0858 23.7625C14.0441 23.4817 14.0026 23.2007 13.9609 22.9198C13.9013 22.5177 13.4425 22.3553 13.1069 22.4237C12.3661 22.575 12.1313 23.3591 12.2682 24.0295C12.3231 24.2985 12.4818 24.6031 12.6929 24.7768C13.0011 25.0307 13.2943 24.971 13.6429 24.9168C14.0177 24.8585 14.2192 24.3828 14.1279 24.0432C14.0187 23.6374 13.6476 23.4889 13.2739 23.547C13.1824 23.5612 13.0909 23.5755 12.9994 23.5897C13.2245 23.6506 13.4497 23.7114 13.6748 23.7723C13.645 23.7477 13.6193 23.7225 13.5935 23.6935C13.7193 23.8355 13.6399 23.7486 13.6123 23.6961C13.7 23.8629 13.6344 23.7504 13.6184 23.6968C13.6044 23.6502 13.5878 23.4965 13.6104 23.7033C13.6055 23.6578 13.6072 23.6121 13.6093 23.5666C13.6008 23.7573 13.5997 23.6459 13.6184 23.5849C13.6063 23.616 13.5942 23.6472 13.5821 23.6783C13.6212 23.6156 13.6093 23.6308 13.5465 23.7242C13.5012 23.7719 13.4467 23.8028 13.3833 23.817C13.4133 23.8061 13.4442 23.7983 13.4759 23.7935C13.1911 23.628 12.9066 23.4628 12.6219 23.2973C12.6634 23.5782 12.7051 23.8592 12.7468 24.14C12.8036 24.5234 13.269 24.7296 13.6008 24.6362C13.9977 24.5245 14.1424 24.1451 14.0858 23.7625Z" fill="#003557"/>
<path d="M15.4233 32.7511C15.258 31.6465 14.8919 29.4477 13.4074 29.5435C11.7079 29.6534 11.5842 32.2792 12.1688 33.4804C12.5819 34.3293 13.4974 35.1317 14.3827 34.385C15.0892 33.7892 15.1941 32.6122 14.9822 31.7623C14.8119 31.0794 14.488 30.3294 13.9977 29.8243C13.3401 29.1468 12.4731 29.5311 12.1305 30.3105C11.7664 31.1386 12.9628 31.8616 13.3295 31.0274C13.5361 30.5576 13.3486 31.008 13.0345 30.8443C13.0652 30.8602 13.1943 31.062 13.2507 31.1595C13.4384 31.4845 13.5697 31.8461 13.6608 32.211C13.7062 32.3924 13.703 32.6051 13.6778 32.7892C13.6606 32.9153 13.6276 33.052 13.5753 33.1683C13.5263 33.2771 13.4318 33.3174 13.5353 33.2799C13.7336 33.2081 13.6787 33.2921 13.5319 33.0659C13.6674 33.2747 13.3403 32.6893 13.4089 32.8611C13.3457 32.7026 13.3133 32.523 13.2954 32.3541C13.252 31.9428 13.2665 31.5235 13.3757 31.1247C13.4116 30.9932 13.5106 30.966 13.4221 30.9875C13.5723 30.951 13.3699 30.8967 13.4776 31.0119C13.9236 31.4898 13.9911 32.5062 14.0843 33.1289C14.2197 34.0319 15.5574 33.647 15.4233 32.7511Z" fill="#003557"/>
<path d="M14.3239 32.9236C14.2958 32.7364 14.2677 32.5491 14.2399 32.3619C14.1456 31.7295 13.2465 31.7031 12.9709 32.1923C12.6221 32.8115 12.6861 33.4056 13.2052 33.8958C13.5201 34.1932 14.0805 34.1728 14.2956 33.7522C14.5836 33.189 14.5595 32.6521 14.4731 32.0384C14.418 31.647 13.9504 31.4597 13.6191 31.5423C11.7134 32.0175 12.299 35.5306 14.2807 34.8783C16.1928 34.249 15.0581 30.8835 13.5467 30.4618C13.3154 30.3974 13.0369 30.4598 12.8713 30.6444C11.8581 31.7732 12.3288 33.8952 13.8281 34.3167C14.1375 34.4037 14.4435 34.2601 14.6121 33.9903C15.2888 32.9077 15.2443 30.8328 13.8211 30.4191C13.1922 30.2363 12.5825 31.1463 13.1456 31.6063C13.5691 31.9522 13.9253 32.4301 14.2358 32.8792C14.4363 33.1694 14.6227 33.4798 14.7264 33.8203C14.7981 34.0554 14.7483 33.9799 14.4546 34.0021C14.6778 34.1758 14.9009 34.3498 15.1241 34.5235C14.8383 33.7038 15.1032 32.7159 15.0073 31.8584C14.9002 30.9022 14.4195 30.1244 13.4629 29.9003C12.5912 29.6961 12.2209 31.0657 13.0937 31.2701C13.7789 31.4306 13.6649 32.3081 13.654 32.8805C13.6414 33.5471 13.5616 34.2596 13.7853 34.901C13.8841 35.1844 14.1335 35.4468 14.4548 35.4224C17.5354 35.1892 15.5099 31.7308 14.1279 30.6016C13.9028 30.9973 13.6776 31.3929 13.4525 31.7887C13.8798 31.913 13.5691 33.0246 13.4135 33.2732C13.6749 33.1644 13.9362 33.0555 14.1975 32.9469C13.7374 32.8176 13.5374 32.001 13.8534 31.6489C13.6283 31.7099 13.4031 31.7706 13.1779 31.8316C13.6406 31.9607 13.9321 32.9667 13.8734 33.3945C13.8451 33.6013 13.9111 33.6124 13.856 33.4559C13.7894 33.2669 13.7683 32.9671 13.9885 32.912C13.7038 32.7466 13.4193 32.5814 13.1345 32.4159C13.1626 32.6158 13.1933 32.847 13.0971 33.0351C13.4606 32.9872 13.824 32.9393 14.1875 32.8914C14.1818 32.8972 14.176 32.9033 14.1705 32.9092C13.7474 32.8526 13.3246 32.796 12.9015 32.7396C12.9294 32.9269 12.9575 33.1141 12.9856 33.3013C13.1205 34.2043 14.4584 33.8194 14.3239 32.9236Z" fill="#003557"/>
<path d="M13.0312 37.4356C12.9846 37.1239 12.857 36.85 12.5914 36.6708C12.2192 36.4196 11.7531 36.5809 11.4203 36.816C11.1096 37.0355 10.9691 37.4348 11.1713 37.7879C11.3517 38.1029 11.8093 38.2631 12.1213 38.0426C12.1764 38.0036 12.2319 37.967 12.2907 37.9342C12.4041 37.8706 12.1242 37.9973 12.2326 37.9577C12.2541 37.9498 12.2766 37.9455 12.299 37.9416C12.2375 37.9501 12.176 37.9586 12.1145 37.967C12.1334 37.9653 12.1509 37.9649 12.17 37.9662C12.1085 37.9577 12.047 37.9492 11.9855 37.9407C11.9961 37.942 12.0068 37.9444 12.017 37.9479C11.9708 37.9283 11.9246 37.9087 11.8787 37.8891C11.7616 37.7883 11.7263 37.7609 11.7725 37.8066C11.6835 37.6803 11.6565 37.6451 11.6912 37.7012C11.7403 37.782 11.6158 37.5025 11.6486 37.5952C11.6733 37.6649 11.6818 37.7406 11.6927 37.8133C11.7182 37.9853 11.8716 38.1538 12.0117 38.2379C12.1719 38.3339 12.3675 38.36 12.5467 38.3095C12.7201 38.2607 12.8708 38.1419 12.9617 37.9832C13.064 37.8035 13.0608 37.6331 13.0312 37.4356Z" fill="#003557"/>
<path d="M11.4393 13.5423C11.2399 12.3543 10.4774 10.6815 9.3257 10.2045C8.58065 9.896 7.87306 10.3793 7.48915 11.0176C6.99053 11.8466 7.54554 13.0281 8.32273 13.4339C9.10672 13.8432 10.0605 13.4796 10.3808 12.6654C10.6747 11.918 10.0622 11.0328 9.39316 10.7886C8.32166 10.3976 7.90775 11.7526 8.33869 12.5324C8.70898 13.2029 9.54149 13.6533 10.2274 13.897C10.5257 14.003 10.8535 13.8277 11.0114 13.5706C11.4306 12.8881 11.2472 11.9459 10.328 11.9405C9.43232 11.935 9.43296 13.3555 10.328 13.361C10.1474 12.7279 9.97541 12.5589 9.8124 12.8537C10.0737 12.7449 10.3351 12.636 10.5964 12.5274C10.3325 12.4338 10.0782 12.2733 9.84283 12.1098C9.73387 12.0341 9.64193 11.9357 9.55234 11.8381C9.38805 11.6594 9.56022 11.868 9.5117 11.9198C9.28654 11.9807 9.06139 12.0415 8.83624 12.1024C8.95222 12.1299 9.04373 12.2204 9.04585 12.2394C9.06267 12.4009 9.01053 12.2391 9.118 12.1664C9.10289 12.1767 8.91944 12.1634 8.95286 12.1688C8.78452 12.1418 8.68067 11.8207 8.71195 11.682C8.71855 11.6529 8.84305 11.5421 8.85879 11.5314C8.91136 11.4957 8.7958 11.5175 8.88774 11.5458C9.12183 11.618 9.47445 12.2759 9.63215 12.5857C9.84325 13.0002 10.0229 13.4576 10.1005 13.92C10.2516 14.8213 11.5898 14.4379 11.4393 13.5423Z" fill="#003557"/>
<path d="M10.0557 21.2296C9.98105 20.731 9.83783 20.1663 9.43519 19.8356C9.07192 19.5373 8.61587 19.5726 8.34475 19.9793C8.04618 20.4273 8.05001 20.8995 8.12577 21.4118C8.18706 21.8258 8.64268 21.9602 8.97977 21.9079C9.07128 21.8938 9.16279 21.8796 9.2543 21.8655C9.62906 21.8073 9.83059 21.3312 9.73929 20.9918C9.63012 20.5858 9.25919 20.4378 8.88529 20.4957C8.79378 20.5098 8.70227 20.524 8.61076 20.5381C8.8955 20.7036 9.18003 20.8688 9.46477 21.0343C9.45264 20.9513 9.45285 20.9539 9.46519 21.0421C9.45796 20.9809 9.45711 20.92 9.45711 20.8586C9.45753 20.6698 9.42093 20.9862 9.47498 20.7944C9.44115 20.9145 9.53798 20.7049 9.54372 20.6962C9.18024 20.7441 8.81676 20.792 8.45328 20.8399C8.48095 20.8608 8.5067 20.8838 8.53075 20.9089C8.65247 21.0264 8.45839 20.7887 8.54841 20.9376C8.56671 20.9698 8.58331 21.0027 8.59863 21.0364C8.52436 20.8819 8.59714 21.0458 8.60714 21.0774C8.66205 21.2489 8.69014 21.429 8.71674 21.6068C8.7742 21.9902 9.23855 22.1964 9.57075 22.103C9.96721 21.9917 10.113 21.6121 10.0557 21.2296Z" fill="#003557"/>
<path d="M19.1116 5.70012C19.1614 5.63067 19.2135 5.5621 19.2535 5.48612C19.3678 5.26798 19.3806 5.07422 19.3446 4.83279C19.3229 4.68693 19.201 4.52235 19.1026 4.42394C18.975 4.29593 18.7888 4.14463 18.613 4.09521C18.4295 4.04362 18.2246 4.09042 18.0405 4.13179C17.8664 4.17097 17.7109 4.25892 17.5811 4.38258C17.3787 4.57525 17.327 4.87829 17.3889 5.14324C17.4493 5.4023 17.6511 5.56493 17.8452 5.71688C17.7387 5.57538 17.6323 5.43387 17.5261 5.29236C17.5366 5.36246 17.5472 5.43235 17.5576 5.50245C17.5834 5.67443 17.7364 5.84293 17.8766 5.92697C18.0369 6.02298 18.2325 6.0491 18.4117 5.99859C18.5851 5.94983 18.7358 5.83096 18.8266 5.67225C18.9292 5.49287 18.9262 5.32241 18.8966 5.12495C18.8862 5.05485 18.8756 4.98497 18.8651 4.91486C18.8394 4.74288 18.6864 4.57438 18.5461 4.49034C18.3859 4.39434 18.1903 4.36821 18.0111 4.41872C17.8377 4.46748 17.687 4.58635 17.5962 4.74506C17.4936 4.92444 17.4966 5.09491 17.5261 5.29236C17.5366 5.36246 17.5472 5.43235 17.5576 5.50245C17.5834 5.67443 17.7364 5.84293 17.8766 5.92697C18.0369 6.02298 18.2325 6.0491 18.4117 5.99859C18.5851 5.94983 18.7358 5.83096 18.8266 5.67225C18.9292 5.49287 18.9262 5.32241 18.8966 5.12495C18.8918 5.09229 18.8869 5.05964 18.882 5.02698C18.8764 4.98954 18.8707 4.95231 18.8651 4.91486C18.8343 4.70892 18.6604 4.58004 18.5134 4.46465C18.5602 4.50166 18.607 4.53867 18.6538 4.57568C18.6221 4.54847 18.5934 4.52147 18.5679 4.48795C18.604 4.53584 18.6402 4.58374 18.6764 4.63163C18.6685 4.62053 18.6623 4.60877 18.6579 4.59593C18.6813 4.65253 18.7045 4.70914 18.7279 4.76552C18.7266 4.76008 18.7253 4.75485 18.7241 4.74941C18.7324 4.81233 18.7407 4.87524 18.749 4.93816C18.7487 4.93315 18.7487 4.92814 18.7485 4.92314C18.7402 4.98605 18.7319 5.04897 18.7236 5.11189C18.7247 5.10731 18.7255 5.10274 18.7266 5.09795C18.7032 5.15456 18.68 5.21116 18.6566 5.26754C18.6598 5.25818 18.6649 5.24991 18.6715 5.24273C18.6353 5.29062 18.5991 5.33852 18.563 5.38641C18.5668 5.38271 18.5706 5.37901 18.5745 5.37531C18.5276 5.41232 18.4808 5.44933 18.434 5.48634C18.45 5.4748 18.4655 5.46631 18.4832 5.45803C18.4278 5.48198 18.3725 5.50571 18.3174 5.52966C18.4119 5.49287 18.5136 5.47981 18.613 5.46435C18.4346 5.4404 18.2563 5.41667 18.078 5.39272C18.1137 5.41972 18.1495 5.4465 18.1848 5.47414C18.138 5.43714 18.0912 5.40013 18.0443 5.36312C18.0854 5.39577 18.1256 5.42865 18.1586 5.47001C18.1224 5.42211 18.0863 5.37422 18.0501 5.32632C18.0588 5.33939 18.0658 5.3518 18.0718 5.36638C18.0484 5.30978 18.0252 5.25318 18.0018 5.19679C18.0048 5.2055 18.0067 5.21442 18.0075 5.22379C17.9992 5.16087 17.9909 5.09795 17.9826 5.03504C17.9835 5.0444 17.9831 5.05398 17.9816 5.06334C17.9899 5.00042 17.9982 4.93751 18.0065 4.87459C18.0031 4.89114 17.9984 4.90572 17.9924 4.9214C18.0158 4.86479 18.039 4.80819 18.0624 4.7518C18.0239 4.8354 17.9658 4.90899 17.9126 4.98301C17.6881 5.29563 17.8609 5.77458 18.1616 5.95483C18.3218 6.05084 18.5174 6.07697 18.6966 6.02646C18.8849 5.97356 19.0001 5.85556 19.1116 5.70012Z" fill="#003557"/>
<path d="M8.54149 32.1892C8.78473 31.2522 8.29888 27.2441 6.63216 28.2357C4.8703 29.2842 6.39402 33.7092 8.22249 32.6135C9.89092 31.6136 8.50042 27.8286 6.68876 27.8981C5.55661 27.9414 5.12142 29.13 5.43148 30.0975C5.73091 31.0317 6.53809 32.0098 7.50298 32.2395C7.99712 32.3573 8.45956 32.196 8.82836 31.8552C9.49403 31.2398 8.50893 30.2384 7.84645 30.8508C7.72111 30.9666 7.19802 30.4258 7.08629 30.2758C6.93754 30.0764 6.81347 29.8541 6.73728 29.6157C6.70323 29.5093 6.69642 29.4279 6.69962 29.3147C6.69919 29.3336 6.69025 29.3623 6.706 29.3504C6.79432 29.2829 6.74707 29.2866 6.83198 29.3562C7.04671 29.5324 7.1761 29.7847 7.2957 30.0322C7.45871 30.3694 7.6579 31.0195 7.4885 31.3852C7.427 31.5182 7.39359 31.4342 7.61151 31.346C7.74409 31.2923 7.82794 31.4033 7.68323 31.2468C7.48425 31.0319 7.37933 30.6958 7.29548 30.4199C7.23398 30.2172 7.16525 29.9584 7.20227 29.7429C7.20994 29.6985 7.29336 29.5498 7.33422 29.476C7.30527 29.4679 7.31953 29.4494 7.37678 29.4202C7.1695 29.5796 6.96371 29.575 6.75984 29.4065C6.92009 29.5345 7.05246 30.2334 7.11672 30.5858C7.16397 30.8451 7.19014 31.1063 7.20653 31.3693C7.21355 31.4838 7.2144 31.5986 7.2127 31.7133C7.20951 31.9142 7.21738 31.7549 7.2027 31.8113C6.97244 32.698 8.31187 33.0737 8.54149 32.1892Z" fill="#003557"/>
<path d="M10.2548 27.4114C10.6844 27.0914 11.0109 26.7182 10.9247 26.1383C10.8534 25.6591 10.361 25.4083 9.96343 25.2703C9.73275 25.1902 9.45524 25.2818 9.28797 25.4529C9.09538 25.65 9.07452 25.8833 9.10943 26.1439C9.08091 25.9315 9.09964 26.1054 9.09964 26.155C9.10006 26.3272 9.13624 25.9722 9.10921 26.1024C9.0658 26.3111 9.05026 26.526 9.16986 26.7165C9.36097 27.0213 9.64826 27.0607 9.95258 27.1591C10.1862 27.2346 10.458 27.1504 10.628 26.9764C10.8185 26.7816 10.8455 26.5443 10.8066 26.2854C10.7783 26.0973 10.7393 25.9247 10.6534 25.7529C10.5301 25.5069 10.3324 25.3754 10.0884 25.2762C9.84809 25.1784 9.5327 25.2629 9.31734 25.382C9.05452 25.5274 8.883 25.8618 8.9047 26.1631C8.94663 26.745 9.51674 27.3988 10.1275 27.1793C10.3735 27.0909 10.5642 26.9283 10.6923 26.6945C10.777 26.5399 10.827 26.3756 10.927 26.2282C11.1433 25.9097 10.9853 25.4405 10.678 25.2564C10.3322 25.0491 9.94343 25.1939 9.72806 25.5111C9.65379 25.6206 9.59761 25.7355 9.54654 25.8579C9.52462 25.9106 9.50185 25.9621 9.47439 26.012C9.51185 25.9489 9.56228 25.8992 9.62549 25.8635C9.73594 25.8235 9.75339 25.813 9.67763 25.8324C9.90278 25.8934 10.1279 25.9541 10.3531 26.0151C10.3197 25.99 10.288 25.9632 10.2577 25.9345C10.1252 25.8152 10.3178 26.0475 10.2382 25.9169C10.4225 26.2203 10.1452 26.632 9.82447 26.6612C9.70231 26.6573 9.59463 26.6098 9.50142 26.519C9.48142 26.5012 9.3731 26.2587 9.41268 26.3799C9.44226 26.4707 9.45311 26.5689 9.46716 26.6632C9.7519 26.3719 10.0364 26.0808 10.3212 25.7895C10.2348 25.7616 10.1479 25.7357 10.06 25.7133C10.036 25.7072 10.012 25.7013 9.98812 25.6944C10.3086 25.7878 10.5038 26.2349 10.4414 26.5068C10.5018 26.2443 10.4833 26.0307 10.4478 25.7664C10.163 26.0577 9.87852 26.3488 9.59378 26.6401C9.6323 26.6527 9.67061 26.6666 9.70827 26.6817C9.5542 26.6227 9.69252 26.6819 9.72423 26.7008C9.78744 26.7446 9.77233 26.7324 9.67891 26.6642C9.65741 26.6338 9.6357 26.6035 9.61421 26.573C9.65018 26.6364 9.6389 26.6076 9.58059 26.4868C9.5559 26.4015 9.55377 26.3155 9.57442 26.2291C9.58889 26.1938 9.60336 26.1583 9.61783 26.123C9.58101 26.1827 9.59421 26.1681 9.65699 26.0793C9.63613 26.1037 9.61421 26.127 9.59123 26.1489C9.57399 26.1664 9.43673 26.2715 9.55313 26.1846C9.24775 26.4119 9.09836 26.797 9.30415 27.1565C9.48163 27.4656 9.94811 27.6398 10.2548 27.4114Z" fill="#003557"/>
<path d="M6.09083 17.6276C6.44579 16.3655 5.94633 14.1924 4.28301 14.512C2.34239 14.8849 3.14851 17.9628 4.31663 18.8182C5.05742 19.3605 5.95782 19.0074 6.38067 18.2476C6.85865 17.3887 6.72692 16.2042 6.12764 15.4516C5.5854 14.7706 4.60584 14.4778 3.86866 15.0282C3.08893 15.6103 3.08531 16.6586 3.64011 17.4064C4.17383 18.1261 5.38068 17.4197 4.83908 16.6895C4.32472 15.9961 5.02635 16.0697 5.22448 16.6523C5.3262 16.9516 5.30875 17.4234 5.09317 17.6702C5.057 17.7116 5.12807 17.6761 5.08104 17.6341C4.94825 17.5157 4.86908 17.3478 4.78885 17.1911C4.60946 16.8401 4.5288 16.4174 4.5222 16.0246C4.5171 15.7242 4.64329 15.8526 4.42665 15.9373C4.37345 15.9582 4.62414 15.9127 4.5654 15.8659C4.90207 16.1333 4.83227 16.9647 4.75183 17.2503C4.50369 18.1322 5.84375 18.5062 6.09083 17.6276Z" fill="#003557"/>
<path d="M8.15578 6.58245C8.11109 6.28268 8.0779 5.94241 7.90148 5.68682C7.62823 5.29082 7.07279 5.09336 6.6642 5.41469C5.89127 6.02252 5.90404 6.99391 6.42117 7.77721C6.73123 8.2468 7.30497 8.21719 7.62014 7.77721C7.89169 7.39841 7.94851 7.08666 7.88105 6.62491C7.82508 6.24131 7.35817 6.03558 7.02704 6.12876C6.62972 6.24066 6.48629 6.6199 6.54205 7.0024C6.53375 6.92577 6.53247 6.92272 6.53822 6.99304C6.54077 6.92599 6.55865 6.86373 6.59184 6.80604C6.54971 6.89704 6.47863 6.97955 6.42096 7.0601C6.82061 7.0601 7.22027 7.0601 7.61993 7.0601C7.50629 6.88811 7.44883 6.77752 7.41223 6.60161C7.43627 6.71678 7.45607 6.47622 7.42648 6.6064C7.40457 6.70263 7.48118 6.54958 7.43627 6.58463C7.31944 6.61685 7.20261 6.64929 7.08578 6.68151C7.1011 6.6802 7.11642 6.67868 7.13174 6.67737C6.9566 6.66779 6.82125 6.58811 6.72613 6.43855C6.63653 6.3088 6.71123 6.39784 6.73123 6.47186C6.77401 6.63035 6.7921 6.79755 6.81615 6.95973C6.87339 7.34311 7.33796 7.54928 7.67015 7.45588C8.06726 7.34463 8.21282 6.96474 8.15578 6.58245Z" fill="#003557"/>
<path d="M3.08365 4.58752C4.54438 3.02593 2.60887 -1.00311 0.565254 0.79338C-0.27641 1.53357 -0.0616849 3.06773 0.455018 3.91699C1.08196 4.9476 2.52715 5.24999 3.24943 4.15581C3.78018 3.35183 3.73995 2.12768 3.10514 1.39794C2.77443 1.01783 2.22475 0.978428 1.79657 1.17784C1.18198 1.46412 0.854675 2.00729 0.772743 2.67151C0.620371 3.90959 2.06876 5.08889 3.18367 4.99114C4.59268 4.8677 5.10045 3.2149 4.20303 2.20301C3.08407 0.940983 0.656336 1.03699 0.440334 3.0194C0.251784 4.75079 2.64654 6.11884 3.95298 4.97982C4.56544 4.44601 4.53033 3.3625 4.46415 2.62949C4.38221 1.72145 4.0996 0.460512 3.17792 0.0740883C2.54737 -0.190204 1.93469 0.295057 1.67761 0.858909C1.36521 1.5438 1.385 2.30337 1.85084 2.90271C2.40819 3.61961 3.38392 2.60729 2.83274 1.89823C2.8387 1.90584 2.86339 1.60454 2.91361 1.49482C2.97873 1.35201 3.05598 1.36159 2.9168 1.40926C2.81317 1.44257 2.72038 1.42646 2.63845 1.36115C2.7174 1.42777 2.75315 1.52443 2.80082 1.61412C3.05705 2.09568 3.09876 2.68261 3.10876 3.21903C3.11472 3.53906 3.09557 3.97142 2.87211 3.97359C2.51332 3.97729 1.27774 3.36315 1.95703 2.85242C2.24858 2.63319 2.69782 2.79908 2.97065 2.96693C3.22176 3.12128 3.52225 3.54101 3.05556 3.58194C2.68357 3.6146 2.29987 3.1953 2.18559 2.87027C2.11983 2.68305 2.17921 2.60054 2.33371 2.49473C2.45139 2.41418 2.08344 2.33341 2.15537 2.46055C2.27986 2.68043 2.22879 3.00677 2.16452 3.23471C2.06897 3.57432 1.87361 3.4363 1.694 3.25103C1.44501 2.99414 1.3933 2.56374 1.40011 2.22282C1.40245 2.10504 1.46842 1.68705 1.67421 1.78959C2.09493 1.99946 2.43479 3.22709 2.10153 3.58325C1.4831 4.24463 2.46352 5.25042 3.08365 4.58752Z" fill="#003557"/>
</g>
</svg>
