<svg width="20" height="20" viewBox="0 0 20 20" fill="none" xmlns="http://www.w3.org/2000/svg">
<path d="M13.7485 18.3336C13.6498 18.3342 13.552 18.3151 13.4607 18.2774C13.3693 18.2397 13.2862 18.1842 13.2162 18.114L10.2174 15.0845C10.0762 14.9419 9.99693 14.7485 9.99693 14.5468C9.99693 14.3451 10.0762 14.1516 10.2174 14.009C10.3586 13.8664 10.55 13.7863 10.7497 13.7863C10.9493 13.7863 11.1408 13.8664 11.282 14.009L12.9988 15.751V2.42876C12.9988 2.22789 13.0778 2.03525 13.2184 1.89321C13.3589 1.75118 13.5496 1.67138 13.7485 1.67138C13.9473 1.67138 14.138 1.75118 14.2786 1.89321C14.4192 2.03525 14.4982 2.22789 14.4982 2.42876V15.751L16.215 14.009C16.3561 13.8664 16.5476 13.7863 16.7472 13.7863C16.9469 13.7863 17.1384 13.8664 17.2795 14.009C17.4207 14.1516 17.5 14.3451 17.5 14.5468C17.5 14.7485 17.4207 14.9419 17.2795 15.0845L14.2807 18.114C14.2107 18.1842 14.1276 18.2397 14.0363 18.2774C13.9449 18.3151 13.8471 18.3342 13.7485 18.3336ZM6.25153 18.3336C6.0527 18.3336 5.86202 18.2539 5.72142 18.1118C5.58083 17.9698 5.50184 17.7771 5.50184 17.5763V4.25403L3.78504 5.996C3.64387 6.13862 3.45241 6.21874 3.25276 6.21874C3.05312 6.21874 2.86165 6.13862 2.72048 5.996C2.57931 5.85338 2.5 5.65995 2.5 5.45826C2.5 5.25657 2.57931 5.06314 2.72048 4.92052L5.71925 1.89102C5.78895 1.82003 5.87186 1.76369 5.96322 1.72524C6.05458 1.68679 6.15257 1.66699 6.25153 1.66699C6.3505 1.66699 6.44849 1.68679 6.53985 1.72524C6.63121 1.76369 6.71412 1.82003 6.78382 1.89102L9.78259 4.92052C9.92376 5.06314 10.0031 5.25657 10.0031 5.45826C10.0031 5.65995 9.92376 5.85338 9.78259 5.996C9.64142 6.13862 9.44995 6.21874 9.25031 6.21874C9.05066 6.21874 8.85919 6.13862 8.71802 5.996L7.00123 4.25403V17.5763C7.00123 17.7771 6.92224 17.9698 6.78165 18.1118C6.64105 18.2539 6.45036 18.3336 6.25153 18.3336Z" fill="#292D32"/>
</svg>
