<svg width="88" height="87" viewBox="0 0 88 87" fill="none" xmlns="http://www.w3.org/2000/svg">
<path d="M44.1879 22.1002C52.0088 22.1002 59.9165 22.0171 67.7374 22.1002C78.9473 22.1833 86.942 29.9101 87.0289 40.628C87.1158 49.9334 87.1158 59.1558 87.0289 68.4612C86.8551 81.9209 72.6906 91.3925 60.351 84.9119C48.6197 78.7637 38.974 78.6806 27.2427 84.8288C14.8162 91.3094 0.477942 81.8378 0.130348 68.2119C-0.0434493 59.0727 -0.0434493 50.0165 0.130348 40.8772C0.477942 30.0763 8.7333 22.2663 20.117 22.1833C28.1117 22.1002 36.1063 22.1833 44.1879 22.1002ZM43.7534 31.2394C36.1932 31.1564 28.72 31.2394 21.1598 31.1564C16.2935 31.1564 12.4699 32.818 10.9058 37.3046C9.25469 41.7081 10.8189 45.5299 14.8162 48.2717C23.1585 53.8384 31.6745 59.3219 40.0168 64.8886C42.7106 66.7164 45.1438 66.7164 47.8376 64.8886C56.093 59.405 64.3484 54.0045 72.6037 48.521C76.5142 45.9454 78.5997 42.4558 77.0356 37.8031C75.3845 32.9842 71.474 31.3225 66.5208 31.3225C58.7869 31.2394 51.2267 31.2394 43.7534 31.2394ZM10.8189 57.4941C8.7333 67.3811 10.1237 73.5293 14.8162 76.188C19.248 78.7637 26.0261 77.1851 32.6304 71.7846C25.4178 67.0488 18.2921 62.396 10.8189 57.4941ZM54.0074 72.3662C61.1331 74.9418 66.5208 80.5915 73.4727 75.6895C80.1639 71.0368 76.5142 64.1408 77.7307 56.7463C69.3016 62.313 62.1759 67.0488 54.0074 72.3662Z" fill="white"/>
<path d="M43.9264 0C52.1818 0.249253 58.7861 3.24029 64.0869 8.89002C66.0856 10.9671 67.2152 13.7089 64.3476 15.4537C62.8703 16.2845 59.3944 15.786 57.9171 14.6228C47.8369 5.98207 39.5815 5.73281 29.8489 14.4567C27.8502 16.2845 25.6777 17.5308 23.3315 15.4537C20.7245 13.2104 21.8542 10.7179 23.766 8.72385C29.2406 2.90795 36.1056 0.0830843 43.9264 0Z" fill="white"/>
</svg>
