<svg width="52" height="28" viewBox="0 0 52 28" fill="none" xmlns="http://www.w3.org/2000/svg">
<g opacity="0.11">
<path d="M39.4352 16.8035C40.1323 17.786 41.4273 17.4686 42.2694 16.9227C43.0917 16.3895 43.6087 15.3344 43.1294 14.472C42.1138 12.6451 38.9828 15.0438 40.3295 16.724C40.7351 17.2303 41.5003 16.966 41.5926 16.375C41.6712 15.8698 41.4364 15.3419 40.9189 15.1663C40.3501 14.9732 39.8454 15.2825 39.4795 15.6793C39.221 15.9599 39.3395 16.4451 39.6292 16.6596C39.9634 16.907 40.3656 16.8076 40.6238 16.5275C40.6377 16.5124 40.6781 16.4929 40.6376 16.5013C40.5443 16.4758 40.451 16.4504 40.3576 16.4249C40.249 16.0789 40.189 16.0093 40.177 16.2166C40.5981 16.1002 41.019 15.9838 41.4401 15.8675C41.3659 15.775 41.4172 15.8916 41.4001 15.8001C41.3976 15.8848 41.3983 15.8871 41.4018 15.8072C41.4117 15.6244 41.3517 15.9358 41.4111 15.759C41.4519 15.6373 41.5289 15.5443 41.6482 15.4417C41.6844 15.4105 41.9256 15.2579 41.8167 15.3167C41.8609 15.2928 42.1337 15.2034 41.9788 15.2409C42.1696 15.1947 41.9252 15.2069 42.1044 15.2343C41.9347 15.2084 41.9305 15.201 41.8556 15.0662C41.884 15.1354 41.8851 15.1338 41.8589 15.0613C41.8999 15.2301 41.8761 14.9709 41.8707 15.1759C41.8808 15.3778 41.8809 15.4175 41.871 15.2952C41.8626 15.473 41.9179 15.1837 41.8475 15.3596C41.8267 15.4118 41.7925 15.4491 41.6949 15.5641C41.6813 15.5803 41.5222 15.7148 41.4517 15.7676C41.2786 15.897 41.0364 16.0017 40.8571 16.037C40.7005 16.068 40.74 16.0601 40.5882 16.0357C40.7296 16.0585 40.4938 15.9557 40.6166 16.0364C40.7048 16.094 40.5612 15.9684 40.5455 15.9466C40.0157 15.1993 38.9099 16.0628 39.4352 16.8035Z" fill="#003557"/>
<path d="M31.177 19.7641C32.2468 21.1719 35.7498 20.6489 35.4377 18.5862C35.1352 16.5875 31.7979 17.6596 30.9433 18.5753C30.6797 18.8578 30.8087 19.3372 31.093 19.5556C31.7198 20.037 32.4781 20.3045 33.2651 20.2915C33.6866 20.2846 34.026 20.0386 34.3028 19.759C34.4864 19.5734 34.5481 19.2702 34.5059 19.0176C34.4799 18.927 34.4518 18.8372 34.4214 18.7479C34.3741 18.6043 34.3605 18.4956 34.3507 18.7111C34.391 17.8156 32.9759 17.6498 32.9351 18.5526C32.9244 18.7888 32.9472 19.0019 33.071 19.2104C33.2382 19.4922 33.0124 18.9729 33.1826 18.8835C33.1202 18.9163 33.0501 18.9033 32.9837 18.8989C32.6082 18.8743 32.2305 18.6683 31.9375 18.4433C31.9875 18.7702 32.0373 19.0968 32.0872 19.4236C31.9845 19.5336 32.2465 19.3359 32.315 19.3008C32.5509 19.1801 32.8023 19.0891 33.0547 19.007C33.2974 18.9279 33.5561 18.8901 33.8107 18.8679C33.9311 18.8574 34.1158 18.9289 34.0773 18.8846C33.9343 18.7197 34.0909 18.8518 34.0351 18.9019C33.8777 19.0428 33.6295 19.0664 33.4275 19.0935C33.0974 19.1377 32.4314 19.0968 32.2873 18.9072C31.733 18.1774 30.6257 19.0382 31.177 19.7641Z" fill="#003557"/>
<path d="M23.4937 21.2935C24.2474 21.4667 24.9583 21.4681 25.6404 21.0824C26.1342 20.8032 26.182 20.274 25.774 19.8829C24.8255 18.974 22.9492 18.8391 22.1579 19.982C21.973 20.2492 21.9788 20.5693 22.1747 20.8344C22.5693 21.3685 23.2219 21.6481 23.8819 21.6113C24.4894 21.5775 25.277 21.1243 25.159 20.4169C24.9401 19.1031 23.2436 18.6842 22.4963 19.7734C21.9878 20.5143 23.1311 21.3638 23.6404 20.6218C23.7885 20.4059 23.7409 20.5562 23.6112 20.4822C23.7351 20.553 23.7677 20.6643 23.8077 20.7932C23.8029 20.6148 23.7984 20.4364 23.7936 20.258C23.8348 20.1373 23.9588 20.2286 23.7226 20.2206C23.5244 20.2139 23.3984 20.1305 23.2853 19.9774C23.291 20.2616 23.2966 20.5458 23.3021 20.8299C23.6783 20.2866 24.5449 20.6267 24.9291 20.9948C24.9736 20.5949 25.0181 20.1952 25.0627 19.7953C24.5661 20.076 24.1781 20.0283 23.6328 19.9031C23.2537 19.816 22.8903 20.1738 22.8554 20.5187C22.814 20.9307 23.1153 21.2067 23.4937 21.2935Z" fill="#003557"/>
<path d="M14.2649 19.4493C15.1419 19.6675 16.022 20.1792 16.9491 20.0233C17.5062 19.9298 17.6829 19.3414 17.3898 18.9031C16.5845 17.6987 14.9739 16.799 13.8238 18.0579C13.4237 18.4959 13.8553 19.0682 14.3262 19.1769C14.8816 19.3052 15.4371 19.4334 15.9925 19.5616C16.3716 19.6493 16.7352 19.2906 16.7699 18.946C16.8113 18.5346 16.5099 18.2592 16.1319 18.1718C15.5765 18.0436 15.021 17.9153 14.4656 17.7871C14.6332 18.1602 14.8006 18.533 14.9681 18.9061C15.3438 18.4949 16.1003 19.4918 16.2794 19.7597C16.4262 19.3862 16.5731 19.0128 16.72 18.6394C16.4008 18.6932 16.0747 18.5692 15.7724 18.4729C15.3166 18.3276 14.8691 18.1749 14.4043 18.0594C14.0265 17.9654 13.6611 18.3354 13.6269 18.675C13.585 19.0916 13.8881 19.3557 14.2649 19.4493Z" fill="#003557"/>
<path d="M6.34252 15.271C7.22558 15.7758 8.14991 16.0313 9.13436 16.2598C9.79123 16.4124 10.0689 15.5798 9.7592 15.1365C9.23635 14.3883 8.30421 13.8129 7.41952 13.5857C6.96103 13.468 6.53129 13.6654 6.45657 14.1552C6.24157 15.5646 7.96147 16.2595 9.07349 16.5316C9.45168 16.6241 9.8165 16.2568 9.85094 15.916C9.89281 15.5008 9.58998 15.2341 9.21289 15.1418C8.90222 15.0657 7.80664 14.7441 7.87234 14.3137C7.55126 14.5036 7.23046 14.6933 6.90939 14.8832C7.57691 15.0546 8.25136 15.4246 8.64872 15.9933C8.85709 15.6188 9.06538 15.2445 9.27356 14.8699C8.55945 14.704 7.82976 14.5259 7.18735 14.1586C6.85045 13.9659 6.44347 13.9604 6.19281 14.2907C5.98405 14.5658 6.0046 15.0779 6.34252 15.271Z" fill="#003557"/>
<path d="M0.834097 10.567C0.76659 11.1142 1.13903 11.3491 1.42011 11.7476C1.74606 11.4193 2.07193 11.0913 2.39788 10.763C1.94408 10.3868 1.5572 9.96052 0.963576 9.80486C0.65117 9.72308 0.341263 9.75914 0.136321 10.0294C-0.0593599 10.2874 -0.0359048 10.6243 0.153099 10.8818C0.570652 11.4511 1.32059 11.5916 1.96694 11.7416C2.34596 11.8296 2.70951 11.4702 2.74439 11.126C2.7859 10.7141 2.48446 10.4396 2.10634 10.3517C1.93203 10.3112 1.76112 10.2674 1.59082 10.2118C1.50213 10.1829 1.41709 10.1453 1.3326 10.1064C1.37611 10.1253 1.36079 10.1117 1.28648 10.066C1.3256 10.1039 1.31801 10.0903 1.26379 10.0251C0.99366 10.384 0.723448 10.7432 0.453316 11.1021C0.900505 11.2192 1.16873 11.5566 1.55292 11.8751C1.79681 12.0774 2.18096 12.0556 2.41953 11.8718C2.73691 11.6275 2.75259 11.2054 2.53068 10.8906C2.45805 10.7874 2.37917 10.6971 2.28918 10.6082C2.25372 10.5748 2.21955 10.5404 2.18632 10.5049C2.21977 10.5745 2.24068 10.6479 2.24946 10.7253C2.35992 9.83244 0.944457 9.67312 0.834097 10.567Z" fill="#003557"/>
<path d="M2.97563 19.4145C3.78104 19.6259 4.44757 19.9581 5.24705 19.5217C5.65773 19.2975 5.79746 18.8474 5.51356 18.4501C4.92143 17.6218 3.87108 17.3446 2.92767 17.1257C2.29573 16.9791 1.95678 17.8103 2.30283 18.2491C2.74638 18.8113 3.45216 18.9542 4.11647 19.1087C4.4954 19.1969 4.85912 18.8371 4.89391 18.4931C4.93551 18.081 4.63391 17.807 4.25587 17.7189C3.99571 17.6583 3.58708 17.6122 3.41339 17.3921C3.20502 17.7666 2.99673 18.1409 2.78856 18.5154C3.36006 18.6479 4.04616 18.8074 4.40315 19.3067C4.49199 18.9494 4.58082 18.5922 4.66966 18.235C4.23865 18.4702 3.93064 18.2334 3.48625 18.1169C3.11049 18.0182 2.71933 18.1188 2.56759 18.5045C2.44092 18.826 2.59898 19.3157 2.97563 19.4145Z" fill="#003557"/>
<path d="M11.4056 23.0834C11.7761 23.1687 12.1463 23.2544 12.5168 23.3397C12.9116 23.4305 13.2384 23.0643 13.2942 22.7241C13.4856 21.5552 12.04 21.1707 11.1439 21.3601C10.767 21.4399 10.4909 21.7585 10.5568 22.1541C10.6166 22.5126 10.9949 22.824 11.3733 22.7439C11.6308 22.6895 11.6925 22.6842 11.9713 22.7392C11.8939 22.7211 11.8948 22.7247 11.9741 22.75C12.1539 22.8154 11.8692 22.6685 12.0111 22.773C11.9667 22.742 11.9343 22.7019 11.9139 22.6523C11.8924 22.6131 11.9027 22.4199 11.8789 22.5656C12.1382 22.3603 12.3971 22.1552 12.6564 21.95C12.2859 21.8647 11.9157 21.7789 11.5452 21.6936C11.1659 21.6064 10.8026 21.9645 10.7678 22.3092C10.7262 22.7206 11.0274 22.9964 11.4056 23.0834Z" fill="#003557"/>
<path d="M19.1228 25.1518C19.6229 25.267 20.1358 25.3574 20.6096 25.1102C20.8864 24.9659 21.0348 24.7804 21.0803 24.4654C21.1115 24.2485 21.0288 23.999 20.8969 23.8257C20.6606 23.5151 20.2996 23.4298 19.9397 23.3456C19.5607 23.2569 19.1969 23.6176 19.1623 23.9612C19.1208 24.3736 19.4224 24.647 19.8003 24.7354C19.8829 24.7548 19.8795 24.754 19.7899 24.7327C19.8261 24.7426 19.8617 24.7543 19.8969 24.7677C19.9736 24.8018 19.9615 24.7945 19.8604 24.7458C19.738 24.637 19.6701 24.5093 19.6568 24.3622C19.7447 24.2043 19.8325 24.0464 19.9204 23.8886C20.0035 23.8409 20.012 23.8335 19.9456 23.8662C19.8018 23.9322 20.0991 23.8374 19.9482 23.8697C19.9191 23.875 19.8897 23.8788 19.8601 23.8812C20.0509 23.8614 19.91 23.8797 19.8572 23.8759C19.6571 23.8617 19.4575 23.8071 19.2624 23.7621C18.8832 23.6746 18.5198 24.0329 18.485 24.3777C18.4432 24.789 18.7445 25.0645 19.1228 25.1518Z" fill="#003557"/>
<path d="M28.47 25.5898C28.5409 25.6097 28.6164 25.6667 28.4296 25.5517C28.4534 25.5663 28.4742 25.5862 28.4948 25.6051C28.5796 25.6826 28.634 25.7163 28.7521 25.775C29.0081 25.9023 29.3347 25.8487 29.5696 25.7126C29.8476 25.5517 30.0394 25.3078 29.9826 24.9672C29.9263 24.6301 29.6673 24.4473 29.3505 24.3744C28.9247 24.2763 28.4806 24.2832 28.0978 24.5057C28.2904 24.9346 28.4829 25.3635 28.6755 25.7924C28.7358 25.7573 28.7961 25.7271 28.8609 25.7009C28.9346 25.6759 28.9181 25.6795 28.8116 25.7114C28.8472 25.7022 28.8838 25.6975 28.9202 25.6928C29.0963 25.6702 28.7516 25.6829 28.889 25.6938C28.9038 25.695 28.9188 25.697 28.9332 25.7002C29.3135 25.7816 29.6754 25.434 29.7107 25.0846C29.7517 24.6776 29.4522 24.3917 29.0726 24.3103C28.7563 24.2426 28.3651 24.3505 28.0979 24.506C27.9283 24.6048 27.7976 24.6988 27.723 24.8883C27.6556 25.0597 27.6606 25.2536 27.7371 25.4235C27.8795 25.7408 28.3435 25.9855 28.6756 25.7926C28.7365 25.7573 28.7972 25.7273 28.863 25.7015C28.7635 25.7257 28.7498 25.73 28.822 25.7138C28.8684 25.7038 29.02 25.6994 28.8079 25.7023C28.9437 25.7004 29.0797 25.7344 29.2114 25.7646C29.1384 25.3184 29.0653 24.8725 28.9922 24.4264C28.9126 24.4724 28.7699 24.4895 28.9826 24.4538C29.1428 24.4335 29.2861 24.4682 29.4118 24.5581C29.3923 24.5451 29.3755 24.5268 29.3588 24.5108C29.2542 24.4107 29.1206 24.3317 28.9807 24.2926C28.6066 24.1879 28.2121 24.2988 28.0621 24.6802C27.9335 25.0059 28.0951 25.4848 28.47 25.5898Z" fill="#003557"/>
<path d="M14.1654 27.7285C14.5358 27.814 14.9061 27.8995 15.2765 27.985C15.6794 28.0781 15.9876 27.7066 16.054 27.3694C16.1422 26.9206 15.8203 26.439 15.3844 26.305C15.0132 26.1907 14.613 26.3182 14.4658 26.6926C14.3349 27.0253 14.5022 27.4878 14.8742 27.6022C15.0015 27.6482 14.9562 27.6063 14.7384 27.4767C14.6911 27.4184 14.6606 27.3529 14.6465 27.2799C14.6093 27.0937 14.6526 27.139 14.6385 27.2108C14.8977 27.0056 15.1567 26.8004 15.4159 26.5952C15.0455 26.5097 14.6752 26.4241 14.3048 26.3386C13.9257 26.251 13.5621 26.6097 13.5274 26.9542C13.4857 27.3658 13.7871 27.6412 14.1654 27.7285Z" fill="#003557"/>
<path d="M18.1136 14.1716C18.9312 15.2828 21.6462 16.4183 22.5746 14.9374C22.7505 14.6569 22.7565 14.3627 22.5578 14.085C21.5139 12.6271 18.8789 11.9034 17.3916 12.9981C17.0847 13.2241 17.0413 13.6844 17.2804 13.9794C17.9554 14.8113 18.9491 14.8421 19.9275 15.0316C20.5987 15.1615 20.8485 14.3677 20.5524 13.9083C20.4802 13.7961 20.4079 13.6838 20.3357 13.5718C19.8407 12.8034 18.7366 13.6702 19.2252 14.4286C19.2973 14.5408 19.3697 14.6531 19.4419 14.765C19.6503 14.3906 19.8586 14.0163 20.0667 13.6417C19.5278 13.5374 18.7649 13.5835 18.3909 13.1226C18.3539 13.4497 18.3168 13.7767 18.2798 14.1038C19.1592 13.4565 20.8663 14.1307 21.4471 14.9419C21.4414 14.6577 21.4358 14.3735 21.4303 14.0894C21.0767 14.6534 19.5048 13.6969 19.2239 13.3152C18.6809 12.5765 17.5742 13.4385 18.1136 14.1716Z" fill="#003557"/>
<path d="M11.2206 12.1619C11.8567 12.3079 12.4879 12.4053 13.1326 12.2716C13.6683 12.1606 13.8911 11.5978 13.5733 11.1513C13.2866 10.7486 12.7625 10.4733 12.2872 10.3692C11.616 10.2221 11.0714 10.77 11.2048 11.4245C11.3849 12.3083 12.7898 12.1101 12.6084 11.2205C12.5872 11.0856 12.5736 11.1448 12.5674 11.3976C12.4288 11.5112 12.2902 11.6245 12.1516 11.7381C12.0361 11.7361 12.0184 11.7394 12.0985 11.7482C11.9039 11.7199 12.1719 11.7881 12.2332 11.8173C12.0889 11.7483 12.3421 11.892 12.3818 11.9214C12.4119 11.9445 12.4412 11.9686 12.4692 11.9941C12.3396 11.8818 12.4353 11.9698 12.4628 12.0081C12.6097 11.6347 12.7565 11.2613 12.9034 10.8879C12.3761 10.9973 11.8802 10.8916 11.3598 10.772C10.9806 10.6851 10.6172 11.0427 10.5823 11.3876C10.541 11.7989 10.8423 12.0751 11.2206 12.1619Z" fill="#003557"/>
<path d="M4.25649 7.63233C5.32859 8.26091 6.52425 8.80285 7.78863 8.74615C8.25012 8.72539 8.50047 8.16238 8.32364 7.7801C7.70625 6.44456 5.99332 5.79168 4.59305 5.77289C3.98764 5.76482 3.57469 6.37455 3.9682 6.89625C4.6825 7.84329 6.01766 8.0957 7.10956 8.34909C7.56351 8.4544 7.95329 7.95908 7.88109 7.55207C7.72377 6.66636 6.91816 5.73529 5.91648 5.85147C4.57346 6.00719 4.72711 7.57521 5.81271 8.04585C6.65751 8.41213 7.16479 7.1135 6.32305 6.74842C6.32945 6.76678 6.33578 6.78534 6.34218 6.8037C6.25426 6.96153 6.16655 7.11944 6.07863 7.27726C6.18752 7.17361 6.04583 7.20122 6.21817 7.31125C6.38549 7.41794 6.44524 7.57415 6.47743 7.75626C6.73463 7.49052 6.99175 7.22498 7.24895 6.95924C6.55267 6.79764 5.5348 6.64386 5.0789 6.03954C4.87052 6.41403 4.66223 6.78832 4.45406 7.16289C5.31756 7.17467 6.62322 7.46025 7.02463 8.32854C7.20297 8.00652 7.3813 7.6845 7.55964 7.36249C6.72659 7.39988 5.80239 6.93096 5.10165 6.52032C4.3161 6.05956 3.46523 7.16818 4.25649 7.63233Z" fill="#003557"/>
<path d="M27.7451 13.6295C29.0285 14.3706 32.1836 15.293 32.458 13.0725C32.6155 11.7984 31.4015 11.2625 30.3222 11.3007C29.4192 11.3328 28.2767 11.7185 27.6564 12.3771C27.4414 12.6054 27.4939 12.9974 27.6732 13.2295C28.6026 14.4334 32.064 14.0492 31.0053 12.1592C30.8879 11.9496 30.6892 11.7449 30.4253 11.7384C30.2504 11.7341 30.0885 11.7205 29.9228 11.7865C29.7783 11.8439 29.4826 11.8748 29.8092 11.8825C28.901 11.8612 28.7511 13.2508 29.67 13.2724C29.8448 13.2764 30.0069 13.2901 30.1726 13.2242C30.3177 13.1663 30.612 13.1365 30.2863 13.1284C30.093 12.9881 29.8996 12.848 29.7063 12.7077C29.8595 12.981 29.7142 12.5688 29.8417 12.5097C29.7524 12.5511 29.6218 12.5607 29.5225 12.5617C29.3043 12.5635 28.9109 12.5371 28.7841 12.3729C28.7897 12.6571 28.7954 12.9413 28.8009 13.2254C28.9194 13.0996 29.6645 12.8356 30.0243 12.7561C30.3443 12.6854 31.0932 12.5061 31.03 13.0191C31.0146 13.1442 30.0866 13.0127 29.9591 12.9894C29.6985 12.9413 29.4458 12.8577 29.1959 12.7705C29.0602 12.7231 28.9272 12.6682 28.7951 12.6117C28.766 12.5993 28.4888 12.4584 28.5906 12.5172C27.8022 12.0625 26.9509 13.1711 27.7451 13.6295Z" fill="#003557"/>
<path d="M24.7579 10.4211C25.0356 10.4854 25.3135 10.5499 25.5912 10.6141C25.9888 10.7063 26.3092 10.3372 26.3687 9.99855C26.4996 9.25078 25.8531 8.74325 25.1765 8.62475C24.9049 8.57716 24.562 8.61356 24.3221 8.74696C23.9717 8.94159 23.9196 9.23751 23.8422 9.58314C23.759 9.95474 24.1294 10.3179 24.4802 10.3574C24.8995 10.4045 25.1746 10.1123 25.2577 9.74178C25.2781 9.65108 25.2983 9.5603 25.3187 9.46959C25.179 9.65756 25.0395 9.84561 24.8998 10.0336C24.9337 10.0148 24.9668 10 25.0033 9.98659C24.8245 10.0519 24.9348 10.0097 24.994 10.0031C24.8059 10.0238 24.9352 10.0039 24.9911 10.0087C25.0398 10.0127 25.1895 10.0536 24.988 9.9987C25.0323 10.0108 25.0744 10.0292 25.1161 10.048C24.941 9.96991 25.0456 10.0099 25.0957 10.0498C25.071 10.027 25.0464 10.0042 25.0218 9.98145C25.066 10.0411 25.0561 10.0243 24.9919 9.93136C24.964 9.87149 24.9552 9.80923 24.9652 9.74477C24.9644 9.77681 24.9604 9.80852 24.9532 9.83991C25.2124 9.63467 25.4714 9.42955 25.7306 9.22431C25.453 9.15987 25.175 9.09554 24.8973 9.0313C24.5182 8.94349 24.1545 9.30259 24.1199 9.6469C24.0784 10.0588 24.3797 10.3335 24.7579 10.4211Z" fill="#003557"/>
<path d="M15.8686 8.36678C16.9615 8.61826 19.1505 9.08437 19.6066 7.66205C20.1285 6.03371 17.7206 4.95317 16.3833 5.05788C15.4384 5.13186 14.3521 5.69235 14.7245 6.79397C15.0215 7.67311 16.0826 8.20368 16.9546 8.318C17.6553 8.40992 18.4751 8.38292 19.1272 8.11042C20.0019 7.745 19.9615 6.7937 19.3593 6.18713C18.7193 5.54255 17.6041 6.39471 18.2488 7.04392C18.6118 7.40966 18.2598 7.06894 18.5282 6.83562C18.5021 6.85841 18.2661 6.90493 18.1542 6.92178C17.7816 6.9777 17.3954 6.96749 17.021 6.91849C16.8349 6.8942 16.6374 6.81304 16.4745 6.72189C16.3631 6.65946 16.2475 6.57839 16.1581 6.48675C16.0744 6.40101 16.0715 6.29792 16.0684 6.40832C16.0627 6.62004 16.0043 6.53786 16.2696 6.48379C16.0247 6.53372 16.6919 6.44325 16.5062 6.44415C16.6776 6.44334 16.8573 6.47913 17.0217 6.52452C17.4219 6.63509 17.8083 6.80272 18.1409 7.0513C18.2505 7.13323 18.2396 7.2357 18.252 7.14506C18.2309 7.29888 18.356 7.12971 18.2088 7.18799C17.5983 7.42914 16.6238 7.1186 16.0078 6.97686C15.1143 6.77143 14.9823 8.16281 15.8686 8.36678Z" fill="#003557"/>
<path d="M16.1118 7.27722C16.2971 7.31978 16.4823 7.36235 16.6675 7.40511C17.2931 7.54945 17.6481 6.71903 17.2924 6.28175C16.8421 5.7283 16.2634 5.5698 15.6146 5.87459C15.2209 6.05958 15.0341 6.59064 15.348 6.94625C15.7684 7.42227 16.2789 7.59711 16.8841 7.74193C17.2701 7.83429 17.6168 7.46625 17.6615 7.12633C17.9179 5.17105 14.4202 4.42712 14.3013 6.51844C14.1866 8.53633 17.7482 8.713 18.6976 7.45582C18.8429 7.26336 18.8869 6.98012 18.7752 6.75757C18.0929 5.39603 15.9372 5.056 14.9924 6.30193C14.7973 6.55904 14.8191 6.89778 15.0092 7.1544C15.7721 8.1846 17.7271 8.90563 18.6367 7.72781C19.0387 7.20744 18.4125 6.30332 17.7757 6.66039C17.2969 6.92894 16.7195 7.08618 16.1857 7.21122C15.8409 7.29188 15.4823 7.35196 15.1261 7.32366C14.88 7.30426 14.9689 7.28549 15.0561 7.00293C14.8117 7.14767 14.5672 7.29212 14.3229 7.43686C15.1938 7.47106 16.0195 8.08171 16.856 8.30719C17.7887 8.55858 18.6922 8.39528 19.2531 7.58383C19.7642 6.84443 18.6206 5.99509 18.1089 6.73541C17.7071 7.31671 16.9291 6.8876 16.3983 6.66711C15.7801 6.41039 15.1436 6.07394 14.4622 6.04721C14.1611 6.0353 13.8243 6.17193 13.729 6.48114C12.8146 9.44525 16.7904 8.82374 18.3535 7.94749C18.0664 7.59165 17.7796 7.2359 17.4925 6.88007C17.2193 7.23365 16.2949 6.53481 16.1197 6.29808C16.1254 6.58226 16.1311 6.86645 16.1365 7.15055C16.4264 6.76818 17.263 6.88139 17.4757 7.30605C17.5015 7.07327 17.5275 6.84058 17.5533 6.6078C17.2627 6.99263 16.2155 6.89531 15.8374 6.68321C15.6546 6.58075 15.62 6.63831 15.7865 6.64434C15.9875 6.65156 16.2754 6.74205 16.2459 6.96809C16.5051 6.76285 16.7641 6.55773 17.0233 6.35249C16.8263 6.30528 16.599 6.24894 16.4586 6.08994C16.3697 6.44716 16.2809 6.80438 16.1921 7.1616C16.1887 7.15408 16.1851 7.14647 16.1816 7.13914C16.39 6.76465 16.5983 6.39035 16.8065 6.01578C16.6213 5.97302 16.436 5.93045 16.2508 5.88789C15.3574 5.68207 15.2254 7.07364 16.1118 7.27722Z" fill="#003557"/>
<path d="M12.3707 4.40978C12.6791 4.48081 12.982 4.46216 13.247 4.27985C13.6185 4.02441 13.6391 3.52966 13.5417 3.13226C13.4509 2.76131 13.1294 2.48333 12.7252 2.54245C12.3645 2.59529 12.0467 2.96391 12.1381 3.33646C12.1542 3.40228 12.168 3.46762 12.1771 3.53458C12.1948 3.66393 12.1793 3.35589 12.1765 3.47166C12.1759 3.49462 12.1717 3.5173 12.1671 3.53962C12.1818 3.47903 12.1965 3.41845 12.2111 3.35786C12.2058 3.3762 12.1998 3.39266 12.1915 3.41008C12.2221 3.35574 12.2526 3.30139 12.2832 3.24705C12.278 3.25651 12.2719 3.26557 12.2649 3.27384C12.3001 3.23789 12.3354 3.20194 12.3706 3.16619C12.5078 3.09387 12.5464 3.07095 12.4867 3.09729C12.6374 3.06059 12.6803 3.0483 12.6151 3.06006C12.5215 3.07631 12.8285 3.06272 12.7298 3.05926C12.6556 3.05672 12.5817 3.03683 12.5098 3.02025C12.3397 2.9809 12.1259 3.06234 11.9959 3.16229C11.8473 3.27673 11.751 3.44986 11.7323 3.63585C11.7141 3.81583 11.7698 4.00029 11.8847 4.14353C12.0149 4.30518 12.1754 4.36484 12.3707 4.40978Z" fill="#003557"/>
<path d="M35.2814 11.7051C36.4647 11.9554 38.308 11.8578 39.1769 10.957C39.739 10.3742 39.5475 9.53544 39.0921 8.94214C38.5008 8.17158 37.1929 8.25593 36.5281 8.83296C35.8576 9.41506 35.8467 10.4399 36.4898 11.0384C37.0801 11.5877 38.1322 11.3407 38.6064 10.8053C39.3655 9.94788 38.2516 9.06315 37.3646 9.1792C36.602 9.27875 35.8751 9.89107 35.3955 10.4424C35.1867 10.6822 35.23 11.0528 35.4122 11.2949C35.8958 11.9374 36.8436 12.1123 37.1865 11.2555C37.5208 10.4206 36.1933 9.89911 35.8593 10.7334C36.5172 10.7973 36.7382 10.6987 36.5227 10.4381C36.5284 10.7223 36.534 11.0064 36.5395 11.2905C36.7239 11.0784 36.9673 10.8997 37.2066 10.7399C37.3174 10.6659 37.4432 10.6162 37.5672 10.5683C37.7946 10.4805 37.5365 10.5647 37.5059 10.5004C37.5317 10.2676 37.5577 10.0349 37.5835 9.80211C37.5152 9.90039 37.3969 9.95261 37.3785 9.94764C37.2214 9.90398 37.3917 9.91471 37.4201 10.0418C37.4161 10.024 37.4959 9.85745 37.4786 9.88667C37.5656 9.73931 37.9038 9.76029 38.0219 9.84049C38.0468 9.85737 38.1045 10.0144 38.1087 10.0331C38.1228 10.0953 38.1449 9.97932 38.0847 10.0548C37.9311 10.247 37.1868 10.3347 36.8394 10.3681C36.3745 10.4131 35.8811 10.4128 35.4205 10.3154C34.5228 10.1253 34.3893 11.5165 35.2814 11.7051Z" fill="#003557"/>
<path d="M28.6076 7.58666C29.1009 7.7001 29.6812 7.77383 30.1381 7.51916C30.5503 7.28935 30.685 6.85027 30.4046 6.44749C30.0957 6.00385 29.6531 5.83389 29.1467 5.71641C28.7372 5.62149 28.4443 5.99785 28.3692 6.33201C28.3488 6.42271 28.3284 6.51342 28.308 6.60412C28.2246 6.97564 28.5954 7.33893 28.946 7.37836C29.3655 7.42558 29.6402 7.1334 29.7235 6.76276C29.7439 6.67206 29.7643 6.58135 29.7847 6.49065C29.5255 6.69589 29.2665 6.90101 29.0073 7.10625C29.0892 7.1254 29.0867 7.12464 28.9998 7.10377C29.0596 7.11949 29.1169 7.1411 29.1742 7.16366C29.3504 7.23343 29.0683 7.08298 29.2277 7.20397C29.1278 7.12819 29.2881 7.29571 29.2941 7.30428C29.383 6.94706 29.4718 6.58984 29.5607 6.23262C29.531 6.25078 29.4999 6.26636 29.4677 6.27963C29.3131 6.35016 29.6066 6.25619 29.4344 6.28557C29.3975 6.29083 29.3607 6.29426 29.3235 6.29617C29.4953 6.28359 29.3153 6.29134 29.2822 6.28908C29.1017 6.27734 28.9232 6.23741 28.7472 6.1969C28.3679 6.10969 28.0046 6.46779 27.9698 6.8125C27.928 7.22383 28.2292 7.49957 28.6076 7.58666Z" fill="#003557"/>
<path d="M39.7895 21.7547C39.8361 21.8268 39.881 21.9007 39.9373 21.966C40.0991 22.1529 40.2754 22.2361 40.5142 22.2912C40.6585 22.3245 40.8571 22.2711 40.9852 22.2154C41.1517 22.1431 41.3615 22.0247 41.4723 21.8787C41.5879 21.7262 41.6195 21.5175 41.6485 21.3303C41.6759 21.1533 41.6509 20.9756 41.583 20.8089C41.4774 20.549 41.2133 20.3893 40.9429 20.3498C40.6787 20.311 40.4526 20.4398 40.2393 20.5652C40.4106 20.5178 40.5819 20.4704 40.7532 20.4232C40.6838 20.4072 40.6146 20.3914 40.5453 20.3754C40.3751 20.3363 40.1615 20.4173 40.0314 20.5175C39.8828 20.6319 39.7865 20.805 39.7679 20.991C39.7497 21.171 39.8054 21.3555 39.9203 21.4987C40.0502 21.6605 40.2105 21.7203 40.4059 21.7653C40.4752 21.7813 40.5444 21.797 40.6138 21.8131C40.7839 21.8522 40.9976 21.7712 41.1277 21.671C41.2763 21.5566 41.3725 21.3834 41.3912 21.1975C41.4094 21.0175 41.3537 20.833 41.2388 20.6898C41.1089 20.528 40.9485 20.4681 40.7532 20.4232C40.6838 20.4072 40.6146 20.3914 40.5453 20.3754C40.3751 20.3363 40.1615 20.4173 40.0314 20.5175C39.8828 20.6319 39.7865 20.805 39.7679 20.991C39.7497 21.171 39.8054 21.3555 39.9203 21.4987C40.0502 21.6605 40.2105 21.7203 40.4059 21.7653C40.4382 21.7727 40.4705 21.7801 40.5028 21.7876C40.5399 21.7961 40.5767 21.8045 40.6138 21.8131C40.8175 21.8599 41.0019 21.7448 41.1637 21.6498C41.1119 21.68 41.0601 21.7101 41.0083 21.7403C41.0454 21.7206 41.0812 21.7037 41.1219 21.6922C41.0639 21.7084 41.0058 21.7246 40.9478 21.7408C40.9611 21.7375 40.9743 21.7361 40.9879 21.7366C40.9265 21.7377 40.865 21.7385 40.8038 21.7397C40.8093 21.7405 40.8147 21.7412 40.8202 21.742C40.7584 21.7267 40.6965 21.7113 40.6347 21.6959C40.6395 21.6976 40.6441 21.6994 40.6489 21.701C40.5932 21.6702 40.5374 21.6393 40.4817 21.6084C40.4856 21.6111 40.4895 21.6136 40.4936 21.6163C40.4493 21.5736 40.405 21.5312 40.3609 21.4886C40.3685 21.495 40.3743 21.5028 40.3786 21.5116C40.3471 21.4602 40.3157 21.4088 40.2842 21.3574C40.2863 21.3623 40.2883 21.3673 40.2904 21.3722C40.273 21.3149 40.2556 21.2575 40.2383 21.2002C40.2432 21.2193 40.2454 21.237 40.2466 21.2565C40.2446 21.196 40.2428 21.1356 40.2407 21.0753C40.2403 21.1771 40.2151 21.2769 40.193 21.3755C40.281 21.2177 40.3687 21.0597 40.4566 20.9019C40.4182 20.9254 40.3801 20.949 40.3412 20.9718C40.393 20.9417 40.4448 20.9115 40.4966 20.8814C40.451 20.9078 40.4055 20.9333 40.3547 20.9489C40.4128 20.9327 40.4708 20.9165 40.5289 20.9003C40.5135 20.9036 40.4993 20.9056 40.4835 20.9058C40.545 20.9048 40.6064 20.9039 40.6677 20.9027C40.6584 20.9023 40.6494 20.9008 40.6403 20.8982C40.7022 20.9136 40.764 20.9289 40.8258 20.9443C40.8168 20.9417 40.808 20.9377 40.7998 20.9329C40.8555 20.9638 40.9113 20.9947 40.967 21.0255C40.9528 21.0163 40.9409 21.0065 40.9284 20.9952C40.9727 21.0379 41.0171 21.0804 41.0611 21.123C40.9972 21.0562 40.9498 20.9749 40.9002 20.898C40.6906 20.5733 40.1796 20.5588 39.9006 20.7735C39.752 20.8879 39.6558 21.061 39.6371 21.247C39.6173 21.4425 39.6852 21.5934 39.7895 21.7547Z" fill="#003557"/>
<path d="M18.923 2.14385C19.7091 2.7155 23.6327 3.73463 23.3187 1.81286C22.9866 -0.218672 18.292 -0.421283 18.6438 1.68985C18.9649 3.61625 23.0124 3.7081 23.6134 1.98985C23.989 0.916096 23.0383 0.072607 22.0204 0.00674796C21.0375 -0.0568114 19.8269 0.3379 19.2577 1.15503C18.966 1.57345 18.9468 2.06482 19.1296 2.53463C19.46 3.38279 20.7577 2.83041 20.429 1.98635C20.3669 1.82667 21.0644 1.53667 21.2456 1.4874C21.4866 1.4217 21.7399 1.38747 21.9906 1.4039C22.1026 1.41121 22.1812 1.43477 22.2858 1.47936C22.2682 1.472 22.2447 1.45309 22.2501 1.4722C22.2807 1.57952 22.2946 1.53402 22.1983 1.58776C21.9548 1.72366 21.6715 1.75182 21.3963 1.77259C21.0213 1.80097 20.3407 1.74817 20.0612 1.45547C19.9595 1.34912 20.0503 1.34879 20.0526 1.58481C20.0541 1.72845 19.9196 1.76598 20.119 1.6883C20.3929 1.58135 20.7455 1.60686 21.0341 1.62989C21.246 1.64692 21.5132 1.67783 21.7009 1.79164C21.7396 1.81512 21.8479 1.94771 21.9018 2.01301C21.92 1.98893 21.932 2.00905 21.9383 2.07326C21.8655 1.82102 21.9454 1.63043 22.1778 1.50187C21.9993 1.60455 21.2977 1.47139 20.9448 1.4019C20.6851 1.35075 20.4314 1.27919 20.1797 1.19785C20.0701 1.16233 19.9626 1.12096 19.856 1.0772C19.6694 1.00037 19.8154 1.06629 19.7682 1.03185C19.0243 0.490819 18.1809 1.60422 18.923 2.14385Z" fill="#003557"/>
<path d="M22.7566 5.50119C22.8977 6.02026 23.1264 6.46243 23.6999 6.59505C24.1738 6.70454 24.5892 6.33659 24.8642 6.01589C25.0239 5.82979 25.0402 5.53682 24.9418 5.31764C24.8285 5.06528 24.6181 4.96002 24.3618 4.89686C24.5708 4.9483 24.4014 4.90187 24.355 4.88363C24.194 4.82074 24.5124 4.98504 24.4007 4.91194C24.2216 4.79464 24.0265 4.70116 23.8046 4.7429C23.4496 4.80944 23.3072 5.06339 23.1034 5.31157C22.9469 5.50213 22.9258 5.78702 23.0258 6.00982C23.1379 6.25939 23.3497 6.37186 23.6058 6.4306C23.792 6.47329 23.9676 6.50035 24.1597 6.48314C24.4348 6.45843 24.6303 6.32203 24.8128 6.13045C24.9924 5.94188 25.0294 5.61615 24.9973 5.37116C24.958 5.07215 24.7086 4.78898 24.4191 4.69853C23.86 4.52383 23.0396 4.81625 23.0202 5.46758C23.0124 5.72992 23.0942 5.96785 23.2656 6.17348C23.3789 6.30943 23.5141 6.41657 23.6151 6.56419C23.8332 6.88327 24.3296 6.90815 24.6146 6.68871C24.9353 6.44177 24.943 6.02528 24.7257 5.70748C24.6507 5.59784 24.564 5.5031 24.4684 5.41041C24.4273 5.37057 24.3874 5.33033 24.3509 5.28635C24.3961 5.34455 24.424 5.40992 24.4341 5.4821C24.431 5.60002 24.4343 5.62016 24.444 5.54226C24.3043 5.73023 24.1648 5.91828 24.0251 6.10625C24.0608 6.08423 24.0975 6.06444 24.1354 6.04677C24.2956 5.96674 24.0078 6.06132 24.1591 6.03496C23.8078 6.09562 23.5251 5.68523 23.6157 5.37485C23.6642 5.26216 23.7482 5.17899 23.8672 5.12526C23.8913 5.11313 24.1577 5.10105 24.0298 5.09347C23.9341 5.08774 23.8384 5.0618 23.7452 5.04028C23.9127 5.41338 24.0801 5.78621 24.2476 6.15931C24.3054 6.08882 24.3615 6.01722 24.4148 5.94334C24.4293 5.92311 24.4436 5.9028 24.4589 5.88309C24.2538 6.14822 23.7643 6.16621 23.5332 6.00802C23.7563 6.16098 23.9626 6.22218 24.2226 6.2861C24.0551 5.913 23.8877 5.54017 23.7202 5.16707C23.6942 5.19842 23.6671 5.22909 23.6393 5.25876C23.751 5.13649 23.6449 5.24397 23.6155 5.26664C23.5514 5.30961 23.5683 5.29997 23.6663 5.23773C23.7027 5.22884 23.739 5.21968 23.7753 5.2108C23.7029 5.22112 23.7339 5.22115 23.8683 5.21107C23.9571 5.21937 24.0382 5.24899 24.1114 5.30004C24.139 5.32652 24.1668 5.35308 24.1945 5.37957C24.1523 5.32324 24.161 5.34093 24.221 5.43224C24.2058 5.40379 24.1921 5.37475 24.18 5.34519C24.1701 5.32268 24.1223 5.15579 24.1607 5.29648C24.0606 4.92761 23.7556 4.64648 23.3442 4.70666C22.9901 4.75888 22.6559 5.13073 22.7566 5.50119Z" fill="#003557"/>
<path d="M33.4285 5.20625C34.4772 6.00174 36.6913 6.33374 37.004 4.66214C37.3688 2.71186 34.1966 2.33387 32.9681 3.11094C32.1892 3.60379 32.1882 4.57487 32.7427 5.2492C33.3695 6.01144 34.5247 6.3237 35.4481 6.04036C36.2837 5.78399 36.9173 4.97635 36.674 4.08529C36.4166 3.14279 35.4385 2.75416 34.5359 2.9977C33.6672 3.23187 33.8838 4.61913 34.7651 4.38144C35.602 4.15568 35.2754 4.78421 34.6582 4.75522C34.3411 4.74025 33.9068 4.55056 33.7553 4.25841C33.73 4.2094 33.737 4.28886 33.7935 4.26035C33.953 4.1798 34.1389 4.16752 34.3149 4.15017C34.7087 4.11153 35.1334 4.19155 35.5028 4.32972C35.7853 4.43537 35.6189 4.50607 35.6194 4.27253C35.6195 4.21514 35.5698 4.46609 35.6352 4.42841C35.2616 4.64473 34.5105 4.27394 34.2731 4.09381C33.5403 3.53784 32.6984 4.65247 33.4285 5.20625Z" fill="#003557"/>
<path d="M42.9908 11.195C43.2874 11.2634 43.6175 11.3575 43.9211 11.2866C44.3916 11.1768 44.7802 10.7304 44.6301 10.2305C44.3463 9.28494 43.4339 8.93986 42.512 9.13517C41.9593 9.25229 41.7761 9.79925 42.0714 10.2554C42.3255 10.6484 42.5959 10.816 43.0521 10.9227C43.4311 11.0114 43.7949 10.6507 43.8296 10.3071C43.871 9.89475 43.5694 9.62135 43.1915 9.53287C43.2662 9.55328 43.2695 9.5532 43.2017 9.53273C43.2634 9.55976 43.315 9.59934 43.3567 9.65157C43.2872 9.57875 43.2362 9.48201 43.1821 9.39852C43.0352 9.77195 42.8884 10.1454 42.7415 10.5188C42.9439 10.4758 43.0684 10.4628 43.2462 10.4932C43.1298 10.4734 43.3473 10.5803 43.2365 10.5048C43.1546 10.4489 43.2695 10.5768 43.2532 10.5219C43.2661 10.4009 43.2787 10.2798 43.2915 10.1588C43.2871 10.1736 43.2829 10.1885 43.2785 10.2033C43.3518 10.0432 43.476 9.94601 43.6507 9.91209C43.8049 9.87607 43.6942 9.91314 43.6177 9.90462C43.4539 9.88634 43.291 9.8418 43.1307 9.80466C42.7514 9.71724 42.388 10.0755 42.3532 10.4203C42.3112 10.8322 42.6127 11.1078 42.9908 11.195Z" fill="#003557"/>
<path d="M46.7189 7.18841C47.6411 9.12717 52.117 8.79949 51.1895 6.22977C50.8072 5.17132 49.2949 4.80811 48.3114 4.97877C47.1181 5.18578 46.3044 6.42497 47.0613 7.50197C47.6174 8.29336 48.776 8.70568 49.6911 8.38074C50.1679 8.21144 50.4067 7.71232 50.3777 7.23896C50.3361 6.55949 49.9489 6.05405 49.3584 5.73338C48.2576 5.13599 46.6234 6.05588 46.305 7.13353C45.9025 8.49541 47.2601 9.57729 48.5354 9.11067C50.1259 8.529 50.9284 6.22534 49.1555 5.29493C47.6071 4.48243 45.4487 6.21719 46.0328 7.85649C46.3065 8.62495 47.3318 8.99035 48.041 9.19791C48.9195 9.45508 50.2016 9.65445 50.9014 8.93529C51.38 8.44326 51.1518 7.69245 50.7195 7.24502C50.1943 6.70141 49.4774 6.44074 48.7461 6.65574C47.8715 6.91302 48.4587 8.19676 49.3238 7.94236C49.3145 7.94512 49.587 8.07892 49.671 8.16618C49.7805 8.27951 49.7432 8.34817 49.7498 8.2006C49.7568 8.09153 49.8059 8.01075 49.897 7.9582C49.8058 8.00749 49.7023 8.00537 49.601 8.01695C49.0569 8.07936 48.4932 7.90263 47.9883 7.71483C47.6871 7.60278 47.2901 7.42598 47.3702 7.2164C47.4986 6.87979 48.5266 5.95103 48.7541 6.77344C48.8518 7.12642 48.5317 7.48521 48.2746 7.67843C48.0381 7.85633 47.5355 7.98284 47.6687 7.53174C47.7749 7.17216 48.3077 6.96775 48.6534 6.98043C48.8525 6.9878 48.9078 7.0736 48.9499 7.25685C48.9819 7.39641 49.1926 7.0823 49.0474 7.10278C48.7962 7.13829 48.51 6.97063 48.3207 6.82681C48.0385 6.61271 48.2392 6.4809 48.4783 6.38117C48.8099 6.24294 49.231 6.35281 49.5471 6.48447C49.6562 6.52994 50.0226 6.7452 49.8511 6.89979C49.5004 7.21577 48.2284 7.08214 48.0181 6.63985C47.6275 5.81895 46.3274 6.36536 46.7189 7.18841Z" fill="#003557"/>
</g>
</svg>
