<svg width="84" height="84" viewBox="0 0 84 84" fill="none" xmlns="http://www.w3.org/2000/svg">
<path fill-rule="evenodd" clip-rule="evenodd" d="M60.6667 17.2667C57.367 15.2244 53.5571 14.1566 49.6767 14.1867C43.9296 14.1928 38.4196 16.4786 34.3558 20.5424C30.2919 24.6062 28.0062 30.1162 28 35.8633C28 48.65 35.42 59.85 41.6267 66.8966L42.1167 67.3167C42.1167 67.3167 63.7933 50.1433 63.7933 28.2566C63.8081 24.3718 62.7242 20.5619 60.6667 17.2667ZM42 34.7666C40.2833 34.7666 38.6051 34.2576 37.1777 33.3038C35.7502 32.35 34.6377 30.9944 33.9807 29.4083C33.3238 27.8223 33.1519 26.077 33.4868 24.3933C33.8217 22.7095 34.6484 21.1629 35.8623 19.949C37.0762 18.735 38.6229 17.9084 40.3066 17.5734C41.9904 17.2385 43.7356 17.4104 45.3217 18.0674C46.9078 18.7243 48.2634 19.8369 49.2172 21.2643C50.1709 22.6917 50.68 24.3699 50.68 26.0867C50.68 28.3887 49.7655 30.5965 48.1377 32.2243C46.5099 33.8522 44.3021 34.7666 42 34.7666Z" fill="black"/>
<path d="M41.9997 36.6566C39.9091 36.6566 37.8655 36.0367 36.1273 34.8752C34.3891 33.7138 33.0343 32.063 32.2343 30.1316C31.4343 28.2002 31.2249 26.0749 31.6328 24.0245C32.0406 21.9741 33.0473 20.0907 34.5256 18.6125C36.0038 17.1342 37.8872 16.1276 39.9376 15.7197C41.988 15.3119 44.1132 15.5212 46.0447 16.3212C47.9761 17.1212 49.6269 18.476 50.7883 20.2142C51.9498 21.9525 52.5697 23.9961 52.5697 26.0866C52.5635 28.8881 51.4479 31.573 49.467 33.5539C47.4861 35.5348 44.8011 36.6504 41.9997 36.6566ZM41.9997 19.2966C40.6558 19.2966 39.3421 19.6954 38.225 20.4426C37.1078 21.1897 36.2376 22.2515 35.7243 23.4936C35.2111 24.7357 35.078 26.1021 35.3419 27.4199C35.6058 28.7376 36.2548 29.9475 37.2067 30.8961C38.1587 31.8448 39.3707 32.4896 40.6894 32.749C42.0081 33.0083 43.374 32.8705 44.6143 32.353C45.8546 31.8355 46.9135 30.9616 47.6567 29.8419C48.4 28.7223 48.7943 27.4072 48.7897 26.0633C48.7774 24.2706 48.0566 22.5555 46.7845 21.2922C45.5125 20.0289 43.7925 19.3199 41.9997 19.3199V19.2966Z" fill="black"/>
<path d="M37.0295 65.3334H26.8095C26.3052 65.3334 25.8215 65.5337 25.4648 65.8903C25.1082 66.247 24.9079 66.7307 24.9079 67.235C24.9079 67.7394 25.1082 68.2231 25.4648 68.5797C25.8215 68.9363 26.3052 69.1367 26.8095 69.1367H57.1429C57.6472 69.1367 58.1309 68.9363 58.4875 68.5797C58.8442 68.2231 59.0445 67.7394 59.0445 67.235C59.0445 66.7307 58.8442 66.247 58.4875 65.8903C58.1309 65.5337 57.6472 65.3334 57.1429 65.3334H46.9695C53.3862 59.15 65.6362 45.1733 65.6362 28.1867C65.6362 21.9302 63.1508 15.93 58.7268 11.506C54.3029 7.08205 48.3026 4.59668 42.0462 4.59668C35.7897 4.59668 29.7895 7.08205 25.3655 11.506C20.9416 15.93 18.4562 21.9302 18.4562 28.1867C18.4095 45.2433 30.6129 59.2434 37.0295 65.3334ZM41.9995 8.47001C47.2454 8.47619 52.2746 10.5628 55.984 14.2722C59.6934 17.9816 61.78 23.0108 61.7862 28.2567C61.7862 46.0367 46.4329 60.9234 41.9995 64.82C37.5662 60.9 22.2129 46.1533 22.2129 28.2567C22.219 23.0108 24.3057 17.9816 28.0151 14.2722C31.7244 10.5628 36.7537 8.47619 41.9995 8.47001Z" fill="black"/>
<path d="M79.4455 70.33L76.9255 60.32C76.5434 58.8188 75.6742 57.4867 74.4539 56.5324C73.2336 55.5781 71.7313 55.0556 70.1822 55.0467H65.0955C64.5912 55.0467 64.1075 55.247 63.7508 55.6037C63.3942 55.9603 63.1939 56.444 63.1939 56.9483C63.1939 57.4527 63.3942 57.9364 63.7508 58.293C64.1075 58.6496 64.5912 58.85 65.0955 58.85H70.1589C70.8575 58.8456 71.5381 59.0719 72.0949 59.4938C72.6518 59.9157 73.0539 60.5096 73.2389 61.1833L75.7589 71.31C75.8641 71.7751 75.8631 72.258 75.756 72.7227C75.6489 73.1874 75.4384 73.622 75.1402 73.9942C74.842 74.3664 74.4638 74.6665 74.0336 74.8724C73.6035 75.0783 73.1324 75.1846 72.6555 75.1833H11.9889C11.5083 75.1818 11.0342 75.0719 10.602 74.8618C10.1697 74.6517 9.79038 74.3469 9.4922 73.97C9.19523 73.5931 8.9883 73.1533 8.8872 72.6842C8.7861 72.2151 8.79351 71.7291 8.90887 71.2633L11.4289 61.1367C11.6102 60.4609 12.0114 59.8648 12.5691 59.4423C13.1268 59.0198 13.8093 58.795 14.5089 58.8033H19.5489C20.0532 58.8033 20.5369 58.603 20.8935 58.2463C21.2502 57.8897 21.4505 57.406 21.4505 56.9017C21.4505 56.3973 21.2502 55.9136 20.8935 55.557C20.5369 55.2004 20.0532 55 19.5489 55H14.4855C12.9262 55.0064 11.4137 55.5333 10.1879 56.497C8.96203 57.4608 8.09309 58.8063 7.71887 60.32L5.19887 70.33C4.94817 71.3592 4.93432 72.4318 5.15834 73.4671C5.38237 74.5024 5.83843 75.4734 6.49217 76.3068C7.14591 77.1403 7.98028 77.8145 8.93241 78.2787C9.88454 78.7429 10.9296 78.985 11.9889 78.9867H72.6555C73.7108 78.978 74.7505 78.7307 75.6968 78.2635C76.6431 77.7963 77.4715 77.1212 78.12 76.2886C78.7686 75.4561 79.2205 74.4876 79.4419 73.4558C79.6634 72.4239 79.6487 71.3554 79.3989 70.33H79.4455Z" fill="black"/>
</svg>
