<svg width="20" height="20" viewBox="0 0 20 20" fill="none" xmlns="http://www.w3.org/2000/svg">
<path d="M9.59899 4.74111L9.99935 5.27624L10.3997 4.74111C11.1514 3.73632 12.3559 3.08325 13.6994 3.08325C15.9792 3.08325 17.8327 4.94039 17.8327 7.24159C17.8327 8.17887 17.6832 9.04367 17.4236 9.846L17.4226 9.84926C16.8001 11.8193 15.5233 13.41 14.1412 14.5978C12.7569 15.7875 11.2956 16.5482 10.355 16.8682L10.3549 16.8682L10.3496 16.8701C10.2781 16.8953 10.1511 16.9166 9.99935 16.9166C9.8476 16.9166 9.7206 16.8953 9.64909 16.8701L9.6491 16.8701L9.64374 16.8682C8.70311 16.5482 7.24185 15.7875 5.85754 14.5978C4.47542 13.41 3.19864 11.8193 2.57611 9.84926L2.57612 9.84926L2.57507 9.84601C2.31549 9.04367 2.16602 8.17887 2.16602 7.24159C2.16602 4.94039 4.01949 3.08325 6.29935 3.08325C7.64278 3.08325 8.84726 3.73632 9.59899 4.74111Z" fill="#0F4A99" stroke="#0F4A99"/>
</svg>
