<svg width="84" height="78" viewBox="0 0 84 78" fill="none" xmlns="http://www.w3.org/2000/svg">
<path d="M29.9805 19.5254C45.8056 19.5254 61.5455 19.5254 77.4122 19.5254C77.4122 19.7853 77.4122 20.041 77.4122 20.2987C77.4122 25.3893 77.4254 30.48 77.4079 35.5706C77.3904 41.1486 73.0629 45.4767 67.4496 45.4897C57.1175 45.5113 46.7853 45.4962 36.4531 45.4962C36.265 45.4962 36.077 45.4962 35.8146 45.4962C35.3313 43.343 34.8568 41.2222 34.3561 38.991C34.7431 38.991 35.0361 38.991 35.327 38.991C37.7586 38.991 40.1924 38.9997 42.624 38.9889C44.4914 38.9802 45.9084 37.5808 45.9172 35.7699C45.9259 33.9112 44.5089 32.5075 42.5934 32.5032C39.6151 32.4945 36.6346 32.488 33.6563 32.5119C33.1096 32.5162 32.8647 32.4144 32.7335 31.81C31.8567 27.7419 30.9229 23.691 29.9805 19.5254Z" fill="#ECF2F7"/>
<path d="M0 2.43843C0.483261 1.8059 0.868121 1.04555 1.4804 0.579816C1.97241 0.20506 2.73994 0.0339291 3.3872 0.0295967C8.11485 -0.0137277 12.8447 0.00143585 17.5723 0.00793451C22.4268 0.0144332 26.3213 3.14029 27.3731 7.85831C27.7536 9.56529 28.1407 11.2701 28.5299 13.0031C28.9345 13.0031 29.2603 13.0031 29.5861 13.0031C46.4784 13.0031 63.3706 13.0269 80.2629 12.9728C82.3753 12.9663 84.035 14.4414 84 16.7095C83.906 22.9633 83.8907 29.2194 83.9869 35.4733C84.1246 44.5649 76.5652 52.1185 67.2586 52.0145C57.6109 51.9062 47.9609 51.9907 38.3132 51.9907C38.0158 51.9907 37.7162 51.9907 37.2833 51.9907C37.7687 54.1764 38.2389 56.2949 38.7265 58.4958C39.0567 58.4958 39.376 58.4958 39.6952 58.4958C51.0923 58.4958 62.4916 58.55 73.8887 58.4698C78.7541 58.4352 83.4664 61.9574 83.9322 67.3578C84.3936 72.6975 80.709 77.2553 75.3407 77.9181C68.4263 78.7716 62.977 72.5264 64.5558 65.9693C64.6258 65.6833 64.7045 65.3996 64.7964 65.0486C58.3237 65.0486 51.897 65.0486 45.4134 65.0486C46.3297 68.0163 46.0607 70.8411 44.3835 73.4666C43.078 75.5115 41.2281 76.9 38.8905 77.591C34.1301 78.9991 29.0941 76.6704 27.0626 72.156C25.1361 67.8755 26.4635 61.9986 32.1423 59.2323C31.3005 55.4804 30.4586 51.7156 29.6123 47.9528C28.9957 45.2126 28.3462 42.4788 27.7777 39.7277C27.6465 39.0887 27.3775 38.9804 26.8024 38.9825C21.1454 38.9999 15.4862 38.9977 9.82923 38.989C8.17389 38.9869 6.78096 37.7868 6.5776 36.2336C6.35893 34.5656 7.31671 33.0861 8.94361 32.6268C9.30223 32.525 9.69584 32.5055 10.0741 32.5055C15.1036 32.4969 20.133 32.5012 25.1624 32.5012C25.4576 32.5012 25.755 32.5012 26.1355 32.5012C25.7025 30.5451 25.2936 28.6757 24.8737 26.8084C23.5858 21.0636 22.2869 15.3209 21.0055 9.57395C20.5244 7.42073 19.4048 6.50226 17.1634 6.50226C12.8447 6.50009 8.52377 6.43294 4.20722 6.53258C2.19326 6.57374 0.774093 5.94121 0 4.06309C0 3.52154 0 2.97999 0 2.43843ZM29.9797 19.5256C30.92 23.6912 31.8559 27.7442 32.7328 31.808C32.864 32.4124 33.1089 32.5142 33.6555 32.5099C36.6338 32.486 39.6143 32.4925 42.5926 32.5012C44.5103 32.5077 45.9251 33.9092 45.9164 35.7679C45.9098 37.5788 44.4928 38.9782 42.6232 38.9869C40.1916 38.9999 37.7578 38.989 35.3262 38.989C35.0354 38.989 34.7445 38.989 34.3553 38.989C34.856 41.2181 35.3306 43.341 35.8138 45.4942C36.074 45.4942 36.2621 45.4942 36.4523 45.4942C46.7845 45.4942 57.1167 45.5093 67.4488 45.4877C73.0621 45.4747 77.3896 41.1466 77.4071 35.5686C77.4224 30.478 77.4115 25.3873 77.4115 20.2967C77.4115 20.039 77.4115 19.7833 77.4115 19.5234C61.5448 19.5256 45.807 19.5256 29.9797 19.5256ZM39.3585 68.2546C39.3716 66.5022 37.8496 64.988 36.0784 64.988C34.305 64.988 32.7874 66.5022 32.8027 68.2568C32.8158 69.9833 34.2941 71.4563 36.0412 71.4845C37.8015 71.5148 39.3453 70.0114 39.3585 68.2546ZM77.4071 68.259C77.4224 66.5087 75.9026 64.9902 74.1314 64.9902C72.3886 64.988 70.8951 66.4393 70.8514 68.1745C70.8076 69.9161 72.3099 71.4541 74.0855 71.4866C75.8458 71.517 77.3918 70.0158 77.4071 68.259Z" fill="black"/>
<path d="M16.3378 51.9864C15.2182 51.9864 14.1008 51.9972 12.9812 51.9842C11.151 51.9626 9.69681 50.5177 9.70118 48.7349C9.70337 46.9521 11.1575 45.5094 12.9922 45.4986C15.2576 45.4856 17.523 45.4834 19.7863 45.5007C21.5903 45.5137 22.9832 46.9196 23.0007 48.7046C23.0182 50.522 21.6143 51.9582 19.7775 51.9842C18.6295 51.9994 17.4837 51.9864 16.3378 51.9864Z" fill="black"/>
<path d="M10.5435 19.5017C11.6893 19.5017 12.8351 19.4865 13.9809 19.5038C15.7566 19.532 17.1888 20.9812 17.1976 22.7336C17.2063 24.4818 15.7719 25.9678 14.0072 25.9851C11.6893 26.009 9.36919 26.009 7.0491 25.9851C5.27131 25.9656 3.88932 24.5013 3.90244 22.7163C3.91556 20.966 5.28662 19.5406 7.02505 19.506C8.19712 19.4822 9.36919 19.5017 10.5435 19.5017Z" fill="black"/>
<path d="M39.3586 68.2544C39.3455 70.0113 37.8017 71.5124 36.0414 71.4843C34.2942 71.4561 32.8182 69.9831 32.8028 68.2566C32.7875 66.502 34.3051 64.99 36.0785 64.9878C37.8498 64.9878 39.3717 66.5041 39.3586 68.2544Z" fill="#ECF2F7"/>
<path d="M77.4064 68.2588C77.3911 70.0156 75.8451 71.5168 74.0848 71.4843C72.3092 71.454 70.8047 69.9138 70.8506 68.1721C70.8944 66.437 72.3879 64.9856 74.1307 64.9878C75.9019 64.99 77.4217 66.5063 77.4064 68.2588Z" fill="#ECF2F7"/>
</svg>
