<svg width="22" height="22" viewBox="0 0 22 22" fill="none" xmlns="http://www.w3.org/2000/svg">
<path d="M13.0475 14.9322L13.4186 15.1489L13.6886 14.8146C14.2175 14.1598 15.0086 13.7483 15.8872 13.7483C17.4521 13.7483 18.7501 15.063 18.75 16.7077C18.75 18.3519 17.4521 19.6663 15.8871 19.6663C14.3218 19.6663 13.0238 18.3519 13.0238 16.7077C13.0238 16.3594 13.0828 16.0257 13.19 15.7155L13.3242 15.3274L12.9696 15.1204L8.95297 12.7751L8.58193 12.5584L8.31192 12.8926C7.78307 13.5472 6.99209 13.9585 6.11376 13.9585C4.54816 13.9585 3.25 12.6441 3.25 10.9999C3.25 9.35561 4.54816 8.04114 6.11376 8.04114C6.9921 8.04114 7.78314 8.45247 8.31198 9.10712L8.58202 9.4414L8.9531 9.22467L12.9696 6.87877L13.3242 6.67171L13.19 6.28367C13.0828 5.97353 13.0239 5.63994 13.0239 5.29166C13.0239 3.64741 14.3219 2.33301 15.8872 2.33301C17.4522 2.33301 18.7501 3.64735 18.7499 5.2917V5.29174C18.7499 6.93685 17.4519 8.25153 15.887 8.25153C15.0084 8.25153 14.2172 7.83993 13.6883 7.18492L13.4183 6.85048L13.0471 7.06727L9.03084 9.41309L8.67636 9.62013L8.81043 10.0081C8.9176 10.3183 8.97657 10.6518 8.97657 11C8.97657 11.3482 8.9176 11.6817 8.81043 11.9919L8.67634 12.3799L9.0309 12.5869L13.0475 14.9322ZM18.5732 5.29166C18.5732 3.7891 17.3818 2.54332 15.8872 2.54332C14.3924 2.54332 13.2008 3.78902 13.2008 5.29166C13.2008 6.79471 14.3921 8.04114 15.8872 8.04114C17.3821 8.04114 18.5732 6.79463 18.5732 5.29166ZM3.42696 11C3.42696 12.5026 4.61888 13.7483 6.11383 13.7483C7.60844 13.7483 8.79977 12.5024 8.79977 11C8.79977 9.49735 7.60852 8.25153 6.11383 8.25153C4.61888 8.25153 3.42696 9.49714 3.42696 11ZM13.2008 16.7078C13.2008 18.2103 14.3924 19.4561 15.8872 19.4561C17.3819 19.4561 18.5732 18.2102 18.5732 16.7078C18.5732 15.205 17.382 13.9586 15.8872 13.9586C14.3922 13.9586 13.2008 15.2049 13.2008 16.7078Z" stroke="black"/>
</svg>
