<svg width="34" height="34" viewBox="0 0 34 34" fill="none" xmlns="http://www.w3.org/2000/svg">
<path d="M26.9165 9.91658C26.9165 10.1999 26.9165 10.3416 26.9165 10.6249C26.7748 12.7499 25.7831 14.5916 24.5081 15.8666C22.9498 17.4249 20.8248 18.4166 18.4164 18.4166H14.0248C13.3164 18.4166 12.7498 18.9833 12.6081 19.6916L11.4748 27.1999C11.3331 27.7666 11.0498 28.1916 10.4831 28.3333C10.3414 28.3333 10.1998 28.3333 10.0581 28.3333H7.36645C6.51645 28.3333 5.80812 27.6249 5.94978 26.6332L9.34978 6.37492C9.63312 4.39159 11.4748 2.83325 13.4581 2.83325H19.8331C23.7998 2.83325 26.9165 5.94992 26.9165 9.91658Z" fill="#002987"/>
<path d="M29.7498 15.5833C29.7498 17.5667 28.8998 19.2667 27.6248 20.5417C26.3498 21.8167 24.6498 22.6667 22.6664 22.6667H19.6914C18.9831 22.6667 18.4164 23.0917 18.2748 23.8L17.2831 29.8917C17.1414 30.6 16.5748 31.025 15.8664 31.025H11.6164C10.7664 31.025 10.0581 30.175 10.1998 29.325L10.4831 28.3333C11.0498 28.1917 11.4748 27.7667 11.4748 27.2L12.6081 19.6917C12.7498 18.9833 13.3164 18.4167 14.0248 18.4167H18.4164C20.8248 18.4167 22.9498 17.425 24.3665 15.8667C25.7831 14.45 26.6331 12.6083 26.7748 10.625C28.6164 11.6167 29.7498 13.4583 29.7498 15.5833Z" fill="#0085CC"/>
</svg>
