<svg width="34" height="34" viewBox="0 0 34 34" fill="none" xmlns="http://www.w3.org/2000/svg">
<path d="M9.11325 19.9553L8.12701 23.637L4.52231 23.7133C3.44503 21.7152 2.83398 19.4291 2.83398 16.9997C2.83398 14.6506 3.4053 12.4352 4.418 10.4846H4.41877L7.62796 11.073L9.03379 14.2629C8.73955 15.1207 8.57918 16.0416 8.57918 16.9997C8.57929 18.0397 8.76766 19.036 9.11325 19.9553Z" fill="#FBBB00"/>
<path d="M30.9202 14.3533C31.0829 15.2102 31.1677 16.0953 31.1677 16.9998C31.1677 18.014 31.0611 19.0034 30.8579 19.9577C30.1683 23.2051 28.3663 26.0408 25.8701 28.0475L25.8693 28.0467L21.8271 27.8404L21.255 24.2692C22.9114 23.2978 24.2059 21.7775 24.8878 19.9577H17.3125V14.3533H24.9983H30.9202Z" fill="#518EF8"/>
<path d="M25.87 28.0469L25.8707 28.0477C23.443 29.9991 20.359 31.1667 17.0018 31.1667C11.6068 31.1667 6.91622 28.1512 4.52344 23.7136L9.11438 19.9556C10.3107 23.1485 13.3908 25.4214 17.0018 25.4214C18.5539 25.4214 20.0079 25.0018 21.2557 24.2694L25.87 28.0469Z" fill="#28B446"/>
<path d="M26.0432 6.09469L21.4538 9.85195C20.1625 9.04478 18.636 8.5785 17.0006 8.5785C13.3079 8.5785 10.1702 10.9557 9.03381 14.2631L4.41874 10.4848H4.41797C6.77572 5.93902 11.5254 2.83325 17.0006 2.83325C20.438 2.83325 23.5897 4.05767 26.0432 6.09469Z" fill="#F14336"/>
</svg>
