<svg width="20" height="20" viewBox="0 0 20 20" fill="none" xmlns="http://www.w3.org/2000/svg">
<path d="M17.5016 7.2149C16.8702 6.53664 15.9183 6.14252 14.599 6.00504V5.30845C14.599 4.05277 14.0524 2.84291 13.0911 1.99967C12.1205 1.13811 10.8577 0.734821 9.54774 0.853974C7.29541 1.06478 5.4012 3.18203 5.4012 5.47343V6.00504C4.08184 6.14252 3.13002 6.53664 2.49862 7.2149C1.58449 8.20478 1.61277 9.52462 1.71643 10.4412L2.37611 15.5464C2.57401 17.3337 3.3185 19.1668 7.3708 19.1668H12.6294C16.6817 19.1668 17.4262 17.3337 17.6241 15.5556L18.2837 10.432C18.3874 9.52462 18.4063 8.20478 17.5016 7.2149ZM9.67967 2.12799C10.6221 2.0455 11.5173 2.32963 12.2147 2.94373C12.9027 3.54866 13.2891 4.41022 13.2891 5.30845V5.95004H6.71113V5.47343C6.71113 3.84196 8.09645 2.27464 9.67967 2.12799ZM6.62631 11.0553H6.61689C6.09857 11.0553 5.67449 10.6428 5.67449 10.1387C5.67449 9.63461 6.09857 9.22216 6.61689 9.22216C7.14463 9.22216 7.56871 9.63461 7.56871 10.1387C7.56871 10.6428 7.14463 11.0553 6.62631 11.0553ZM13.2231 11.0553H13.2137C12.6953 11.0553 12.2713 10.6428 12.2713 10.1387C12.2713 9.63461 12.6953 9.22216 13.2137 9.22216C13.7414 9.22216 14.1655 9.63461 14.1655 10.1387C14.1655 10.6428 13.7414 11.0553 13.2231 11.0553Z" fill="#0F4A99"/>
</svg>
