<svg width="20" height="20" viewBox="0 0 20 20" fill="none" xmlns="http://www.w3.org/2000/svg">
<path d="M11.8385 13.6146L12.2095 13.8313L12.4795 13.497C12.9523 12.9117 13.6589 12.5445 14.4429 12.5445C15.8392 12.5445 17.0001 13.7181 17 15.1894V15.1894C17 16.6603 15.8393 17.8337 14.4428 17.8337C13.0461 17.8337 11.8853 16.6603 11.8853 15.1894C11.8853 14.878 11.938 14.5796 12.0339 14.3023L12.168 13.9142L11.8134 13.7072L8.16198 11.5751L7.79095 11.3584L7.52093 11.6926C7.04821 12.2777 6.34181 12.6447 5.55796 12.6447C4.16097 12.6447 3 11.4713 3 10.0005C3 8.52962 4.16098 7.3562 5.55796 7.3562C6.34182 7.3562 7.04827 7.72321 7.52099 8.30838L7.79103 8.64267L8.1621 8.42594L11.8135 6.2933L12.168 6.08624L12.0339 5.6982C11.938 5.42093 11.8854 5.12268 11.8854 4.81122C11.8854 3.34035 13.0462 2.16699 14.4429 2.16699C15.8393 2.16699 17 3.34029 16.9999 4.81126V4.8113C16.9999 6.28297 15.839 7.45656 14.4428 7.45656C13.6587 7.45656 12.952 7.08931 12.4793 6.50382L12.2093 6.16937L11.8381 6.38616L8.18693 8.51873L7.83245 8.72577L7.96652 9.11377C8.06234 9.39108 8.11506 9.68928 8.11506 10.0006C8.11506 10.312 8.06234 10.6102 7.96652 10.8875L7.83243 11.2755L8.18699 11.4825L11.8385 13.6146ZM16.9302 4.81122C16.9302 3.42137 15.828 2.26727 14.4429 2.26727C13.0577 2.26727 11.9553 3.42129 11.9553 4.81122C11.9553 6.20151 13.0575 7.3562 14.4429 7.3562C15.8282 7.3562 16.9302 6.20143 16.9302 4.81122ZM3.06996 10.0006C3.06996 11.3905 4.1727 12.5445 5.55803 12.5445C6.94306 12.5445 8.04524 11.3903 8.04524 10.0006C8.04524 8.61069 6.94314 7.45656 5.55803 7.45656C4.1727 7.45656 3.06996 8.61048 3.06996 10.0006ZM11.9553 15.1895C11.9553 16.5794 13.0577 17.7335 14.4429 17.7335C15.828 17.7335 16.9302 16.5793 16.9302 15.1895C16.9302 13.7995 15.8281 12.6448 14.4429 12.6448C13.0575 12.6448 11.9553 13.7994 11.9553 15.1895Z" fill="black" stroke="black"/>
</svg>
