<svg width="12" height="12" viewBox="0 0 12 12" fill="none" xmlns="http://www.w3.org/2000/svg">
<path d="M6.77728 2.14989L7.57143 3.74701C7.67845 3.96789 7.96571 4.17744 8.2079 4.22275L9.64418 4.46062C10.5623 4.61353 10.7763 5.28183 10.1173 5.95013L8.99644 7.07717C8.81057 7.26407 8.70357 7.6322 8.76552 7.89839L9.08656 9.29162C9.34002 10.3903 8.75425 10.8208 7.79111 10.2431L6.44495 9.43887C6.20275 9.29162 5.79723 9.29162 5.55503 9.43887L4.20888 10.2431C3.24573 10.8151 2.65997 10.3903 2.91342 9.29162L3.23448 7.89839C3.29643 7.63786 3.18942 7.26973 3.00355 7.07717L1.8827 5.95013C1.2237 5.28749 1.43773 4.6192 2.35582 4.46062L3.79208 4.22275C4.03428 4.1831 4.32153 3.96789 4.42855 3.74701L5.22272 2.14989C5.64515 1.28337 6.34358 1.28337 6.77728 2.14989Z" fill="#F8F8F8"/>
</svg>
