<svg width="28" height="28" viewBox="0 0 28 28" fill="none" xmlns="http://www.w3.org/2000/svg">
<path d="M21.0009 8.46136C20.8723 8.38478 20.7141 8.37945 20.5807 8.44716C20.4476 8.51503 20.3575 8.64657 20.3416 8.79648C20.3258 8.94228 20.3012 9.08802 20.2704 9.24094C19.4097 13.1902 17.6813 15.1111 14.985 15.1111H11.0289C10.8203 15.1115 10.6407 15.26 10.599 15.4666L9.28033 21.7164L9.04473 23.3075C8.90928 24.031 9.37956 24.7286 10.0951 24.8655C10.174 24.8806 10.2541 24.8884 10.3344 24.8888H12.9806C13.5871 24.8907 14.1159 24.4721 14.2597 23.8763L15.3288 19.5555H17.6224C20.3293 19.5555 22.2001 17.3733 22.8902 13.4107C23.3457 11.5238 22.5921 9.54956 21.0009 8.46136Z" fill="#03A9F4"/>
<path d="M20.3426 5.00639C19.4621 4.01019 18.1986 3.43427 16.8673 3.4224H9.48908C8.38489 3.41648 7.44482 4.22235 7.28454 5.31214L4.99355 20.5574C4.88382 21.2857 5.3866 21.9647 6.11662 22.0742C6.18286 22.0842 6.24982 22.0891 6.31682 22.089H9.73861C9.95005 22.0887 10.1321 21.9401 10.1744 21.7335L11.4353 15.8668H15.0888C18.2593 15.8668 20.3542 13.6562 21.3166 9.28905C21.3553 9.11497 21.385 8.93905 21.4057 8.76193C21.6291 7.41464 21.2394 6.0381 20.3426 5.00639Z" fill="#283593"/>
</svg>
