<svg width="84" height="52" viewBox="0 0 84 52" fill="none" xmlns="http://www.w3.org/2000/svg">
<g clip-path="url(#clip0_618_5068)">
<path d="M71.827 0.0268977C71.827 0.0268977 72.7549 0.017976 73.1115 0.0268977C75.1822 0.0804278 77.2804 -0.0489365 79.3191 0.236557C81.943 0.602346 83.8126 2.89076 83.968 5.46466C83.9772 5.65202 83.9955 5.83937 83.9955 6.02673C83.9955 19.3736 84.0092 32.7159 83.9863 46.0628C83.9817 48.8463 82.3178 51.0009 79.7214 51.7191C79.054 51.902 78.3409 51.9867 77.6461 51.9867C58.6026 52.0001 39.559 52.0001 20.5155 51.9957C16.6665 51.9957 14.1661 49.5467 14.1524 45.7996C14.1433 43.2123 14.1524 40.625 14.1524 38.0377C14.1524 37.6987 14.1524 37.3641 14.1524 36.9002C12.9639 36.9002 11.8577 36.8823 10.7514 36.9047C10.0749 36.918 9.45322 36.7798 9.43037 36.0303C9.40751 35.2363 10.02 35.0222 10.7469 35.0311C11.8302 35.0445 12.9182 35.0356 14.0747 35.0356C14.0747 34.1389 14.0747 33.2914 14.0747 32.3412C12.5159 32.3412 10.9937 32.3412 9.46694 32.3412C9.14695 32.3412 8.7584 32.4438 8.52527 32.3055C8.13672 32.078 7.84874 31.6899 7.51961 31.3688C7.86245 31.0654 8.18701 30.5167 8.54813 30.4944C10.0749 30.3918 11.6108 30.4454 13.1467 30.4364C13.4576 30.4364 13.7684 30.4097 14.1158 30.3963C14.1158 29.4863 14.1158 28.6566 14.1158 27.7064C12.2691 27.7064 10.4635 27.7064 8.65327 27.7064C8.0133 27.7064 7.37334 27.7019 6.73794 27.7064C6.08883 27.7064 5.67286 27.412 5.67743 26.7696C5.682 26.1228 6.11169 25.8507 6.75623 25.8507C9.02353 25.8552 11.2954 25.8507 13.5627 25.8507C13.7181 25.8507 13.8736 25.8284 14.093 25.815C14.093 24.9407 14.093 24.0887 14.093 23.1207C13.3387 23.1207 12.6119 23.1207 11.8805 23.1207C9.70921 23.1207 7.53333 23.1251 5.36202 23.1162C4.65805 23.1117 3.80782 23.192 3.80782 22.1928C3.80324 21.149 4.67177 21.2159 5.41687 21.2159C7.94016 21.2114 10.4635 21.2159 12.9913 21.2159C13.3387 21.2159 13.6861 21.2159 14.093 21.2159C14.093 20.3148 14.093 19.4895 14.093 18.5215C13.7593 18.5215 13.421 18.5215 13.0827 18.5215C9.79149 18.5215 6.50024 18.5483 3.20899 18.4903C2.76101 18.4725 2.14391 18.1334 1.94277 17.7721C1.60908 17.1699 2.18047 16.6524 3.09471 16.648C6.38596 16.6391 9.67721 16.6435 12.9685 16.6435C13.3159 16.6435 13.6587 16.6435 14.0747 16.6435C14.0747 15.7112 14.0747 14.8592 14.0747 13.8644C13.741 13.8644 13.4027 13.8644 13.069 13.8644C9.16981 13.8644 5.27516 13.86 1.37595 13.8689C0.69027 13.8689 2.21417e-05 13.8243 2.21417e-05 12.9723C-0.00454904 12.0801 0.699413 11.9998 1.42623 11.9998C5.29345 12.0087 9.16067 12.0042 13.0233 12.0042C13.3662 12.0042 13.709 12.0042 14.1433 12.0042C14.1433 10.0415 14.2347 8.17239 14.125 6.31668C13.9193 2.77031 16.8494 -0.0221715 20.6023 0.000132681C32.7754 0.0715061 44.9484 0.0268977 57.1215 0.0268977C57.4643 0.0268977 71.827 0.0268977 71.827 0.0268977ZM79.5797 2.41345C79.5706 2.31531 79.5614 2.21717 79.5568 2.11903C78.8437 2.0432 78.1352 1.90491 77.4221 1.90045C68.7323 1.88707 60.0425 1.89153 51.3527 1.89153C41.1589 1.89153 30.9698 1.88261 20.7806 1.90491C19.9258 1.90491 19.071 2.11903 18.2116 2.23501C18.2025 2.33315 18.1933 2.43129 18.1887 2.52943C28.3231 12.6734 38.4574 22.8173 48.6419 33.0103C58.9957 22.7727 69.29 12.5931 79.5797 2.41345ZM55.0919 29.5175C53.3228 31.1948 51.6406 32.7695 49.9813 34.3664C48.7105 35.5887 48.5825 35.5709 47.3026 34.362C45.5153 32.6802 43.6776 31.0476 41.8172 29.348C33.9685 35.9054 25.9323 42.619 17.8962 49.3326C17.9236 49.4575 17.9465 49.5824 17.9739 49.7073C18.9293 49.8366 19.8801 50.082 20.8355 50.0864C35.1844 50.1087 49.5333 50.1043 63.8777 50.1043C68.4489 50.1043 73.0155 50.1177 77.5867 50.0909C78.2998 50.0864 79.0129 49.908 79.726 49.8099C79.7214 49.7206 79.7214 49.627 79.7168 49.5377C71.4979 42.8599 63.2834 36.1775 55.0919 29.5175ZM81.2573 48.3556C81.3853 48.3378 81.5133 48.3244 81.6459 48.3066C81.7876 47.4367 82.0436 46.5713 82.0481 45.7014C82.0801 37.8414 82.0664 29.9859 82.0664 22.1259C82.0664 16.764 82.0619 11.3976 82.0664 6.03565C82.0664 5.11225 81.9019 4.25577 81.175 3.50189C72.8921 11.692 64.6456 19.8464 56.3215 28.0767C64.6914 34.8839 72.9743 41.6198 81.2573 48.3556ZM16.5614 3.59111C16.3648 4.50112 16.0769 5.20593 16.0723 5.91967C16.0449 19.32 16.0494 32.7204 16.0677 46.1207C16.0677 46.714 16.2734 47.3118 16.4151 48.1014C24.6204 41.2495 32.6382 34.5493 40.7338 27.7912C32.7114 19.7527 24.7347 11.7723 16.5614 3.59111Z" fill="black"/>
<path d="M79.5804 2.41333C69.2861 12.593 58.9964 22.7681 48.6381 33.0102C38.4535 22.8172 28.3192 12.6733 18.1895 2.52931C18.1986 2.43117 18.2077 2.33303 18.2123 2.2349C19.0671 2.11891 19.9219 1.90479 20.7813 1.90479C30.9705 1.88249 41.1596 1.89141 51.3534 1.89141C60.0432 1.89141 68.733 1.88695 77.4228 1.90033C78.1359 1.90033 78.8444 2.04308 79.5575 2.11891C79.5667 2.21705 79.5713 2.31519 79.5804 2.41333Z" fill="black"/>
<path d="M55.0922 29.5176C63.2837 36.1776 71.4981 42.86 79.7171 49.5423C79.7217 49.6315 79.7217 49.7252 79.7263 49.8144C79.0132 49.9125 78.3001 50.091 77.587 50.0954C73.0158 50.1222 68.4492 50.1088 63.878 50.1088C49.529 50.1088 35.1801 50.1177 20.8358 50.091C19.8804 50.091 18.9296 49.8456 17.9742 49.7118C17.9468 49.5869 17.9239 49.462 17.8965 49.3371C25.9326 42.6235 33.9688 35.91 41.8175 29.3525C43.6779 31.0477 45.5156 32.6803 47.3029 34.3665C48.5828 35.5709 48.7062 35.5933 49.9816 34.371C51.6409 32.7695 53.3231 31.1949 55.0922 29.5176Z" fill="#F3F3F3"/>
<path d="M81.2574 48.3556C72.9744 41.6198 64.6914 34.8839 56.3262 28.0811C64.6503 19.8509 72.9013 11.692 81.1797 3.50635C81.9065 4.26023 82.0711 5.11671 82.0711 6.0401C82.0665 11.402 82.0711 16.7684 82.0711 22.1304C82.0711 29.9903 82.0848 37.8459 82.0528 45.7059C82.0482 46.5757 81.7922 47.4412 81.6505 48.311C81.5134 48.3244 81.3854 48.3422 81.2574 48.3556Z" fill="#F3F3F3"/>
<path d="M16.5613 3.59082C24.7345 11.772 32.7113 19.7525 40.7337 27.7865C32.6381 34.5446 24.6203 41.2448 16.415 48.0967C16.2687 47.3071 16.0676 46.7138 16.0676 46.116C16.0493 32.7157 16.0447 19.3153 16.0722 5.91492C16.0767 5.20565 16.3647 4.49637 16.5613 3.59082Z" fill="#F3F3F3"/>
</g>
<defs>
<clipPath id="clip0_618_5068">
<rect width="84" height="52" fill="white"/>
</clipPath>
</defs>
</svg>
