<svg width="84" height="84" viewBox="0 0 84 84" fill="none" xmlns="http://www.w3.org/2000/svg">
<g clip-path="url(#clip0_201_17509)">
<path d="M76.7799 18.9428L66.8182 3.29407C66.1626 2.26419 65.0263 1.64062 63.8055 1.64062H26.7331C26.4454 1.87839 26.1935 2.16357 25.9884 2.48785L15.6211 18.9428H76.7799Z" fill="#0F4A99"/>
<path d="M14.6016 22.2978V79.4441C14.6016 80.6483 15.1982 81.7121 16.1115 82.3594H74.2594C76.232 82.3594 77.831 80.7604 77.831 78.7878V21.6415C77.831 20.4373 77.2344 19.3735 76.3211 18.7262H18.1731C16.2005 18.7262 14.6016 20.3252 14.6016 22.2978Z" fill="#0F4A99"/>
<path d="M33.584 18.0699H50.6465V30.8438H33.584V18.0699Z" fill="white"/>
<path d="M50.6465 18.0238H33.584L36.4551 1.64062H47.7754L50.6465 18.0238Z" fill="white"/>
<path d="M77.831 43.5733C76.9248 43.5733 76.1904 44.3078 76.1904 45.214V78.7878C76.1904 79.8523 75.3239 80.7188 74.2594 80.7188H9.97C8.90552 80.7188 8.03906 79.8529 8.03906 78.7878V21.6415C8.03906 20.577 8.90552 19.7106 9.97 19.7106H13.9504V31.8281C13.9504 32.7343 14.6855 33.4688 15.5911 33.4688C16.4973 33.4688 17.2317 32.7343 17.2317 31.8281V19.7106H31.9428V30.8438C31.9428 31.7499 32.6773 32.4844 33.5835 32.4844H50.646C51.5522 32.4844 52.2866 31.7499 52.2866 30.8438V19.7106H74.2594C75.3239 19.7106 76.1904 20.577 76.1904 21.6415V31.8832C76.1904 32.7888 76.9248 33.5239 77.831 33.5239C78.7372 33.5239 79.4716 32.7888 79.4716 31.8832V21.6415C79.4716 20.7007 79.2198 19.8182 78.7814 19.0556C78.7532 18.9966 78.7224 18.9383 78.6866 18.8819L68.2032 2.41351C67.2413 0.902344 65.5974 0 63.8062 0H20.3162C18.5147 0 16.8664 0.910034 15.9064 2.43402L5.53839 18.8883C5.50378 18.9435 5.47366 18.9998 5.44675 19.0569C5.00903 19.8195 4.75781 20.7014 4.75781 21.6415V78.7878C4.75781 81.6615 7.09634 84 9.97 84H74.2594C77.1331 84 79.4716 81.6615 79.4716 78.7878V45.214C79.4716 44.3078 78.7372 43.5733 77.831 43.5733ZM49.0053 29.2031H35.2241V19.7106H49.0053V29.2031ZM65.4353 4.17526L73.236 16.4293H52.0322L49.7282 3.28125H63.8062C64.4702 3.28125 65.079 3.61514 65.4353 4.17526ZM46.397 3.28125L48.6926 16.3832H35.5368L37.8324 3.28125H46.397ZM18.682 4.18295C19.0377 3.61835 19.649 3.28125 20.3162 3.28125H34.5012L32.1973 16.4293H10.9659L18.682 4.18295Z" fill="black"/>
<path d="M77.8301 37.0551C77.3988 37.0551 76.9752 37.2307 76.6701 37.5357C76.3651 37.8408 76.1895 38.2644 76.1895 38.6957C76.1895 39.127 76.3651 39.5506 76.6701 39.8557C76.9752 40.1607 77.3988 40.3363 77.8301 40.3363C78.2614 40.3363 78.685 40.1607 78.9901 39.8557C79.2951 39.5506 79.4707 39.127 79.4707 38.6957C79.4707 38.2644 79.2951 37.8408 78.9901 37.5357C78.685 37.2307 78.2614 37.0551 77.8301 37.0551Z" fill="black"/>
<path d="M14.4305 36.5629C14.1248 36.868 13.9492 37.2916 13.9492 37.7229C13.9492 38.1542 14.1248 38.5778 14.4305 38.8829C14.7356 39.1879 15.1585 39.3635 15.5898 39.3635C16.0231 39.3635 16.4448 39.1879 16.7517 38.8829C17.0568 38.5778 17.2305 38.1542 17.2305 37.7229C17.2305 37.2916 17.0568 36.868 16.7517 36.5629C16.4448 36.2579 16.0231 36.0823 15.5898 36.0823C15.1585 36.0823 14.7349 36.2579 14.4305 36.5629Z" fill="black"/>
</g>
<defs>
<clipPath id="clip0_201_17509">
<rect width="84" height="84" fill="white"/>
</clipPath>
</defs>
</svg>
