<svg width="20" height="20" viewBox="0 0 20 20" fill="none" xmlns="http://www.w3.org/2000/svg">
<path d="M6.54102 5.62508C6.54102 3.71789 8.09216 2.16675 9.99935 2.16675C11.9062 2.16675 13.4572 3.71737 13.4577 5.62412C13.4499 7.49535 11.9911 9.00529 10.1319 9.07508H10.1319H10.1319H10.1319H10.1318H10.1318H10.1318H10.1318H10.1317H10.1317H10.1317H10.1317H10.1316H10.1316H10.1316H10.1316H10.1315H10.1315H10.1315H10.1315H10.1314H10.1314H10.1314H10.1314H10.1313H10.1313H10.1313H10.1313H10.1312H10.1312H10.1312H10.1312H10.1311H10.1311H10.1311H10.1311H10.131H10.131H10.131H10.131H10.1309H10.1309H10.1309H10.1309H10.1308H10.1308H10.1308H10.1307H10.1307H10.1307H10.1307H10.1306H10.1306H10.1306H10.1306H10.1305H10.1305H10.1305H10.1304H10.1304H10.1304H10.1304H10.1303H10.1303H10.1303H10.1303H10.1302H10.1302H10.1302H10.1301H10.1301H10.1301H10.1301H10.13H10.13H10.13H10.1299H10.1299H10.1299H10.1299H10.1298H10.1298H10.1298H10.1297H10.1297H10.1297H10.1297H10.1296H10.1296H10.1296H10.1295H10.1295H10.1295H10.1294H10.1294H10.1294H10.1294H10.1293H10.1293H10.1293H10.1292H10.1292H10.1292H10.1291H10.1291H10.1291H10.129H10.129H10.129H10.129H10.1289H10.1289H10.1289H10.1288H10.1288H10.1288H10.1287H10.1287H10.1287H10.1286H10.1286H10.1286H10.1285H10.1285H10.1285H10.1284H10.1284H10.1284H10.1283H10.1283H10.1283H10.1282H10.1282H10.1282H10.1281H10.1281H10.1281H10.128H10.128H10.128H10.1279H10.1279H10.1279H10.1278H10.1278H10.1277H10.1277H10.1277H10.1276H10.1276H10.1276H10.1275H10.1275H10.1275H10.1274H10.1274H10.1273H10.1273H10.1273H10.1272H10.1272H10.1272H10.1271H10.1271H10.127H10.127H10.127H10.1269H10.1269H10.1268H10.1268H10.1268H10.1267H10.1267H10.1266H10.1266H10.1266H10.1265H10.1265H10.1264H10.1264H10.1264H10.1263H10.1263H10.1262H10.1262H10.1262H10.1261H10.1261H10.126H10.126H10.1259H10.1259H10.1259H10.1258H10.1258H10.1257H10.1257H10.1256H10.1256H10.1256H10.1255H10.1255H10.1254H10.1254H10.1253H10.1253H10.1252H10.1252H10.1252H10.1251H10.1251H10.125H10.125H10.1249H10.1249H10.1248H10.1248H10.1247H10.1247H10.1246H10.1246H10.1245H10.1245H10.1244H10.1244H10.1243H10.1243H10.1242H10.1241H10.124H10.1239H10.1238H10.1237H10.1236H10.1235H10.1234H10.1233H10.1232H10.1231H10.123H10.1229H10.1228H10.1227H10.1226H10.1225H10.1224H10.1223H10.1222H10.1222H10.1221H10.122H10.1219H10.1218H10.1217H10.1216H10.1215H10.1214H10.1213H10.1212H10.1211H10.121H10.121H10.1209H10.1208H10.1207H10.1206H10.1205H10.1204H10.1203H10.1202H10.1201H10.12H10.12H10.1199H10.1198H10.1197H10.1196H10.1195H10.1194H10.1193H10.1192H10.1192H10.1191H10.119H10.1189H10.1188H10.1187H10.1186H10.1185H10.1185H10.1184H10.1183H10.1182H10.1181H10.118H10.1179H10.1179H10.1178H10.1177H10.1176H10.1175H10.1174H10.1173H10.1173H10.1172H10.1171H10.117H10.1169H10.1168H10.1167H10.1167H10.1166H10.1165H10.1164H10.1163H10.1162H10.1162H10.1161H10.116H10.1159H10.1158H10.1157H10.1157H10.1156H10.1155C10.0368 9.0664 9.95637 9.06743 9.88273 9.07406C7.98186 8.99167 6.54102 7.48278 6.54102 5.62508Z" fill="#0F4A99" stroke="#0F4A99"/>
<path d="M6.04486 16.7432L6.0435 16.7423C5.09454 16.1097 4.63281 15.3001 4.63281 14.4833C4.63281 13.6662 5.09492 12.8485 6.05153 12.2079C7.12392 11.4984 8.55546 11.1292 10.0099 11.1292C11.465 11.1292 12.892 11.4987 13.9555 12.2077C14.9008 12.8379 15.3587 13.6472 15.3661 14.4687C15.3654 15.2935 14.9031 16.1028 13.9537 16.7435C12.8862 17.4601 11.4556 17.8333 9.99948 17.8333C8.5432 17.8333 7.11242 17.46 6.04486 16.7432Z" fill="#0F4A99" stroke="#0F4A99"/>
</svg>
