<svg width="129" height="93" viewBox="0 0 129 93" fill="none" xmlns="http://www.w3.org/2000/svg">
<path d="M126.168 36.2773L92.4313 35.4073L62.1677 34.6269L28.4312 33.7569C27.6229 33.7361 26.9523 34.3319 26.9336 35.0878L26.618 47.7797C26.5987 48.5541 27.2763 49.1838 28.1046 49.1718C28.1098 49.1717 28.115 49.1717 28.1202 49.1716C35.5921 49.072 41.4793 54.7929 41.0811 61.7701C40.7158 68.1698 34.9703 73.1585 28.0706 72.9806C27.8881 72.9759 27.7066 72.9676 27.5261 72.9559C26.692 72.9015 25.9784 73.5019 25.959 74.2833L25.6437 86.9603C25.6249 87.7161 26.265 88.3458 27.0734 88.3666L60.8098 89.2366L91.0735 90.017L124.81 90.887C125.618 90.9079 126.289 90.312 126.308 89.5561L126.623 76.8792C126.642 76.0978 125.959 75.4614 125.124 75.4727C124.943 75.4751 124.761 75.474 124.579 75.4693C117.679 75.2914 112.189 70.013 112.142 63.6026C112.091 56.6139 118.255 51.2037 125.712 51.6883C125.718 51.6886 125.723 51.689 125.728 51.6893C126.555 51.7439 127.263 51.15 127.282 50.3756L127.597 37.6837C127.616 36.9278 126.976 36.2981 126.168 36.2773Z" fill="#0F4A99"/>
<path d="M125.594 87.7298L125.529 89.1036C125.51 89.8592 124.84 90.4554 124.031 90.4342L90.295 89.5643L60.0311 88.7839L26.2949 87.9139C25.4863 87.8932 24.8464 87.2637 24.865 86.5076L24.2906 85.0249L125.594 87.7298Z" fill="#ECF2F7"/>
<path d="M124.852 92.2381C124.826 92.2381 124.801 92.2377 124.775 92.2371L27.038 89.7149C25.4825 89.6747 24.2477 88.404 24.2855 86.8822L24.6108 73.8113C24.6295 73.061 24.9493 72.3672 25.5114 71.8576C26.0805 71.3416 26.8524 71.0752 27.6291 71.1268C27.7904 71.1376 27.9549 71.1452 28.1181 71.1493C28.2242 71.1521 28.3302 71.1535 28.4356 71.1535C34.4789 71.1535 39.4179 66.6858 39.7451 60.8559C39.9148 57.8307 38.8479 54.9633 36.7408 52.782C34.5266 50.4899 31.4843 49.2534 28.1713 49.3022L28.1588 49.3024C27.3837 49.3136 26.6287 49.011 26.0886 48.4696C25.5557 47.9353 25.2723 47.2301 25.2909 46.484L25.6166 33.3977C25.6347 32.6678 25.9402 31.9867 26.4767 31.48C27.0251 30.962 27.7473 30.6878 28.5099 30.7073L126.247 33.2295C127.803 33.2696 129.038 34.5403 129 36.0622L128.674 49.1485C128.655 49.8953 128.337 50.5857 127.777 51.0925C127.21 51.6061 126.441 51.8707 125.668 51.8187L125.654 51.8177C122.349 51.599 119.249 52.6758 116.924 54.8501C114.712 56.9191 113.504 59.727 113.524 62.7564C113.561 68.6995 118.438 73.4802 124.627 73.6398C124.789 73.644 124.954 73.645 125.117 73.6425C125.894 73.6326 126.651 73.9364 127.193 74.4803C127.728 75.0174 128.013 75.726 127.994 76.4757L127.669 89.5466C127.65 90.2766 127.345 90.9577 126.809 91.4643C126.278 91.9649 125.586 92.2381 124.852 92.2381ZM27.4348 73.8222C27.3864 73.8222 27.3576 73.8414 27.3442 73.8535C27.3296 73.8668 27.3294 73.8738 27.3293 73.878L27.004 86.9489C27.0036 86.9676 27.0385 87.0122 27.1086 87.014L124.846 89.5362C124.89 89.5372 124.92 89.5205 124.935 89.5061C124.95 89.4922 124.95 89.4839 124.95 89.4799L125.275 76.409C125.275 76.405 125.276 76.3967 125.26 76.3814C125.246 76.3671 125.213 76.3427 125.157 76.3441C124.957 76.3471 124.755 76.3459 124.556 76.3408C120.876 76.2459 117.428 74.7924 114.848 72.2482C112.263 69.699 110.827 66.3341 110.804 62.7733C110.792 60.8586 111.171 59.0124 111.931 57.2861C112.663 55.6215 113.716 54.1401 115.06 52.883C116.456 51.577 118.088 50.5845 119.911 49.9329C121.795 49.2593 123.789 48.9866 125.834 49.122C125.835 49.122 125.835 49.122 125.836 49.122L125.852 49.1231C125.921 49.1282 125.952 49.0907 125.955 49.0838L126.281 35.9954C126.282 35.9768 126.246 35.9322 126.176 35.9304L28.4392 33.4081C28.3929 33.4073 28.3654 33.4239 28.3502 33.4383C28.3354 33.4522 28.3352 33.4605 28.3351 33.4645L28.0095 46.5508C28.0114 46.5598 28.0411 46.6015 28.1143 46.6009L28.1283 46.6006C30.1809 46.5702 32.1581 46.946 34.0062 47.7158C35.7936 48.4603 37.3738 49.5354 38.7028 50.9112C39.9821 52.2356 40.9596 53.7689 41.6081 55.4686C42.2808 57.2316 42.5675 59.0947 42.4602 61.0063C42.2606 64.5621 40.6585 67.8494 37.9488 70.2627C35.3389 72.5872 31.9718 73.8551 28.4311 73.8553C28.3033 73.8553 28.1758 73.8536 28.0475 73.8503C27.8474 73.8452 27.6455 73.8359 27.4475 73.8227C27.4431 73.8223 27.4389 73.8222 27.4348 73.8222Z" fill="white"/>
<path d="M124.602 61.6884L89.5414 71.5135L58.0895 80.3273L23.029 90.1524C22.1887 90.3879 19.7521 90.3212 19.5155 89.5301L19.2894 88.2467L17.1071 75.8756C16.8623 75.0574 17.394 74.2068 18.2723 73.9978C18.4622 73.9528 18.6521 73.9037 18.8416 73.8506C26.0121 71.8409 30.2421 64.831 28.4496 58.0657C26.4953 50.6902 18.0879 44.8854 10.4219 47.3652C10.4165 47.367 9.46923 47.6295 9.46425 47.6313C9.09985 47.7498 8.97113 48.0073 8.92354 48.1991C8.86508 48.436 8.93034 48.5725 8.83018 48.223C8.82247 48.1951 8.81341 48.1645 8.80298 48.1303L4.8268 34.8441C4.58976 34.0529 5.07879 33.2203 5.91908 32.9848L40.9796 23.1597L72.4315 14.3459L107.492 4.52082C107.496 4.51947 107.5 4.51857 107.504 4.51767C107.642 4.66672 107.748 4.84504 107.808 5.04677L111.659 17.897C111.894 18.6814 111.352 19.505 110.472 19.7149C110.467 19.7162 110.462 19.7176 110.456 19.7189C102.529 21.6224 97.8894 29.033 100.243 36.0374C101.191 38.8559 103.158 41.1195 105.68 42.601C109.083 45.7734 114.176 47.1342 119.138 45.7441C119.328 45.691 119.515 45.6342 119.701 45.5743C119.778 45.5496 119.856 45.5302 119.934 45.5167C120.719 45.3803 121.499 45.8148 121.722 46.5587L125.694 59.8295C125.931 60.6207 125.442 61.4529 124.602 61.6884Z" fill="#0F4A99"/>
<path d="M122.422 59.3847L86.9946 69.3247L55.2137 78.2416L19.786 88.1815C19.6193 88.2283 19.4516 88.2495 19.2884 88.2468C18.6185 88.2387 18.018 87.842 17.834 87.2273L13.9879 74.3915C13.7508 73.6003 14.2965 72.7686 15.1835 72.556C15.3752 72.5097 15.5669 72.4601 15.7586 72.4061C23.004 70.3734 27.3464 63.5203 25.6196 56.9743C23.8139 50.1297 16.3664 46.2994 8.92258 48.1992C8.89131 48.2069 8.86003 48.215 8.82921 48.2231C8.54277 48.2979 8.25678 48.3816 7.9708 48.4735C7.96536 48.4748 7.95992 48.4766 7.95448 48.4784C7.09561 48.7558 6.18235 48.3406 5.94758 47.5567L2.09739 34.706C1.86806 33.9405 2.37023 33.1272 3.21913 32.889L38.6468 22.949L70.4277 14.0322L105.855 4.09222C106.48 3.91705 107.118 4.10213 107.503 4.51776C107.641 4.66681 107.747 4.84512 107.807 5.04686L111.658 17.8971C111.893 18.6815 111.351 19.5051 110.471 19.715C110.466 19.7163 110.461 19.7177 110.455 19.719C102.528 21.6225 97.8884 29.0331 100.242 36.0375C101.19 38.8559 103.157 41.1196 105.679 42.6011C108.904 44.4969 113.038 45.1124 117.104 43.9714C117.296 43.9173 117.486 43.8606 117.673 43.7998C118.54 43.5206 119.461 43.9412 119.698 44.7324L119.933 45.5168L123.544 57.5678C123.773 58.3333 123.271 59.1465 122.422 59.3847Z" fill="#0F4A99"/>
<path d="M20.333 92.5291C19.047 92.5292 17.8509 91.6908 17.4668 90.4097L13.2287 76.2742C12.9984 75.5063 13.0967 74.6699 13.4982 73.9795C13.9008 73.2873 14.5832 72.7837 15.3704 72.5979C15.5433 72.5571 15.7183 72.5119 15.8908 72.4635C22.4419 70.6242 26.2013 64.0483 24.4493 57.4928C23.5289 54.049 21.3078 51.2288 18.1953 49.5518C15.0998 47.8839 11.536 47.5721 8.16028 48.6738L8.14333 48.6794C7.37679 48.9306 6.5573 48.8638 5.83807 48.4905C5.12052 48.1181 4.59835 47.4897 4.36788 46.721L0.124746 32.5688C-0.102503 31.8109 -0.0173413 31.0136 0.364459 30.3241C0.745308 29.6363 1.37494 29.1396 2.13745 28.9255L104.768 0.110543C106.327 -0.327105 107.972 0.574038 108.436 2.11947L112.679 16.2717C112.908 17.0357 112.81 17.8678 112.41 18.5546C112.009 19.2436 111.329 19.7445 110.544 19.9288L110.529 19.9324C107.074 20.7487 104.243 22.8517 102.557 25.854C100.862 28.8712 100.549 32.3934 101.674 35.7715C103.446 41.0967 108.396 44.491 113.759 44.4915C114.907 44.4916 116.072 44.3361 117.231 44.0108C117.403 43.9625 117.576 43.9101 117.745 43.8549C118.517 43.6027 119.34 43.6705 120.062 44.0458C120.783 44.4204 121.308 45.0522 121.539 45.8248L125.778 59.9604C126.005 60.7184 125.92 61.5155 125.538 62.2051C125.157 62.8929 124.527 63.3896 123.765 63.6036L21.1342 92.4186C20.8676 92.4935 20.5984 92.5291 20.333 92.5291ZM12.1621 45.3279C12.6545 45.3279 13.1475 45.3515 13.6411 45.3988C15.6996 45.5959 17.6681 46.1942 19.4917 47.1767C21.3231 48.1636 22.9091 49.4843 24.2056 51.1024C25.5491 52.7791 26.5153 54.6959 27.0776 56.7994C28.1018 60.6317 27.589 64.6304 25.6337 68.059C23.6734 71.4962 20.4759 73.9838 16.63 75.0636C16.4209 75.1222 16.2087 75.1771 15.999 75.2266C15.9172 75.2459 15.8743 75.2942 15.8527 75.3314C15.8224 75.3835 15.8163 75.4412 15.8348 75.5029L20.0729 89.6384C20.1135 89.7737 20.2609 89.8563 20.3945 89.8187L123.025 61.0037C123.083 60.9874 123.127 60.9535 123.155 60.9029C123.175 60.8668 123.194 60.8079 123.171 60.7318L118.933 46.5962C118.907 46.5101 118.847 46.4638 118.802 46.44C118.755 46.4158 118.681 46.3931 118.594 46.4216C118.389 46.4886 118.179 46.5522 117.971 46.6108C114.132 47.6887 110.064 47.2456 106.518 45.3631C102.981 43.4855 100.344 40.3805 99.0916 36.6201C98.4027 34.5509 98.1586 32.4291 98.3662 30.3137C98.5668 28.2693 99.1778 26.3259 100.182 24.5376C101.183 22.7561 102.519 21.2255 104.154 19.9884C105.847 18.708 107.78 17.8048 109.9 17.3039C109.901 17.3037 109.902 17.3035 109.903 17.3034L109.919 17.2995C109.996 17.2815 110.036 17.2364 110.056 17.2017C110.084 17.1536 110.09 17.1002 110.072 17.0431L105.829 2.89093C105.789 2.75566 105.642 2.67312 105.508 2.71067L2.87698 31.5255C2.81883 31.5419 2.77514 31.5758 2.74713 31.6263C2.72719 31.6624 2.70816 31.7213 2.73095 31.7974L6.97409 45.9497C6.9982 46.0302 7.05427 46.0735 7.09705 46.0957C7.14102 46.1185 7.21086 46.1399 7.2938 46.1128L7.31229 46.1068C8.9 45.5886 10.5259 45.3279 12.1621 45.3279Z" fill="white"/>
<path d="M34.9968 24.5603C34.4108 24.5603 33.87 24.1811 33.6942 23.5947L33.1119 21.6527C32.8975 20.9376 33.3071 20.1853 34.0268 19.9723C34.7466 19.7593 35.5037 20.1663 35.7181 20.8813L36.3004 22.8234C36.5148 23.5384 36.1052 24.2907 35.3855 24.5037C35.256 24.542 35.1253 24.5603 34.9968 24.5603Z" fill="white"/>
<path d="M49.6471 73.4253C49.0612 73.4253 48.5204 73.0461 48.3446 72.4597L47.1237 68.3876C46.9093 67.6725 47.3189 66.9202 48.0386 66.7073C48.7582 66.4941 49.5155 66.9012 49.7299 67.6163L50.9508 71.6884C51.1651 72.4034 50.7555 73.1558 50.0358 73.3687C49.9064 73.407 49.7756 73.4253 49.6471 73.4253ZM45.9844 61.209C45.3985 61.209 44.8577 60.8298 44.6819 60.2434L43.461 56.1713C43.2466 55.4563 43.6562 54.704 44.3759 54.491C45.0955 54.2777 45.8528 54.6849 46.0671 55.4L47.288 59.4721C47.5024 60.1871 47.0928 60.9394 46.3731 61.1524C46.2437 61.1908 46.1129 61.209 45.9844 61.209ZM42.3217 48.9928C41.7357 48.9928 41.195 48.6136 41.0191 48.0272L39.7982 43.9551C39.5839 43.2401 39.9935 42.4878 40.7132 42.2748C41.433 42.0618 42.1901 42.4688 42.4044 43.1838L43.6254 47.2559C43.8397 47.9709 43.4301 48.7232 42.7104 48.9362C42.5809 48.9745 42.4502 48.9928 42.3217 48.9928ZM38.659 36.7765C38.073 36.7765 37.5322 36.3974 37.3564 35.811L36.1355 31.7389C35.9211 31.0239 36.3308 30.2715 37.0504 30.0585C37.77 29.8455 38.5273 30.2525 38.7417 30.9676L39.9626 35.0396C40.1769 35.7547 39.7673 36.507 39.0476 36.72C38.9182 36.7583 38.7874 36.7765 38.659 36.7765Z" fill="white"/>
<path d="M52.6708 83.5114C52.0849 83.5114 51.5441 83.1322 51.3682 82.5458L50.786 80.6037C50.5716 79.8887 50.9813 79.1364 51.701 78.9234C52.4208 78.7104 53.1779 79.1174 53.3922 79.8324L53.9745 81.7745C54.1888 82.4895 53.7792 83.2419 53.0595 83.4548C52.9301 83.4931 52.7993 83.5114 52.6708 83.5114Z" fill="white"/>
<path d="M66.372 65.8044C65.902 65.9266 65.3883 65.8933 64.9132 65.6744C63.8277 65.1743 63.3559 63.8945 63.8593 62.8161L82.7494 22.348C83.2528 21.2696 84.5408 20.8007 85.6263 21.3009C86.7118 21.8011 87.1836 23.0808 86.6802 24.1592L67.7901 64.6273C67.507 65.2337 66.9757 65.6475 66.372 65.8044Z" fill="white"/>
<path d="M62.9991 42.8927C59.0386 43.9223 54.9795 41.5818 53.9506 37.6752C52.9218 33.7686 55.3068 29.7528 59.2673 28.7231C63.2278 27.6935 67.2869 30.0341 68.3158 33.9406C69.3446 37.8472 66.9596 41.8631 62.9991 42.8927ZM60.3642 32.8879C58.7151 33.3166 57.7184 34.9753 58.1424 36.5855C58.5665 38.1956 60.2531 39.1568 61.9022 38.728C63.5513 38.2993 64.548 36.6406 64.1239 35.0304C63.6999 33.4202 62.0133 32.4592 60.3642 32.8879Z" fill="white"/>
<path d="M91.287 57.7386C87.3265 58.7682 83.2674 56.4276 82.2386 52.5211C81.2097 48.6145 83.5948 44.5986 87.5553 43.569C91.5157 42.5394 95.5748 44.8799 96.6037 48.7866C97.6326 52.6931 95.2475 56.709 91.287 57.7386ZM88.6521 47.7337C87.0031 48.1625 86.0064 49.8212 86.4304 51.4313C86.8544 53.0414 88.5411 54.0025 90.1902 53.5738C91.8392 53.1451 92.8359 51.4864 92.4119 49.8763C91.9879 48.2661 90.3012 47.305 88.6521 47.7337Z" fill="white"/>
</svg>
