<svg width="192" height="189" viewBox="0 0 192 189" fill="none" xmlns="http://www.w3.org/2000/svg">
<circle cx="94.5" cy="94.5" r="94.5" fill="#F3F3F3"/>
<mask id="mask0_1_14684" style="mask-type:alpha" maskUnits="userSpaceOnUse" x="3" y="0" width="189" height="189">
<circle cx="97.5" cy="94.5" r="94.5" fill="#F3F3F3"/>
</mask>
<g mask="url(#mask0_1_14684)">
<mask id="mask1_1_14684" style="mask-type:luminance" maskUnits="userSpaceOnUse" x="7" y="7" width="194" height="194">
<path d="M201 7H7V201H201V7Z" fill="white"/>
</mask>
<g mask="url(#mask1_1_14684)">
<path d="M121.227 187.663L95.3965 150.495L136.282 118.674L178.934 187.663" fill="white"/>
<path d="M121.227 187.663L95.3965 150.495L136.282 118.674L178.934 187.663" stroke="black" stroke-width="2" stroke-linecap="round" stroke-linejoin="round"/>
<path d="M111.958 164.366C109.46 163.488 106.489 162.803 102.84 162.523C90.1573 161.549 82.1012 154.318 80.12 147.44C77.7258 139.127 80.8727 129.819 87.1896 123.844C92.2607 119.048 103.975 118.768 106.239 111.476C106.843 109.529 106.638 107.382 107.47 105.514C108.334 103.576 110.226 102.201 112.27 101.437C123.611 97.2016 136.594 102.973 143.328 112.108" fill="white"/>
<path d="M111.958 164.366C109.46 163.488 106.489 162.803 102.84 162.523C90.1573 161.549 82.1012 154.318 80.12 147.44C77.7258 139.127 80.8727 129.819 87.1896 123.844C92.2607 119.048 103.975 118.768 106.239 111.476C106.843 109.529 106.638 107.382 107.47 105.514C108.334 103.576 110.226 102.201 112.27 101.437C123.611 97.2016 136.594 102.973 143.328 112.108" stroke="black" stroke-width="2" stroke-linecap="round" stroke-linejoin="round"/>
<path d="M55.2124 100.419L82.9165 96.9862C87.2866 96.4447 90.3904 92.4631 89.8491 88.0933C89.3076 83.7232 85.3258 80.6196 80.9557 81.1609L53.2513 84.5937C48.8814 85.1352 45.7777 89.1168 46.3192 93.4869C46.8607 97.8568 50.8423 100.961 55.2124 100.419Z" fill="white"/>
<path d="M55.2124 100.419L82.9165 96.9862C87.2866 96.4447 90.3904 92.4631 89.8491 88.0933C89.3076 83.7232 85.3258 80.6196 80.9557 81.1609L53.2513 84.5937C48.8814 85.1352 45.7777 89.1168 46.3192 93.4869C46.8607 97.8568 50.8423 100.961 55.2124 100.419Z" stroke="black" stroke-width="2" stroke-miterlimit="10"/>
<path d="M56.0075 76.4468L83.6516 80.3372C88.012 80.951 92.044 77.9134 92.6575 73.553C93.2713 69.1924 90.2342 65.1604 85.8736 64.5466L58.2298 60.6564C53.8692 60.0429 49.8369 63.0802 49.2234 67.4406C48.6096 71.801 51.6471 75.833 56.0075 76.4468Z" fill="white"/>
<path d="M56.0075 76.4468L83.6516 80.3372C88.012 80.951 92.044 77.9134 92.6575 73.553C93.2713 69.1924 90.2342 65.1604 85.8736 64.5466L58.2298 60.6564C53.8692 60.0429 49.8369 63.0802 49.2234 67.4406C48.6096 71.801 51.6471 75.833 56.0075 76.4468Z" stroke="black" stroke-width="2" stroke-miterlimit="10"/>
<path d="M61.7827 115.673L89.4868 112.24C93.8569 111.699 96.9607 107.717 96.4194 103.347C95.8779 98.9771 91.8961 95.8736 87.526 96.4148L59.8216 99.8476C55.4515 100.389 52.348 104.371 52.8895 108.741C53.431 113.111 57.4126 116.214 61.7827 115.673Z" fill="white"/>
<path d="M61.7827 115.673L89.4868 112.24C93.8569 111.699 96.9607 107.717 96.4194 103.347C95.8779 98.9771 91.8961 95.8736 87.526 96.4148L59.8216 99.8476C55.4515 100.389 52.348 104.371 52.8895 108.741C53.431 113.111 57.4126 116.214 61.7827 115.673Z" stroke="black" stroke-width="2" stroke-miterlimit="10"/>
<path d="M66.6106 131.787L94.315 128.354C98.6851 127.813 101.789 123.831 101.248 119.461C100.706 115.091 96.7242 111.988 92.3541 112.529L64.6497 115.962C60.2796 116.503 57.1761 120.485 57.7176 124.855C58.2591 129.225 62.2405 132.329 66.6106 131.787Z" fill="white"/>
<path d="M66.6106 131.787L94.315 128.354C98.6851 127.813 101.789 123.831 101.248 119.461C100.706 115.091 96.7242 111.988 92.3541 112.529L64.6497 115.962C60.2796 116.503 57.1761 120.485 57.7176 124.855C58.2591 129.225 62.2405 132.329 66.6106 131.787Z" stroke="black" stroke-width="2" stroke-miterlimit="10"/>
<path d="M121.758 147.409H74.0174C69.3995 147.409 65.6211 143.631 65.6211 139.013V41.2691C65.6211 36.651 69.3995 32.8726 74.0174 32.8726H121.758C126.376 32.8726 130.155 36.651 130.155 41.2691V139.013C130.155 143.631 126.376 147.409 121.758 147.409Z" fill="white"/>
<path d="M121.758 147.409H74.0174C69.3995 147.409 65.6211 143.631 65.6211 139.013V41.2691C65.6211 36.651 69.3995 32.8726 74.0174 32.8726H121.758C126.376 32.8726 130.155 36.651 130.155 41.2691V139.013C130.155 143.631 126.376 147.409 121.758 147.409Z" stroke="black" stroke-width="2" stroke-miterlimit="10"/>
<path d="M124.835 140.366H74.3298H70.9395V44.7104H124.835V140.366Z" fill="white"/>
<path d="M124.835 140.366H74.3298H70.9395V44.7104H124.835V140.366Z" stroke="black" stroke-width="2" stroke-miterlimit="10"/>
<path d="M92.2832 38.7168H103.492" stroke="black" stroke-width="2" stroke-miterlimit="10" stroke-linecap="round"/>
<path d="M115.174 94.4427C115.174 104.253 107.412 112.166 97.8869 112.166C88.3616 112.166 80.5996 104.253 80.5996 94.4427C80.5996 84.6322 88.3616 76.7197 97.8869 76.7197C107.412 76.7197 115.174 84.6322 115.174 94.4427Z" fill="black" stroke="white" stroke-width="2"/>
<path d="M116.174 94.4427C116.174 104.783 107.986 113.166 97.8869 113.166C87.7873 113.166 79.5996 104.783 79.5996 94.4427C79.5996 84.1022 87.7873 75.7197 97.8869 75.7197C107.986 75.7197 116.174 84.1022 116.174 94.4427Z" stroke="white" stroke-width="2" stroke-miterlimit="10"/>
<path d="M89.125 96.7113L94.632 102.841L107.22 85.9712" stroke="white" stroke-width="2" stroke-linecap="round" stroke-linejoin="round"/>
<path d="M126.213 155.52C118.844 147.409 119.351 134.56 122.18 128.901C123.174 126.912 124.385 125.318 124.837 123.016C125.917 117.507 124.947 111.734 124.695 106.162C124.465 101.062 124.832 95.7033 127.154 91.2073C128.589 88.4263 131.218 85.4889 134.66 85.8823C138.407 86.3105 140.903 90.0855 142.18 93.2914C144.215 98.4018 144.848 104.27 146.036 109.627C147.328 115.448 148.644 121.265 149.711 127.133C151.33 136.036 152.636 145.23 152.238 154.283" fill="white"/>
<path d="M126.213 155.52C118.844 147.409 119.351 134.56 122.18 128.901C123.174 126.912 124.385 125.318 124.837 123.016C125.917 117.507 124.947 111.734 124.695 106.162C124.465 101.062 124.832 95.7033 127.154 91.2073C128.589 88.4263 131.218 85.4889 134.66 85.8823C138.407 86.3105 140.903 90.0855 142.18 93.2914C144.215 98.4018 144.848 104.27 146.036 109.627C147.328 115.448 148.644 121.265 149.711 127.133C151.33 136.036 152.636 145.23 152.238 154.283" stroke="black" stroke-width="2" stroke-linecap="round" stroke-linejoin="round"/>
</g>
</g>
</svg>
