<svg width="155" height="145" viewBox="0 0 255 175" fill="none" xmlns="http://www.w3.org/2000/svg">
<path d="M148.027 102.938C138.819 102.938 129.605 102.938 120.397 102.938C116.194 102.938 114.019 100.717 114.019 96.4117C114.019 77.6532 114.019 58.8947 114.019 40.1362C114.019 35.8059 116.163 33.6158 120.391 33.6096C138.764 33.6096 157.131 33.6096 175.503 33.6096C179.841 33.6096 181.949 35.7623 181.955 40.1984C181.955 58.9071 181.955 77.6096 181.955 96.3183C181.955 100.754 179.829 102.932 175.516 102.932C166.357 102.932 157.198 102.932 148.039 102.932L148.027 102.938ZM155.469 71.3879C157.149 78.7606 166.204 81.4422 170.78 77.8772C168.892 71.1764 161.414 67.9597 155.469 71.3879ZM140.518 71.3692C134.768 68.2895 127.998 70.7471 125.511 76.6764C125.029 77.8212 125.31 78.294 126.397 78.7233C132.184 81.0316 138.911 77.5785 140.524 71.3692H140.518ZM157.198 44.9705C151.131 47.005 148.069 53.8924 150.642 59.6724C150.825 60.083 151.552 60.6181 151.87 60.5248C157.748 58.8636 160.699 50.2838 157.198 44.9705ZM144.678 60.7177C148.186 54.8132 144.941 46.445 138.709 45.0638C135.092 50.5265 138.202 58.764 144.678 60.7177ZM138.489 91.4716C144.996 89.294 148.198 81.6102 144.947 76.1413C138.599 77.647 135.165 85.6792 138.489 91.4716ZM157.479 91.4218C160.809 85.8658 157.167 77.3359 150.972 76.1786C147.758 81.8155 151.131 89.7109 157.479 91.4218ZM170.652 58.8138C165.171 55.4354 156.953 58.8698 155.676 64.992C161.169 68.2646 168.617 65.2346 170.652 58.8138ZM125.304 58.7765C127.143 65.2097 135.165 68.3704 140.322 64.8862C138.177 58.4965 130.992 55.5412 125.304 58.7765Z" fill="black"/>
<path d="M133.258 114.368C142.894 114.548 150.14 122.07 149.92 131.658C149.694 141.457 142.295 148.606 132.574 148.407C123.305 148.22 116.034 140.617 116.175 131.272C116.321 121.56 123.776 114.187 133.258 114.361V114.368ZM123.275 131.415C123.311 137.425 127.478 141.905 133.038 141.911C138.617 141.911 142.979 137.239 142.918 131.322C142.857 125.355 138.385 120.62 132.947 120.764C127.399 120.907 123.238 125.492 123.275 131.421V131.415Z" fill="black"/>
<path d="M87.9531 147.884V114.797C91.448 114.797 94.888 114.747 98.334 114.816C100.051 114.853 101.798 114.934 103.472 115.301C106.876 116.048 109.301 118.082 109.943 121.691C110.566 125.206 109.173 127.856 106.155 129.331C107.591 130.432 109.283 131.334 110.456 132.703C114.147 136.99 112.943 145.713 105.501 147.38C104.316 147.648 103.094 147.878 101.89 147.897C97.5214 147.984 93.1466 147.977 88.778 148.002C88.5336 148.002 88.2892 147.934 87.9592 147.89L87.9531 147.884ZM94.7047 141.918C96.4888 141.918 98.1079 141.924 99.7271 141.918C100.387 141.918 101.053 141.917 101.707 141.837C104.187 141.538 105.593 140.088 105.703 137.755C105.813 135.416 104.725 133.804 102.244 133.437C99.7698 133.07 97.2403 133.151 94.7047 133.039V141.918ZM94.7047 127.371C96.8981 127.371 98.9267 127.533 100.919 127.321C102.55 127.147 103.295 125.953 103.326 124.26C103.35 122.587 102.666 121.336 101.2 121.143C99.0733 120.857 96.9104 120.869 94.6985 120.751V127.371H94.7047Z" fill="black"/>
<path d="M168.556 125.075C170.646 121.89 172.613 118.941 174.513 115.942C175.039 115.12 175.582 114.729 176.591 114.772C178.711 114.865 180.831 114.797 183.25 114.797C179.609 120.403 176.114 125.778 172.589 131.197C176.212 136.747 179.811 142.247 183.568 147.996C180.935 147.996 178.564 148.046 176.2 147.946C175.784 147.928 175.295 147.368 175.008 146.945C172.912 143.834 170.859 140.692 168.635 137.332C167.609 138.894 166.686 140.287 165.77 141.687C165.458 142.16 165.165 142.645 164.847 143.112C163.747 144.717 162.642 146.322 161.536 147.928H153.739C154.448 146.82 155.047 145.881 155.652 144.941C158.377 140.754 161.065 136.542 163.845 132.392C164.462 131.465 164.426 130.861 163.821 129.953C160.778 125.424 157.809 120.838 154.821 116.265C154.546 115.848 154.301 115.419 153.91 114.791C156.507 114.791 158.884 114.753 161.248 114.834C161.627 114.847 162.079 115.338 162.336 115.724C164.383 118.754 166.387 121.809 168.544 125.063L168.556 125.075Z" fill="black"/>
<path d="M194.909 134.327V141.563H208.503V147.89H188.182V114.909H208.064V121.124H194.915V128.167H204.844V134.333H194.903L194.909 134.327Z" fill="black"/>
<path d="M235.039 121.137C233.42 122.132 231.856 123.091 230.316 124.036C229.473 123.209 228.715 122.375 227.872 121.641C226.314 120.285 224.469 120.054 222.562 120.571C221.31 120.907 220.418 121.74 220.247 123.159C220.069 124.646 220.534 125.865 221.902 126.5C223.748 127.359 225.678 128.031 227.524 128.889C229.045 129.598 230.585 130.32 231.972 131.266C237.636 135.117 237.397 143.025 231.562 146.609C225.238 150.497 217.039 148.736 213.385 142.689C212.994 142.036 212.719 141.308 212.328 140.493C214.057 139.553 215.701 138.664 217.479 137.699C217.833 138.259 218.157 138.769 218.481 139.273C220.155 141.861 222.623 142.67 225.495 142.384C227.359 142.197 228.63 141.04 228.898 139.541C229.253 137.556 228.642 136.206 226.729 135.223C225.422 134.545 223.98 134.134 222.66 133.468C220.491 132.373 218.126 131.477 216.287 129.941C211.98 126.345 212.695 119.239 217.43 116.234C223.662 112.283 232.088 114.548 235.033 121.143L235.039 121.137Z" fill="black"/>
<path d="M82.2346 114.896C79.8212 118.972 77.5177 122.86 75.1715 126.817C75.3731 126.967 75.5076 127.141 75.6786 127.178C81.9414 128.678 84.9719 135.571 82.0636 141.874C79.7662 146.851 75.3854 148.444 70.3324 148.382C65.3711 148.32 61.7601 145.912 59.3711 141.239C61.0636 140.194 62.701 139.186 64.4851 138.085C65.701 140.331 67.2835 142.216 69.8742 142.409C71.2245 142.508 72.7397 142.216 73.9801 141.65C75.9841 140.735 76.8762 137.662 76.143 135.254C75.1348 131.956 72.752 131.005 66.5137 131.552C68.5727 127.931 70.5585 124.447 72.6603 120.757H60.9841V114.896H82.2346Z" fill="black"/>
</svg>
