<svg width="238" height="64" viewBox="0 0 238 64" fill="none" xmlns="http://www.w3.org/2000/svg">
<path d="M11.0087 58H9.86027V50.3984H9.81242L6.66789 57.9316H5.62883L2.4843 50.3984H2.43645V58H1.28801V48.1357H2.71672L6.12102 56.3662H6.1757L9.58 48.1357H11.0087V58ZM13.4661 60.6592C13.3225 60.6592 13.0833 60.6455 12.9534 60.6182V59.6201C13.0833 59.6475 13.2679 59.6543 13.4182 59.6543C14.0813 59.6543 14.4505 59.333 14.7239 58.5059L14.888 58.0068L12.263 50.8906H13.5345L15.5032 56.8105H15.5237L17.4925 50.8906H18.7434L15.9475 58.499C15.3391 60.1602 14.7513 60.6592 13.4661 60.6592ZM27.083 58.1641C24.3623 58.1641 22.6396 56.1885 22.6396 53.0645C22.6396 49.9678 24.3828 47.9717 27.083 47.9717C29.2295 47.9717 30.8633 49.2773 31.1777 51.2461H29.9336C29.6191 49.9541 28.4912 49.1064 27.083 49.1064C25.1553 49.1064 23.9043 50.665 23.9043 53.0645C23.9043 55.4844 25.1416 57.0293 27.0898 57.0293C28.5391 57.0293 29.5781 56.332 29.9336 55.1289H31.1777C30.7266 57.0771 29.2637 58.1641 27.083 58.1641ZM34.9339 57.1113C36.055 57.1113 36.9164 56.3252 36.9164 55.2998V54.7188L35.016 54.835C34.0589 54.8965 33.5121 55.3203 33.5121 55.9902C33.5121 56.667 34.0795 57.1113 34.9339 57.1113ZM34.6673 58.123C33.2523 58.123 32.3021 57.2686 32.3021 55.9902C32.3021 54.7734 33.2386 54.0078 34.8793 53.9121L36.9164 53.7959V53.2012C36.9164 52.333 36.3421 51.8135 35.3578 51.8135C34.4418 51.8135 33.8675 52.2441 33.7171 52.9414H32.5687C32.6507 51.7109 33.7035 50.7676 35.3851 50.7676C37.0531 50.7676 38.1058 51.6699 38.1058 53.085V58H36.9779V56.7764H36.9505C36.5267 57.5898 35.6244 58.123 34.6673 58.123ZM39.7566 58V50.8906H40.8777V52.0527H40.905C41.1374 51.2666 41.7937 50.7676 42.6277 50.7676C42.8327 50.7676 43.0105 50.8018 43.1062 50.8154V51.9707C43.0105 51.9365 42.7575 51.9023 42.4704 51.9023C41.5476 51.9023 40.946 52.5654 40.946 53.5703V58H39.7566ZM44.5997 49.1748H45.7891V50.8906H47.17V51.8682H45.7891V56.0928C45.7891 56.7422 46.0626 57.0361 46.671 57.0361C46.8077 57.0361 47.0811 57.0156 47.1632 57.002V58C47.0196 58.0342 46.6915 58.0547 46.4112 58.0547C45.1055 58.0547 44.5997 57.5215 44.5997 56.1543V51.8682H43.5401V50.8906H44.5997V49.1748Z" fill="black"/>
<rect x="5" width="38" height="38" rx="19" fill="#F3F3F3"/>
<path d="M31.5025 16.2149C30.8711 15.5366 29.9193 15.1425 28.6 15.005V14.3085C28.6 13.0528 28.0534 11.8429 27.0921 10.9997C26.1215 10.1381 24.8586 9.73482 23.5487 9.85397C21.2964 10.0648 19.4022 12.182 19.4022 14.4734V15.005C18.0828 15.1425 17.131 15.5366 16.4996 16.2149C15.5855 17.2048 15.6137 18.5246 15.7174 19.4412L16.3771 24.5464C16.575 26.3337 17.3195 28.1668 21.3718 28.1668H26.6303C30.6827 28.1668 31.4271 26.3337 31.625 24.5556L32.2847 19.432C32.3884 18.5246 32.4072 17.2048 31.5025 16.2149ZM23.6807 11.128C24.623 11.0455 25.5183 11.3296 26.2157 11.9437C26.9036 12.5487 27.29 13.4102 27.29 14.3085V14.95H20.7121V14.4734C20.7121 12.842 22.0974 11.2746 23.6807 11.128ZM20.6273 20.0553H20.6179C20.0995 20.0553 19.6755 19.6428 19.6755 19.1387C19.6755 18.6346 20.0995 18.2222 20.6179 18.2222C21.1456 18.2222 21.5697 18.6346 21.5697 19.1387C21.5697 19.6428 21.1456 20.0553 20.6273 20.0553ZM27.2241 20.0553H27.2146C26.6963 20.0553 26.2722 19.6428 26.2722 19.1387C26.2722 18.6346 26.6963 18.2222 27.2146 18.2222C27.7424 18.2222 28.1665 18.6346 28.1665 19.1387C28.1665 19.6428 27.7424 20.0553 27.2241 20.0553Z" fill="black"/>
<path d="M186.361 48.1357H189.882C191.734 48.1357 193.04 49.4346 193.04 51.3008C193.04 53.1738 191.721 54.4795 189.868 54.4795H187.592V58H186.361V48.1357ZM187.592 49.2295V53.3857H189.56C190.969 53.3857 191.775 52.6133 191.775 51.3008C191.775 49.9951 190.976 49.2295 189.56 49.2295H187.592ZM196.14 57.1113C197.261 57.1113 198.122 56.3252 198.122 55.2998V54.7188L196.222 54.835C195.265 54.8965 194.718 55.3203 194.718 55.9902C194.718 56.667 195.285 57.1113 196.14 57.1113ZM195.873 58.123C194.458 58.123 193.508 57.2686 193.508 55.9902C193.508 54.7734 194.445 54.0078 196.085 53.9121L198.122 53.7959V53.2012C198.122 52.333 197.548 51.8135 196.564 51.8135C195.648 51.8135 195.074 52.2441 194.923 52.9414H193.775C193.857 51.7109 194.909 50.7676 196.591 50.7676C198.259 50.7676 199.312 51.6699 199.312 53.085V58H198.184V56.7764H198.157C197.733 57.5898 196.83 58.123 195.873 58.123ZM201.55 60.6592C201.407 60.6592 201.168 60.6455 201.038 60.6182V59.6201C201.168 59.6475 201.352 59.6543 201.503 59.6543C202.166 59.6543 202.535 59.333 202.808 58.5059L202.972 58.0068L200.347 50.8906H201.619L203.588 56.8105H203.608L205.577 50.8906H206.828L204.032 58.499C203.423 60.1602 202.836 60.6592 201.55 60.6592ZM207.911 58V50.8906H209.032V52.0254H209.06C209.395 51.2734 210.119 50.7676 211.076 50.7676C212.047 50.7676 212.765 51.2598 213.072 52.1211H213.1C213.496 51.2734 214.33 50.7676 215.328 50.7676C216.736 50.7676 217.646 51.6836 217.646 53.0918V58H216.456V53.3652C216.456 52.3945 215.916 51.8203 214.979 51.8203C214.036 51.8203 213.373 52.5176 213.373 53.4814V58H212.184V53.2354C212.184 52.3809 211.609 51.8203 210.728 51.8203C209.784 51.8203 209.101 52.5586 209.101 53.543V58H207.911ZM222.154 51.7998C221.039 51.7998 220.26 52.6543 220.185 53.8369H224.047C224.02 52.6475 223.275 51.7998 222.154 51.7998ZM224.02 55.9629H225.189C224.984 57.207 223.781 58.123 222.229 58.123C220.192 58.123 218.954 56.708 218.954 54.4727C218.954 52.2646 220.212 50.7676 222.174 50.7676C224.095 50.7676 225.278 52.1621 225.278 54.3154V54.7666H220.178V54.835C220.178 56.1953 220.978 57.0908 222.256 57.0908C223.159 57.0908 223.822 56.6328 224.02 55.9629ZM226.621 58V50.8906H227.742V52.0254H227.769C228.166 51.2598 228.925 50.7676 230.025 50.7676C231.584 50.7676 232.486 51.7725 232.486 53.3857V58H231.297V53.5977C231.297 52.4492 230.757 51.8203 229.663 51.8203C228.542 51.8203 227.81 52.6133 227.81 53.8164V58H226.621ZM234.526 49.1748H235.716V50.8906H237.097V51.8682H235.716V56.0928C235.716 56.7422 235.989 57.0361 236.598 57.0361C236.734 57.0361 237.008 57.0156 237.09 57.002V58C236.946 58.0342 236.618 58.0547 236.338 58.0547C235.032 58.0547 234.526 57.5215 234.526 56.1543V51.8682H233.467V50.8906H234.526V49.1748Z" fill="#696969"/>
<rect x="192" width="38" height="38" rx="19" fill="#F4F4F4"/>
<path d="M219.334 15.2918C219.334 15.8418 218.884 16.2918 218.334 16.2918H203.667C203.117 16.2918 202.667 15.8418 202.667 15.2918V15.2835C202.667 13.3752 204.209 11.8335 206.117 11.8335H215.875C217.784 11.8335 219.334 13.3835 219.334 15.2918Z" fill="#696969"/>
<path d="M202.667 18.5415V22.7165C202.667 24.6248 204.209 26.1665 206.117 26.1665H215.875C217.784 26.1665 219.334 24.6165 219.334 22.7082V18.5415C219.334 17.9915 218.884 17.5415 218.334 17.5415H203.667C203.117 17.5415 202.667 17.9915 202.667 18.5415ZM207.667 23.3748H206C205.659 23.3748 205.375 23.0915 205.375 22.7498C205.375 22.4082 205.659 22.1248 206 22.1248H207.667C208.009 22.1248 208.292 22.4082 208.292 22.7498C208.292 23.0915 208.009 23.3748 207.667 23.3748ZM213.084 23.3748H209.75C209.409 23.3748 209.125 23.0915 209.125 22.7498C209.125 22.4082 209.409 22.1248 209.75 22.1248H213.084C213.425 22.1248 213.709 22.4082 213.709 22.7498C213.709 23.0915 213.425 23.3748 213.084 23.3748Z" fill="#696969"/>
<line x1="40" y1="18.7" x2="195" y2="18.7" stroke="#696969" stroke-width="0.6" stroke-dasharray="4 4"/>
</svg>
