<svg width="24" height="24" viewBox="0 0 24 24" fill="none" xmlns="http://www.w3.org/2000/svg">
<path d="M19.3399 14.49L18.3399 12.83C18.1299 12.46 17.9399 11.76 17.9399 11.35V8.82C17.9399 6.47 16.5599 4.44 14.5699 3.49C14.0499 2.57 13.0899 2 11.9899 2C10.8999 2 9.91994 2.59 9.39994 3.52C7.44994 4.49 6.09994 6.5 6.09994 8.82V11.35C6.09994 11.76 5.90994 12.46 5.69994 12.82L4.68994 14.49C4.28994 15.16 4.19994 15.9 4.44994 16.58C4.68994 17.25 5.25994 17.77 5.99994 18.02C7.93994 18.68 9.97994 19 12.0199 19C14.0599 19 16.0999 18.68 18.0399 18.03C18.7399 17.8 19.2799 17.27 19.5399 16.58C19.7999 15.89 19.7299 15.13 19.3399 14.49Z" fill="black"/>
<path d="M10.0947 20.6143C10.1452 20.6193 10.1958 20.6239 10.2466 20.6282C10.8281 20.6792 11.4225 20.71 12.0192 20.71C12.6065 20.71 13.1916 20.6791 13.7637 20.628L13.7666 20.6277C13.8096 20.6237 13.8572 20.6197 13.9078 20.6156C13.4466 21.1572 12.7613 21.5 11.9992 21.5C11.3403 21.5 10.6916 21.2319 10.239 20.7628L10.2303 20.7538L10.2212 20.7452C10.1774 20.7042 10.1352 20.6604 10.0947 20.6143Z" stroke="black"/>
</svg>
