<svg width="14" height="15" viewBox="0 0 14 15" fill="none" xmlns="http://www.w3.org/2000/svg">
<path d="M12.7315 6.45558L10.1259 9.12727L10.7384 12.9085C10.7924 13.2102 10.4652 13.4312 10.2036 13.2881L7 11.5118V1.66699C7.13612 1.66699 7.27224 1.73026 7.33057 1.86165L8.93968 5.2925L12.5225 5.83754C12.822 5.89108 12.9323 6.24389 12.7315 6.45558Z" fill="#FFC107"/>
<path d="M6.9994 1.66699V11.5118L3.79576 13.2881C3.53859 13.4326 3.20656 13.2136 3.26101 12.9085L3.87354 9.12727L1.26785 6.45558C1.06707 6.24389 1.17694 5.89108 1.47689 5.83754L5.05971 5.2925L6.66882 1.86165C6.72716 1.73026 6.86328 1.66699 6.9994 1.66699Z" fill="#FFC107"/>
</svg>
