<svg width="18" height="19" viewBox="0 0 18 19" fill="none" xmlns="http://www.w3.org/2000/svg">
<path d="M8.4323 3.63087C8.6059 3.13143 8.6927 2.88171 8.82106 2.8125C8.93215 2.7526 9.06592 2.7526 9.17701 2.8125C9.30537 2.88171 9.39217 3.13143 9.56577 3.63087L10.7135 6.93266C10.7629 7.0748 10.7876 7.14588 10.8321 7.19881C10.8714 7.24556 10.9216 7.282 10.9782 7.30496C11.0423 7.33094 11.1175 7.33247 11.268 7.33554L14.7628 7.40676C15.2915 7.41753 15.5558 7.42292 15.6613 7.52361C15.7526 7.61075 15.7939 7.73797 15.7713 7.86213C15.7451 8.00559 15.5345 8.16531 15.1131 8.48476L12.3276 10.5966C12.2077 10.6875 12.1477 10.733 12.1111 10.7917C12.0788 10.8435 12.0596 10.9025 12.0553 10.9634C12.0504 11.0324 12.0722 11.1044 12.1158 11.2485L13.128 14.5943C13.2811 15.1004 13.3577 15.3534 13.2945 15.4849C13.2398 15.5986 13.1316 15.6772 13.0065 15.6941C12.862 15.7135 12.645 15.5625 12.211 15.2605L9.34174 13.2639C9.21822 13.178 9.15646 13.135 9.08933 13.1183C9.03003 13.1036 8.96804 13.1036 8.90874 13.1183C8.84161 13.135 8.77985 13.178 8.65633 13.2639L5.78707 15.2605C5.35306 15.5625 5.13606 15.7135 4.99153 15.6941C4.86645 15.6772 4.75823 15.5986 4.70356 15.4849C4.6404 15.3534 4.71696 15.1004 4.87007 14.5943L5.88231 11.2485C5.92588 11.1044 5.94767 11.0324 5.94277 10.9634C5.93843 10.9025 5.91928 10.8435 5.88696 10.7917C5.85038 10.733 5.79042 10.6875 5.6705 10.5966L2.88497 8.48476C2.46362 8.16532 2.25295 8.00559 2.22679 7.86213C2.20415 7.73797 2.24549 7.61075 2.33678 7.52361C2.44227 7.42292 2.70659 7.41753 3.23523 7.40676L6.73008 7.33554C6.88054 7.33247 6.95577 7.33094 7.01986 7.30496C7.07648 7.282 7.12664 7.24556 7.16596 7.19881C7.21048 7.14588 7.23519 7.0748 7.2846 6.93266L8.4323 3.63087Z" fill="#D9D9D9"/>
</svg>
