<svg width="28" height="28" viewBox="0 0 28 28" fill="none" xmlns="http://www.w3.org/2000/svg">
<path d="M14.0007 25.6668C20.444 25.6668 25.6673 20.4435 25.6673 14.0002C25.6673 7.55684 20.444 2.3335 14.0007 2.3335C7.55733 2.3335 2.33398 7.55684 2.33398 14.0002C2.33398 20.4435 7.55733 25.6668 14.0007 25.6668Z" fill="#635BFF"/>
<path fill-rule="evenodd" clip-rule="evenodd" d="M23.0517 14.1035C23.0517 12.8159 22.4279 11.7998 21.2359 11.7998C20.0387 11.7998 19.3145 12.8159 19.3145 14.0934C19.3145 15.6074 20.1695 16.372 21.3968 16.372C21.9954 16.372 22.448 16.2362 22.7901 16.0451V15.0391C22.4481 15.2101 22.0558 15.3157 21.5578 15.3157C21.0699 15.3157 20.6373 15.1447 20.582 14.5512H23.0416C23.0416 14.4858 23.0517 14.2242 23.0517 14.1035ZM20.5669 13.6257C20.5669 13.0573 20.914 12.8209 21.2308 12.8209C21.5377 12.8209 21.8646 13.0573 21.8646 13.6257H20.5669Z" fill="white"/>
<path fill-rule="evenodd" clip-rule="evenodd" d="M17.3746 11.7998C16.8817 11.7998 16.5648 12.0312 16.3888 12.1921L16.3234 11.8803H15.2168V17.7452L16.4743 17.4786L16.4793 16.0551C16.6604 16.1859 16.927 16.372 17.3696 16.372C18.2699 16.372 19.0898 15.6477 19.0898 14.0532C19.0848 12.5945 18.2549 11.7998 17.3746 11.7998ZM17.0728 15.2654C16.7761 15.2654 16.6 15.1598 16.4793 15.029L16.4743 13.1629C16.6051 13.0171 16.7861 12.9165 17.0728 12.9165C17.5306 12.9165 17.8474 13.4295 17.8474 14.0884C17.8474 14.7624 17.5356 15.2654 17.0728 15.2654Z" fill="white"/>
<path fill-rule="evenodd" clip-rule="evenodd" d="M13.4863 11.5031L14.7488 11.2315V10.2104L13.4863 10.4771V11.5031Z" fill="white"/>
<path fill-rule="evenodd" clip-rule="evenodd" d="M13.4863 11.8853H14.7488V16.2864H13.4863V11.8853Z" fill="white"/>
<path fill-rule="evenodd" clip-rule="evenodd" d="M12.1318 12.2572L12.0513 11.885H10.9648V16.2862H12.2223V13.3035C12.5191 12.9161 13.0221 12.9866 13.178 13.0419V11.8851C13.017 11.8246 12.4286 11.714 12.1318 12.2572Z" fill="white"/>
<path fill-rule="evenodd" clip-rule="evenodd" d="M9.61706 10.7939L8.38978 11.0555L8.38477 15.0844C8.38477 15.8288 8.94308 16.3771 9.68751 16.3771C10.0999 16.3771 10.4017 16.3016 10.5678 16.2111V15.19C10.4068 15.2554 9.61209 15.4868 9.61209 14.7424V12.9568H10.5678V11.8854H9.61209L9.61706 10.7939Z" fill="white"/>
<path fill-rule="evenodd" clip-rule="evenodd" d="M6.21789 13.1629C6.21789 12.9667 6.37885 12.8913 6.64541 12.8913C7.02768 12.8913 7.51057 13.0069 7.89283 13.2132V12.0312C7.47534 11.8652 7.0629 11.7998 6.64541 11.7998C5.62435 11.7998 4.94531 12.333 4.94531 13.2233C4.94531 14.6115 6.85669 14.3902 6.85669 14.9888C6.85669 15.2201 6.65548 15.2956 6.3738 15.2956C5.9563 15.2956 5.42314 15.1246 5.00064 14.8932V16.0903C5.4684 16.2915 5.94122 16.377 6.3738 16.377C7.42001 16.377 8.13929 15.8589 8.13929 14.9586C8.13428 13.4597 6.21789 13.7263 6.21789 13.1629Z" fill="white"/>
</svg>
