<svg width="75" height="74" viewBox="0 0 75 74" fill="none" xmlns="http://www.w3.org/2000/svg">
<path d="M12.0618 65.3257V47.9834C12.0618 44.7908 14.6498 42.2026 17.8426 42.2026H9.1714C5.97868 42.2026 3.39062 44.7908 3.39062 47.9834V65.3257C3.39062 68.5183 5.97868 71.1065 9.1714 71.1065H17.8426C14.65 71.1065 12.0618 68.5185 12.0618 65.3257Z" fill="black"/>
<path d="M20.7329 71.1065H9.1714C5.97882 71.1065 3.39062 68.5183 3.39062 65.3257V47.9834C3.39062 44.7908 5.97882 42.2026 9.1714 42.2026H20.7329C23.9255 42.2026 26.5137 44.7908 26.5137 47.9834V65.3257C26.5137 68.5185 23.9255 71.1065 20.7329 71.1065Z" stroke="black" stroke-width="4" stroke-miterlimit="10" stroke-linecap="round" stroke-linejoin="round"/>
<path d="M37.084 71.1065H60.0413C62.7583 71.1065 65.0128 69.2567 65.6487 66.7132L71.4294 49.3708C71.5451 48.9662 71.6029 48.4459 71.6029 47.9834C71.6029 44.804 69.0015 42.2027 65.8221 42.2027H60.3137C57.4878 42.2027 55.0762 40.1596 54.6116 37.3723L53.3313 29.6908C52.8667 26.9033 50.4551 24.8604 47.6291 24.8604H43.8551V36.4219C43.8551 39.6145 41.267 42.2027 38.0744 42.2027H37.084" stroke="black" stroke-width="4" stroke-miterlimit="10" stroke-linecap="round" stroke-linejoin="round"/>
<path d="M42.988 8.6741L37.4902 6.8877" stroke="black" stroke-width="4" stroke-miterlimit="10" stroke-linecap="round" stroke-linejoin="round"/>
<path d="M42.9896 8.67432L39.5918 13.3511" stroke="black" stroke-width="4" stroke-miterlimit="10" stroke-linecap="round" stroke-linejoin="round"/>
<path d="M42.9883 8.67432L46.3861 13.3511" stroke="black" stroke-width="4" stroke-miterlimit="10" stroke-linecap="round" stroke-linejoin="round"/>
<path d="M42.9883 8.6741L48.4861 6.8877" stroke="black" stroke-width="4" stroke-miterlimit="10" stroke-linecap="round" stroke-linejoin="round"/>
<path d="M42.9883 8.67408V2.89331" stroke="black" stroke-width="4" stroke-miterlimit="10" stroke-linecap="round" stroke-linejoin="round"/>
<path d="M19.865 8.6741L14.3672 6.8877" stroke="black" stroke-width="4" stroke-miterlimit="10" stroke-linecap="round" stroke-linejoin="round"/>
<path d="M19.8665 8.67432L16.4688 13.3511" stroke="black" stroke-width="4" stroke-miterlimit="10" stroke-linecap="round" stroke-linejoin="round"/>
<path d="M19.8652 8.67432L23.263 13.3511" stroke="black" stroke-width="4" stroke-miterlimit="10" stroke-linecap="round" stroke-linejoin="round"/>
<path d="M19.8652 8.6741L25.363 6.8877" stroke="black" stroke-width="4" stroke-miterlimit="10" stroke-linecap="round" stroke-linejoin="round"/>
<path d="M19.8652 8.67408V2.89331" stroke="black" stroke-width="4" stroke-miterlimit="10" stroke-linecap="round" stroke-linejoin="round"/>
<path d="M66.1111 8.6741L60.6133 6.8877" stroke="black" stroke-width="4" stroke-miterlimit="10" stroke-linecap="round" stroke-linejoin="round"/>
<path d="M66.1126 8.67432L62.7148 13.3511" stroke="black" stroke-width="4" stroke-miterlimit="10" stroke-linecap="round" stroke-linejoin="round"/>
<path d="M66.1113 8.67432L69.5091 13.3511" stroke="black" stroke-width="4" stroke-miterlimit="10" stroke-linecap="round" stroke-linejoin="round"/>
<path d="M66.1113 8.6741L71.6091 6.8877" stroke="black" stroke-width="4" stroke-miterlimit="10" stroke-linecap="round" stroke-linejoin="round"/>
<path d="M66.1113 8.67408V2.89331" stroke="black" stroke-width="4" stroke-miterlimit="10" stroke-linecap="round" stroke-linejoin="round"/>
</svg>
