<svg width="34" height="34" viewBox="0 0 34 34" fill="none" xmlns="http://www.w3.org/2000/svg">
<g clip-path="url(#clip0_826_5489)">
<path d="M31.4812 22.3381L31.1624 20.7443H27.6009L27.0342 22.3268L24.1797 22.3324C25.5386 19.0644 26.9005 15.7975 28.2653 12.5319C28.4977 11.978 28.9099 11.6961 29.5177 11.6989C29.9823 11.7032 30.7402 11.7032 31.7928 11.7003L34 22.3338L31.4812 22.3381ZM28.4027 18.5613H30.6978L29.8407 14.5663L28.4027 18.5613ZM10.0017 11.6975L12.8718 11.7003L8.43483 22.3395L5.52925 22.3367C4.7986 19.5265 4.07704 16.7139 3.36458 13.899C3.22292 13.338 2.94242 12.9456 2.40267 12.76C1.92242 12.5943 1.122 12.3393 0 11.9922V11.7018H4.58575C5.37908 11.7018 5.84233 12.0857 5.99108 12.8733C6.14125 13.6624 6.51808 15.6713 7.12442 18.8998L10.0017 11.6975ZM16.8158 11.7003L14.5463 22.3367L11.815 22.3338L14.0817 11.6975L16.8158 11.7003ZM22.355 11.5034C23.1724 11.5034 24.2023 11.7584 24.7945 11.9922L24.3157 14.1979C23.7802 13.9826 22.899 13.6922 22.1581 13.7021C21.0814 13.7205 20.4156 14.1724 20.4156 14.6059C20.4156 15.3114 21.5716 15.667 22.7616 16.4377C24.1202 17.316 24.2987 18.1051 24.2817 18.9622C24.2632 20.7415 22.7616 22.4968 19.5939 22.4968C18.1489 22.4755 17.6276 22.3537 16.4489 21.9358L16.9476 19.6337C18.1475 20.1366 18.6561 20.2967 19.6817 20.2967C20.621 20.2967 21.4271 19.917 21.4342 19.2554C21.4398 18.7851 21.1508 18.5513 20.0968 17.9705C19.0428 17.3883 17.5638 16.5822 17.5837 14.9643C17.6077 12.8932 19.5698 11.5034 22.3564 11.5034H22.355Z" fill="#2270A8"/>
</g>
<defs>
<clipPath id="clip0_826_5489">
<rect width="34" height="34" fill="white"/>
</clipPath>
</defs>
</svg>
